<?xml version="1.0" encoding="UTF-8" standalone="no"?>
<!DOCTYPE svg  PUBLIC '-//W3C//DTD SVG 1.1//EN'  'http://www.w3.org/Graphics/SVG/1.1/DTD/svg11.dtd'>
<svg xmlns="http://www.w3.org/2000/svg">
<defs>
<font id="DejaVuSansMono-Regular" horiz-adv-x="1233">
<font-face underline-position="-85" font-weight="400" descent="-410" panose-1="2 11 6 9 3 8 4 2 2 4" units-per-em="2048" unicode-range="U+0020-A78C" bbox="-351 -767 1470 2133" x-height="1118" underline-thickness="90" font-family="DejaVuSansMono" ascent="1638" cap-height="1493"/>
<missing-glyph d="M68 0v1365h544v-1365h-544zM136 68h408v1229h-408v-1229z"/>
<glyph glyph-name=".notdef" d="M68 0v1365h544v-1365h-544zM136 68h408v1229h-408v-1229z"/>
<glyph glyph-name=".null" horiz-adv-x="0"/>
<glyph glyph-name="nonmarkingreturn" horiz-adv-x="2048"/>
<glyph glyph-name="space" unicode=" "/>
<glyph glyph-name="exclam" d="M516 254h203v-254h-203v254zM516 1493h203v-655l-21 -357h-161l-21 357v655z" unicode="!"/>
<glyph glyph-name="quotedbl" d="M512 1493v-555h-174v555h174zM895 1493v-555h-174v555h174z" unicode='&quot;'/>
<glyph glyph-name="numbersign" d="M788 901h-245l-84 -334h246zM684 1470l-104 -415h245l105 415h160l-105 -415h244v-154h-281l-84 -334h250v-153h-289l-104 -414h-160l105 414h-246l-105 -414h-159l104 414h-258v153h297l84 334h-266v154h303l104 415h160z" unicode="#"/>
<glyph glyph-name="dollar" d="M692 -301h-100l-1 301q-102 5 -202.5 28t-198.5 64v180q100 -62 201.5 -95t200.5 -35v458q-200 31 -301 122t-101 241q0 157 105.5 250.5t296.5 107.5v235h100l1 -235q79 -5 160 -20t165 -41v-173q-85 43 -165.5 66.5t-160.5 27.5v-431q206 -31 314 -128t108 -251 t-116.5 -257t-304.5 -112zM592 770v413q-104 -4 -162.5 -60t-58.5 -150q0 -86 54.5 -136t166.5 -67zM692 580v-434q110 3 172 61t62 158q0 93 -56 144.5t-178 70.5z" unicode="$"/>
<glyph glyph-name="percent" d="M33 1112q0 135 92 227.5t227 92.5q64 0 122.5 -24t103.5 -69t69.5 -103.5t24.5 -123.5q0 -134 -93 -226.5t-227 -92.5q-135 0 -227 92t-92 227zM168 1112q0 -79 52.5 -131.5t131.5 -52.5q77 0 131 53.5t54 130.5t-54 130.5t-131 53.5t-130.5 -53t-53.5 -131zM121 465 l-35 96l1042 418l41 -96zM561 319q0 135 92 227.5t226 92.5q64 0 121.5 -24t103.5 -70q46 -47 71 -105t25 -121q0 -133 -93 -226t-228 -93q-136 0 -227 91.5t-91 227.5zM696 319q0 -78 52.5 -131t130.5 -53q77 0 130.5 53.5t53.5 130.5t-54 131t-130 54q-78 0 -130.5 -53 t-52.5 -132z" unicode="%"/>
<glyph glyph-name="ampersand" d="M416 803q-92 -73 -137.5 -154.5t-45.5 -173.5q0 -151 100 -250.5t255 -99.5q42 0 88 12t90 35q27 15 44.5 26.5t33.5 24.5zM547 907l416 -559q39 49 58 124t19 179q0 32 -3 102l-1 7h164v-39q0 -161 -37 -282.5t-112 -209.5l170 -229h-213l-78 109q-83 -70 -176 -104 t-199 -34q-216 0 -357 134.5t-141 338.5q0 137 69 254t208 217q-50 72 -74 141t-24 140q0 150 99.5 237t272.5 87q65 0 130.5 -12t135.5 -35v-183q-59 39 -121.5 57.5t-131.5 18.5q-97 0 -153 -45.5t-56 -122.5q0 -59 29 -123.5t106 -167.5z" unicode="&amp;"/>
<glyph glyph-name="quotesingle" d="M702 1493v-555h-174v555h174z" unicode="&apos;"/>
<glyph glyph-name="parenleft" d="M885 1554q-133 -228 -198.5 -454.5t-65.5 -456.5q0 -229 65.5 -456t198.5 -457h-160q-151 238 -225 463.5t-74 449.5q0 223 74 449t225 462h160z" unicode="("/>
<glyph glyph-name="parenright" d="M348 1554h160q151 -236 225 -462t74 -449q0 -225 -74 -451t-225 -462h-160q133 232 198.5 459t65.5 454q0 228 -65.5 455t-198.5 456z" unicode=")"/>
<glyph glyph-name="asterisk" d="M1067 1247l-358 -194l358 -195l-57 -98l-336 203v-377h-115v377l-336 -203l-57 98l358 195l-358 194l57 99l336 -203v377h115v-377l336 203z" unicode="*"/>
<glyph glyph-name="plus" d="M700 1171v-444h445v-170h-445v-444h-168v444h-444v170h444v444h168z" unicode="+"/>
<glyph glyph-name="comma" d="M502 303h252v-207l-197 -383h-154l99 383v207z" unicode=","/>
<glyph glyph-name="hyphen" d="M356 643h521v-164h-521v164z" unicode="-"/>
<glyph glyph-name="period" d="M489 305h252v-305h-252v305z" unicode="."/>
<glyph glyph-name="slash" d="M889 1493h190l-786 -1683h-191z" unicode="/"/>
<glyph glyph-name="zero" d="M616 1520q239 0 361.5 -196t122.5 -579q0 -382 -122.5 -578t-361.5 -196t-361 196t-122 578q0 383 122 579t361 196zM616 1360q-141 0 -210.5 -152t-69.5 -463q0 -310 69.5 -462t210.5 -152q142 0 211.5 152t69.5 462q0 311 -69.5 463t-211.5 152zM483 750q0 55 38.5 95 t92.5 40q56 0 96 -40t40 -95q0 -56 -39.5 -95t-96.5 -39q-56 0 -93.5 38t-37.5 96z" unicode="0"/>
<glyph glyph-name="one" d="M270 170h314v1141l-338 -76v184l336 74h202v-1323h310v-170h-824v170z" unicode="1"/>
<glyph glyph-name="two" d="M373 170h686v-170h-907v170q187 197 327 348t193 213q100 122 135 197.5t35 154.5q0 125 -73.5 196t-201.5 71q-91 0 -191 -33t-212 -100v204q103 49 202.5 74t196.5 25q219 0 352.5 -116.5t133.5 -305.5q0 -96 -44.5 -192t-144.5 -212q-56 -65 -162.5 -180t-324.5 -344z " unicode="2"/>
<glyph glyph-name="three" d="M776 799q147 -39 225 -138.5t78 -248.5q0 -206 -138.5 -323.5t-383.5 -117.5q-103 0 -210 19t-210 55v201q102 -53 201 -79t197 -26q166 0 255 75t89 216q0 130 -89 206.5t-241 76.5h-154v166h154q139 0 217 61t78 170q0 115 -72.5 176.5t-206.5 61.5q-89 0 -184 -20 t-199 -60v186q121 32 215.5 48t167.5 16q218 0 348.5 -109.5t130.5 -290.5q0 -123 -68.5 -205t-199.5 -116z" unicode="3"/>
<glyph glyph-name="four" d="M702 1493h234v-973h199v-164h-199v-356h-201v356h-633v191zM735 1309l-471 -789h471v789z" unicode="4"/>
<glyph glyph-name="five" d="M207 1493h756v-170h-572v-367q43 16 86.5 23.5t87.5 7.5q232 0 368 -137t136 -371q0 -236 -142.5 -372t-389.5 -136q-119 0 -217.5 16t-176.5 48v205q92 -50 185 -74.5t190 -24.5q167 0 257.5 88t90.5 250q0 160 -93.5 249t-260.5 89q-81 0 -158 -18.5t-147 -55.5v750z " unicode="5"/>
<glyph glyph-name="six" d="M631 829q-129 0 -203 -93t-74 -257t74 -257t203 -93q134 0 202 88.5t68 261.5q0 174 -68 262t-202 88zM991 1460v-186q-63 37 -134 56.5t-148 19.5q-192 0 -291 -144.5t-99 -425.5q48 100 133 153.5t195 53.5q216 0 334.5 -132.5t118.5 -375.5q0 -242 -122 -375 t-343 -133q-260 0 -381 186.5t-121 587.5q0 378 145.5 576.5t421.5 198.5q74 0 148 -15.5t143 -44.5z" unicode="6"/>
<glyph glyph-name="seven" d="M139 1493h940v-86l-534 -1407h-211l520 1323h-715v170z" unicode="7"/>
<glyph glyph-name="eight" d="M367 1114q0 -120 64 -183t185 -63q122 0 186 63t64 183q0 122 -63.5 186t-186.5 64q-121 0 -185 -64.5t-64 -185.5zM440 793q-129 33 -201.5 123t-72.5 217q0 178 121 282.5t329 104.5q209 0 330 -104.5t121 -282.5q0 -127 -72.5 -217t-201.5 -123q150 -33 229.5 -133 t79.5 -259q0 -202 -129 -316t-357 -114t-356.5 113.5t-128.5 314.5q0 160 79.5 260.5t229.5 133.5zM616 709q-135 0 -208.5 -75.5t-73.5 -213.5t74.5 -214.5t207.5 -76.5q136 0 209.5 75.5t73.5 215.5q0 137 -74.5 213t-208.5 76z" unicode="8"/>
<glyph glyph-name="nine" d="M236 31v186q63 -37 134 -56.5t148 -19.5q192 0 290.5 144.5t98.5 425.5q-47 -100 -132 -153.5t-195 -53.5q-216 0 -334.5 133t-118.5 377q0 241 121.5 373.5t343.5 132.5q260 0 381 -187t121 -588q0 -377 -145.5 -575.5t-422.5 -198.5q-73 0 -147 15.5t-143 44.5z M596 662q129 0 202.5 93t73.5 257t-73.5 257t-202.5 93q-134 0 -202 -88.5t-68 -261.5q0 -174 67.5 -262t202.5 -88z" unicode="9"/>
<glyph glyph-name="colon" d="M489 305h252v-305h-252v305zM489 1063h252v-303h-252v303z" unicode=":"/>
<glyph glyph-name="semicolon" d="M489 1063h252v-303h-252v303zM502 303h252v-207l-197 -383h-154l99 383v207z" unicode=";"/>
<glyph glyph-name="less" d="M1145 961l-850 -320l850 -317v-183l-1057 418v166l1057 418v-182z" unicode="&lt;"/>
<glyph glyph-name="equal" d="M88 930h1057v-170h-1057v170zM88 524h1057v-172h-1057v172z" unicode="="/>
<glyph glyph-name="greater" d="M88 961v182l1057 -418v-166l-1057 -418v183l850 317z" unicode="&gt;"/>
<glyph glyph-name="question" d="M487 254h203v-254h-203v254zM684 401h-190v154q0 98 30.5 166.5t114.5 150.5l90 89q62 59 85.5 103t23.5 93q0 89 -65.5 144t-174.5 55q-78 0 -167 -34.5t-187 -102.5v188q94 57 189.5 85t199.5 28q186 0 296.5 -96t110.5 -257q0 -76 -33.5 -141.5t-127.5 -157.5l-88 -86 q-69 -66 -88 -108t-19 -103v-47v-123z" unicode="?"/>
<glyph glyph-name="at" d="M1178 135h-144v111q-37 -63 -102.5 -97t-147.5 -34q-161 0 -266.5 121t-105.5 309t105.5 309t266.5 121q80 0 147 -35t103 -96v63q0 156 -88 251t-233 95q-246 0 -391.5 -191.5t-145.5 -518.5q0 -329 165 -524t439 -195q54 0 108 10t111 31l48 -135q-63 -25 -124.5 -37 t-119.5 -12q-357 0 -566.5 233t-209.5 629q0 390 188 621t504 231q209 0 334 -133t125 -357v-770zM1038 545q0 129 -64 206.5t-171 77.5t-171.5 -77.5t-64.5 -206.5q0 -130 64.5 -207.5t171.5 -77.5t171 77.5t64 207.5z" unicode="@"/>
<glyph glyph-name="A" d="M494 1493h245l457 -1493h-209l-110 389h-523l-108 -389h-209zM616 1315l-213 -764h426z" unicode="A"/>
<glyph glyph-name="B" d="M166 1493h442q229 0 353 -99t124 -280q0 -137 -65.5 -216t-196.5 -99q147 -22 230.5 -125.5t83.5 -263.5q0 -203 -133 -306.5t-396 -103.5h-442v1493zM369 1327v-450h235q146 0 211.5 56t65.5 181q0 113 -64.5 163t-212.5 50h-235zM369 713v-547h239q176 0 251 61.5 t75 202.5q0 146 -79 214.5t-247 68.5h-239z" unicode="B"/>
<glyph glyph-name="C" d="M1073 53q-77 -41 -158 -61.5t-172 -20.5q-287 0 -445.5 203t-158.5 571q0 366 159.5 570.5t444.5 204.5q91 0 172 -20.5t158 -61.5v-207q-74 61 -159 93t-171 32q-197 0 -295 -152t-98 -459q0 -306 98 -458t295 -152q88 0 172.5 32t157.5 93v-207z" unicode="C"/>
<glyph glyph-name="D" d="M440 1493q342 0 504 -182t162 -566q0 -382 -162 -563.5t-504 -181.5h-303v1493h303zM436 166q255 0 356 125.5t101 453.5q0 331 -100.5 456.5t-356.5 125.5h-96v-1161h96z" unicode="D"/>
<glyph glyph-name="E" d="M197 1493h886v-170h-684v-442h654v-170h-654v-541h703v-170h-905v1493z" unicode="E"/>
<glyph glyph-name="F" d="M233 1493h879v-170h-676v-440h613v-170h-613v-713h-203v1493z" unicode="F"/>
<glyph glyph-name="G" d="M1104 123q-81 -75 -182.5 -113.5t-219.5 -38.5q-284 0 -442 203.5t-158 570.5q0 366 160 570.5t445 204.5q94 0 180 -26.5t166 -80.5v-207q-81 77 -166 113.5t-180 36.5q-197 0 -295.5 -152.5t-98.5 -458.5q0 -311 95.5 -460.5t293.5 -149.5q67 0 117.5 15.5t91.5 48.5 v401h-217v166h410v-643z" unicode="G"/>
<glyph glyph-name="H" d="M137 1493h203v-612h553v612h203v-1493h-203v711h-553v-711h-203v1493z" unicode="H"/>
<glyph glyph-name="I" d="M201 1493h829v-170h-313v-1153h313v-170h-829v170h313v1153h-313v170z" unicode="I"/>
<glyph glyph-name="J" d="M109 61v236q91 -81 188 -121.5t201 -40.5q143 0 199.5 74.5t56.5 277.5v836h-381v170h583v-1006q0 -282 -105.5 -399t-352.5 -117q-96 0 -191 22t-198 68z" unicode="J"/>
<glyph glyph-name="K" d="M137 1493h203v-664l631 664h237l-581 -610l598 -883h-244l-487 748l-154 -164v-584h-203v1493z" unicode="K"/>
<glyph glyph-name="L" d="M215 1493h203v-1323h721v-170h-924v1493z" unicode="L"/>
<glyph glyph-name="M" d="M86 1493h270l258 -760l260 760h271v-1493h-187v1319l-266 -787h-153l-267 787v-1319h-186v1493z" unicode="M"/>
<glyph glyph-name="N" d="M139 1493h256l504 -1229v1229h195v-1493h-256l-504 1229v-1229h-195v1493z" unicode="N"/>
<glyph glyph-name="O" d="M1116 745q0 -390 -123.5 -582t-376.5 -192t-376 191t-123 583q0 391 123.5 583t375.5 192q253 0 376.5 -192t123.5 -583zM905 745q0 329 -67.5 470t-221.5 141q-153 0 -220.5 -141t-67.5 -470q0 -328 67.5 -469t220.5 -141q154 0 221.5 140.5t67.5 469.5z" unicode="O"/>
<glyph glyph-name="P" d="M197 1493h436q250 0 379 -113.5t129 -332.5q0 -221 -128.5 -334t-379.5 -113h-234v-600h-202v1493zM399 1327v-561h234q140 0 218.5 74t78.5 207t-78 206.5t-219 73.5h-234z" unicode="P"/>
<glyph glyph-name="Q" d="M905 745q0 329 -67.5 470t-221.5 141q-153 0 -220.5 -141t-67.5 -470q0 -328 67.5 -469t220.5 -141q154 0 221.5 140.5t67.5 469.5zM655 -27q-7 0 -20 -1t-21 -1q-250 0 -373.5 192t-123.5 582q0 391 123.5 583t375.5 192q253 0 376.5 -192t123.5 -583 q0 -294 -68.5 -473.5t-207.5 -251.5l200 -190l-151 -100z" unicode="Q"/>
<glyph glyph-name="R" d="M346 1327v-530h221q145 0 216 65t71 199q0 129 -75.5 197.5t-219.5 68.5h-213zM760 705q78 -20 133 -75.5t137 -221.5l203 -408h-217l-178 377q-77 161 -138.5 207.5t-160.5 46.5h-193v-631h-203v1493h416q246 0 377 -111t131 -321q0 -148 -80.5 -241.5t-226.5 -114.5z " unicode="R"/>
<glyph glyph-name="S" d="M1012 1442v-205q-92 59 -184.5 89t-186.5 30q-143 0 -226 -66.5t-83 -179.5q0 -99 54.5 -151t203.5 -87l106 -24q210 -49 306 -154t96 -286q0 -213 -132 -325t-384 -112q-105 0 -211 22.5t-213 67.5v215q115 -73 217.5 -107t206.5 -34q153 0 238 68.5t85 191.5 q0 112 -58.5 171t-203.5 91l-108 25q-208 47 -302 142t-94 255q0 200 134.5 320.5t357.5 120.5q86 0 181 -19.5t200 -58.5z" unicode="S"/>
<glyph glyph-name="T" d="M47 1493h1139v-170h-467v-1323h-203v1323h-469v170z" unicode="T"/>
<glyph glyph-name="U" d="M147 573v920h203v-1012q0 -109 6 -155.5t21 -71.5q32 -59 92.5 -89t146.5 -30q87 0 147 30t93 89q15 25 21 71t6 154v1014h202v-920q0 -229 -28.5 -325.5t-98.5 -159.5q-66 -59 -151 -88t-191 -29q-105 0 -190 29t-152 88q-69 62 -98 160.5t-29 324.5z" unicode="U"/>
<glyph glyph-name="V" d="M616 170l351 1323h209l-437 -1493h-245l-437 1493h209z" unicode="V"/>
<glyph glyph-name="W" d="M0 1493h197l143 -1212l170 802h211l172 -804l143 1214h197l-223 -1493h-191l-203 887l-202 -887h-191z" unicode="W"/>
<glyph glyph-name="X" d="M86 1493h217l328 -563l334 563h217l-447 -702l479 -791h-217l-366 643l-395 -643h-218l500 791z" unicode="X"/>
<glyph glyph-name="Y" d="M37 1493h215l364 -659l363 659h217l-479 -823v-670h-203v670z" unicode="Y"/>
<glyph glyph-name="Z" d="M178 1493h969v-154l-780 -1169h802v-170h-1013v154l759 1169h-737v170z" unicode="Z"/>
<glyph glyph-name="bracketleft" d="M463 1556h424v-143h-240v-1540h240v-143h-424v1826z" unicode="["/>
<glyph glyph-name="backslash" d="M293 1493l786 -1683h-190l-787 1683h191z" unicode="\"/>
<glyph glyph-name="bracketright" d="M770 1556v-1826h-424v143h240v1540h-240v143h424z" unicode="]"/>
<glyph glyph-name="asciicircum" d="M705 1493l456 -557h-178l-367 395l-366 -395h-178l456 557h177z" unicode="^"/>
<glyph glyph-name="underscore" d="M1233 -403v-80h-1233v80h1233z" unicode="_"/>
<glyph glyph-name="grave" d="M477 1638l281 -376h-154l-325 376h198z" unicode="`"/>
<glyph glyph-name="a" d="M1059 639v-639h-185v166q-59 -100 -148.5 -147.5t-217.5 -47.5q-171 0 -273 96.5t-102 258.5q0 187 125.5 284t368.5 97h247v29q-1 134 -68 194.5t-214 60.5q-94 0 -190 -27t-187 -79v184q102 39 195.5 58.5t181.5 19.5q139 0 237.5 -41t159.5 -123q38 -50 54 -123.5 t16 -220.5zM702 563h-61q-161 0 -242.5 -56.5t-81.5 -168.5q0 -101 61 -157t169 -56q152 0 239 105.5t88 291.5v41h-172z" unicode="a"/>
<glyph glyph-name="b" d="M377 977q44 82 121.5 126t179.5 44q202 0 318 -155.5t116 -428.5q0 -277 -116.5 -434.5t-319.5 -157.5q-100 0 -176.5 43.5t-122.5 126.5v-141h-184v1556h184v-579zM918 559q0 214 -68 323t-201 109q-134 0 -203 -109.5t-69 -322.5q0 -212 69 -322t203 -110 q133 0 201 109t68 323z" unicode="b"/>
<glyph glyph-name="c" d="M1061 57q-74 -43 -152.5 -64.5t-160.5 -21.5q-260 0 -406.5 156t-146.5 432t146.5 432t406.5 156q81 0 158 -21t155 -65v-193q-73 65 -146.5 94t-166.5 29q-173 0 -266 -112t-93 -320q0 -207 93.5 -319.5t265.5 -112.5q96 0 172 29.5t141 91.5v-191z" unicode="c"/>
<glyph glyph-name="d" d="M317 559q0 -214 68 -323t201 -109t202.5 110t69.5 322q0 213 -69.5 322.5t-202.5 109.5t-201 -109t-68 -323zM858 977v579h184v-1556h-184v141q-46 -83 -122.5 -126.5t-176.5 -43.5q-203 0 -319.5 157.5t-116.5 434.5q0 273 117 428.5t319 155.5q101 0 178 -43.5 t121 -126.5z" unicode="d"/>
<glyph glyph-name="e" d="M928 660q-4 162 -76.5 246.5t-208.5 84.5q-133 0 -219 -88t-102 -244zM1112 606v-90h-797v-6q0 -183 95.5 -283t269.5 -100q88 0 184 28t205 85v-183q-105 -43 -202.5 -64.5t-188.5 -21.5q-261 0 -408 156.5t-147 431.5q0 268 144 428t384 160q214 0 337.5 -145 t123.5 -396z" unicode="e"/>
<glyph glyph-name="f" d="M1063 1556v-153h-209q-99 0 -137.5 -40.5t-38.5 -143.5v-99h385v-143h-385v-977h-184v977h-299v143h299v78q0 184 84.5 271t263.5 87h221z" unicode="f"/>
<glyph glyph-name="g" d="M1042 72q0 -252 -119 -382t-350 -130q-76 0 -159 14t-166 41v182q98 -46 178 -68t147 -22q149 0 217 81t68 257v8v125q-44 -94 -120 -140t-185 -46q-196 0 -313 157t-117 420q0 264 117 421t313 157q108 0 183 -43t122 -133v145h184v-1044zM858 569q0 207 -67.5 314.5 t-196.5 107.5q-135 0 -206 -107.5t-71 -314.5t71.5 -315.5t207.5 -108.5q127 0 194.5 109t67.5 315z" unicode="g"/>
<glyph glyph-name="h" d="M1051 694v-694h-185v694q0 151 -53 222t-166 71q-129 0 -198.5 -91.5t-69.5 -262.5v-633h-184v1556h184v-604q49 96 133 145.5t199 49.5q171 0 255.5 -112.5t84.5 -340.5z" unicode="h"/>
<glyph glyph-name="i" d="M543 1556h184v-233h-184v233zM256 1120h471v-977h365v-143h-914v143h365v834h-287v143z" unicode="i"/>
<glyph glyph-name="j" d="M600 1556h184v-233h-184v233zM600 -20v997h-317v143h501v-1140q0 -195 -89.5 -300.5t-254.5 -105.5h-254v156h234q90 0 135 62.5t45 187.5z" unicode="j"/>
<glyph glyph-name="k" d="M236 1556h190v-901l483 465h224l-441 -422l510 -698h-225l-414 578l-137 -129v-449h-190v1556z" unicode="k"/>
<glyph glyph-name="l" d="M639 406q0 -124 45.5 -187t134.5 -63h215v-156h-233q-165 0 -255.5 106t-90.5 300v1017h-295v144h479v-1161z" unicode="l"/>
<glyph glyph-name="m" d="M676 1006q34 72 86.5 106.5t126.5 34.5q135 0 190.5 -104.5t55.5 -393.5v-649h-168v641q0 237 -26.5 294.5t-96.5 57.5q-80 0 -109.5 -61.5t-29.5 -290.5v-641h-168v641q0 240 -28.5 296t-102.5 56q-73 0 -101.5 -61.5t-28.5 -290.5v-641h-167v1120h167v-96 q33 60 82.5 91.5t112.5 31.5q76 0 126.5 -35t78.5 -106z" unicode="m"/>
<glyph glyph-name="n" d="M1051 694v-694h-185v694q0 151 -53 222t-166 71q-129 0 -198.5 -91.5t-69.5 -262.5v-633h-184v1120h184v-168q49 96 133 145.5t199 49.5q171 0 255.5 -112.5t84.5 -340.5z" unicode="n"/>
<glyph glyph-name="o" d="M616 1147q233 0 356.5 -151t123.5 -437q0 -287 -123 -437.5t-357 -150.5q-233 0 -356 150.5t-123 437.5q0 286 123 437t356 151zM616 991q-140 0 -212 -109t-72 -323q0 -213 72 -322.5t212 -109.5q141 0 213 109.5t72 322.5q0 214 -72 323t-213 109z" unicode="o"/>
<glyph glyph-name="p" d="M915 559q0 214 -67.5 323t-200.5 109q-134 0 -203 -109.5t-69 -322.5q0 -212 69 -322t203 -110q133 0 200.5 109t67.5 323zM375 141v-567h-185v1546h185v-143q46 83 122.5 126.5t176.5 43.5q203 0 318.5 -157t115.5 -435q0 -273 -116 -428.5t-318 -155.5 q-102 0 -178.5 43.5t-120.5 126.5z" unicode="p"/>
<glyph glyph-name="q" d="M870 139q-45 -83 -121.5 -127.5t-177.5 -44.5q-201 0 -317.5 155.5t-116.5 428.5q0 278 116 435t318 157q100 0 176.5 -43.5t122.5 -126.5v143h185v-1546h-185v569zM332 555q0 -214 67.5 -323t200.5 -109t201.5 109.5t68.5 322.5t-68.5 322.5t-201.5 109.5t-200.5 -109 t-67.5 -323z" unicode="q"/>
<glyph glyph-name="r" d="M1155 889q-59 46 -120 67t-134 21q-172 0 -263 -108t-91 -312v-557h-185v1120h185v-219q46 119 141.5 182.5t226.5 63.5q68 0 127 -17t113 -53v-188z" unicode="r"/>
<glyph glyph-name="s" d="M973 1081v-180q-79 46 -159 69t-163 23q-125 0 -186.5 -40.5t-61.5 -123.5q0 -75 46 -112t229 -72l74 -14q137 -26 207.5 -104t70.5 -203q0 -166 -118 -259.5t-328 -93.5q-83 0 -174 17.5t-197 52.5v190q103 -53 197 -79.5t178 -26.5q122 0 189 49.5t67 138.5 q0 128 -245 177l-8 2l-69 14q-159 31 -232 104.5t-73 200.5q0 161 109 248.5t311 87.5q90 0 173 -16.5t163 -49.5z" unicode="s"/>
<glyph glyph-name="t" d="M614 1438v-318h418v-143h-418v-608q0 -124 47 -173t164 -49h207v-147h-225q-207 0 -292 83t-85 286v608h-299v143h299v318h184z" unicode="t"/>
<glyph glyph-name="u" d="M195 424v694h184v-694q0 -151 53.5 -222t165.5 -71q130 0 199 91.5t69 262.5v633h185v-1118h-185v168q-49 -97 -133.5 -147t-197.5 -50q-172 0 -256 112.5t-84 340.5z" unicode="u"/>
<glyph glyph-name="v" d="M100 1120h191l325 -940l326 940h191l-398 -1120h-237z" unicode="v"/>
<glyph glyph-name="w" d="M0 1120h182l195 -905l160 578h157l162 -578l195 905h182l-262 -1120h-176l-179 614l-178 -614h-176z" unicode="w"/>
<glyph glyph-name="x" d="M1118 1120l-401 -536l440 -584h-213l-328 449l-327 -449h-213l440 584l-401 536h204l297 -405l295 405h207z" unicode="x"/>
<glyph glyph-name="y" d="M858 360q-46 -117 -117 -308q-99 -264 -133 -322q-46 -78 -115 -117t-161 -39h-148v154h109q81 0 127 47t117 243l-433 1102h195l332 -876l327 876h195z" unicode="y"/>
<glyph glyph-name="z" d="M227 1122h813v-168l-643 -804h643v-150h-837v170l643 805h-619v147z" unicode="z"/>
<glyph glyph-name="braceleft" d="M1012 -190v-144h-64q-249 0 -333.5 74t-84.5 295v239q0 151 -53.5 209t-193.5 58h-62v143h62q141 0 194 57t53 207v240q0 221 84.5 294.5t333.5 73.5h64v-143h-70q-140 0 -182.5 -43.5t-42.5 -185.5v-248q0 -157 -45.5 -228t-155.5 -96q111 -27 156 -98t45 -227v-248 q0 -143 42.5 -186t182.5 -43h70z" unicode="{"/>
<glyph glyph-name="bar" d="M702 1565v-2048h-172v2048h172z" unicode="|"/>
<glyph glyph-name="braceright" d="M221 -190h68q141 0 184 44t43 185v248q0 156 45 227t156 98q-110 25 -155.5 96t-45.5 228v248q0 141 -43 185t-184 44h-68v143h62q249 0 333 -73.5t84 -294.5v-240q0 -150 53.5 -207t194.5 -57h64v-143h-64q-141 0 -194.5 -58t-53.5 -209v-239q0 -221 -84 -295t-333 -74 h-62v144z" unicode="}"/>
<glyph glyph-name="asciitilde" d="M1145 780v-174q-75 -59 -146.5 -86.5t-150.5 -27.5q-90 0 -203 51q-22 10 -33 14q-77 33 -128.5 45t-102.5 12q-79 0 -149.5 -29.5t-143.5 -92.5v174q78 60 151 87t156 27q53 0 103 -11t124 -42q12 -5 33 -15q116 -55 209 -55q70 0 138.5 30.5t142.5 92.5z" unicode="~"/>
<glyph glyph-name="nonbreakingspace" unicode=" "/>
<glyph glyph-name="exclamdown" d="M516 0v655l21 357h161l21 -357v-655h-203zM516 1239v254h203v-254h-203z" unicode="¡"/>
<glyph glyph-name="cent" d="M698 127v864q-132 -12 -212 -130t-80 -302t80 -301.5t212 -130.5zM1061 1077v-172q-67 40 -132 62t-128 26v-870q63 5 128.5 27.5t131.5 62.5v-172q-73 -31 -138 -48t-122 -20v-286h-103v286q-225 22 -355 178.5t-130 407.5q0 250 131.5 408.5t353.5 177.5v287h103v-287 q57 -3 122 -20t138 -48z" unicode="¢"/>
<glyph glyph-name="sterling" d="M1092 1462v-184q-62 44 -125.5 66t-130.5 22q-134 0 -197.5 -89.5t-63.5 -281.5v-217h371v-143h-371v-465h537v-170h-973v170h236v465h-199v143h199v238q0 254 109.5 379t332.5 125q65 0 133.5 -14.5t141.5 -43.5z" unicode="£"/>
<glyph glyph-name="currency" d="M844 924l166 166l90 -93l-166 -166q30 -49 44.5 -95.5t14.5 -94.5q0 -50 -15 -95.5t-46 -90.5l168 -166l-94 -94l-166 167q-46 -31 -91.5 -46t-95.5 -15q-48 0 -96 14.5t-96 42.5l-164 -163l-92 90l166 166q-31 51 -45.5 97.5t-14.5 92.5q0 50 15.5 96.5t46.5 91.5 l-168 166l94 95l166 -168q46 31 91.5 46t96.5 15q46 0 93 -14.5t98 -44.5zM868 643q0 90 -62 151.5t-153 61.5q-90 0 -152.5 -61.5t-62.5 -151.5q0 -92 62.5 -154.5t152.5 -62.5q91 0 153 63t62 154z" unicode="¤"/>
<glyph glyph-name="yen" d="M37 1493h215l364 -659l363 659h217l-330 -561h252v-111h-315l-86 -151v-35h401v-111h-401v-524h-203v524h-399v111h399v35l-90 151h-309v111h243z" unicode="¥"/>
<glyph glyph-name="brokenbar" d="M702 408v-758h-172v758h172zM702 1432v-758h-172v758h172z" unicode="¦"/>
<glyph glyph-name="section" d="M485 936q-62 -45 -92.5 -90t-30.5 -92q0 -76 70.5 -143.5t317.5 -200.5q62 45 92 90t30 92q0 76 -71.5 144t-315.5 200zM936 1462v-164q-83 39 -154.5 58.5t-128.5 19.5q-97 0 -150.5 -40t-53.5 -111q0 -90 205 -205q26 -15 40 -23q212 -119 277 -196t65 -178 q0 -90 -45.5 -160t-138.5 -123q61 -52 90 -106.5t29 -118.5q0 -142 -102 -226t-275 -84q-73 0 -150.5 14.5t-164.5 43.5v164q87 -39 161 -58.5t131 -19.5q102 0 158.5 42t56.5 118q0 102 -221 225l-24 14q-214 120 -278 196.5t-64 178.5q0 91 46.5 162.5t137.5 120.5 q-60 44 -89.5 100t-29.5 125q0 130 100 209.5t267 79.5q72 0 148.5 -14.5t156.5 -43.5z" unicode="§"/>
<glyph glyph-name="dieresis" d="M711 1552h202v-202h-202v202zM319 1552h203v-202h-203v202z" unicode="¨"/>
<glyph glyph-name="copyright" d="M616 1358q127 0 236 -45t199 -135q90 -91 136 -201t46 -236q0 -125 -45.5 -234t-136.5 -200t-200 -136.5t-235 -45.5q-125 0 -234 45.5t-200 136.5t-136.5 200t-45.5 234q0 126 46 236t136 201q90 90 199 135t235 45zM616 1255q-106 0 -196.5 -37t-165.5 -112 t-113.5 -167t-38.5 -198q0 -104 38.5 -195.5t113.5 -166.5q76 -76 166.5 -114t195.5 -38q106 0 196.5 38t166.5 114t113.5 166.5t37.5 195.5q0 106 -38 198t-113 167t-165.5 112t-197.5 37zM864 1071v-108q-58 28 -113.5 41.5t-113.5 13.5q-117 0 -184.5 -74.5t-67.5 -202.5 q0 -132 70 -203t200 -71q56 0 107.5 12.5t101.5 38.5v-104q-52 -23 -109 -34t-118 -11q-180 0 -283.5 100t-103.5 272q0 173 104 274t283 101q61 0 118 -11t109 -34z" unicode="©"/>
<glyph glyph-name="ordfeminine" d="M293 592h668v-123h-668v123zM954 1165v-448h-143v112q-49 -65 -114.5 -98t-147.5 -33q-129 0 -204 68t-75 184q0 129 93.5 199t265.5 70h182v4q0 90 -59.5 136t-176.5 46q-51 0 -113.5 -17.5t-129.5 -50.5v127q68 28 135.5 42t130.5 14q184 0 270 -86t86 -269zM684 1104 q-144 0 -206 -34t-62 -112q0 -64 43.5 -102.5t115.5 -38.5q105 0 170.5 71.5t65.5 186.5v29h-127z" unicode="ª"/>
<glyph glyph-name="guillemotleft" d="M1042 1059v-191l-301 -268l301 -268v-191l-469 418v82zM588 1059v-191l-301 -268l301 -268v-191l-469 418v82z" unicode="«"/>
<glyph glyph-name="logicalnot" d="M88 862h1057v-491h-168v319h-889v172z" unicode="¬"/>
<glyph glyph-name="sfthyphen" d="M356 643h521v-164h-521v164z" unicode="­"/>
<glyph glyph-name="registered" d="M616 1255q-106 0 -196.5 -37t-165.5 -112t-113.5 -167t-38.5 -198q0 -104 38.5 -195.5t113.5 -166.5q76 -76 166.5 -114t195.5 -38q106 0 196.5 38t166.5 114t113.5 166.5t37.5 195.5q0 106 -38 198t-113 167t-165.5 112t-197.5 37zM616 1358q127 0 236 -45t199 -135 q90 -91 136 -201t46 -236q0 -125 -45.5 -234t-136.5 -200t-200 -136.5t-235 -45.5q-125 0 -234 45.5t-200 136.5t-136.5 200t-45.5 234q0 126 46 236t136 201q90 90 199 135t235 45zM594 1016h-102v-232h102q90 0 127 27t37 90q0 62 -37 88.5t-127 26.5zM600 1100 q147 0 219 -49t72 -150q0 -71 -44 -117.5t-124 -60.5q19 -5 48 -38.5t67 -92.5l114 -186h-143l-107 174q-49 80 -79.5 101t-75.5 21h-55v-296h-130v694h238z" unicode="®"/>
<glyph glyph-name="macron" d="M317 1526h598v-148h-598v148z" unicode="¯"/>
<glyph glyph-name="degree" d="M616 1391q-79 0 -134.5 -55.5t-55.5 -135.5t54.5 -134t133.5 -54q80 0 136.5 55t56.5 133q0 79 -56 135t-135 56zM616 1520q65 0 123.5 -24.5t102.5 -70.5q45 -45 68.5 -102t23.5 -123q0 -132 -93 -223.5t-227 -91.5q-135 0 -225 90t-90 225q0 134 92 227t225 93z" unicode="°"/>
<glyph glyph-name="plusminus" d="M700 1171v-329h445v-170h-445v-332h-168v332h-444v170h444v329h168zM88 170h1057v-170h-1057v170z" unicode="±"/>
<glyph glyph-name="twosuperior" d="M483 782h410v-114h-571v110l231 226q101 97 141.5 158t40.5 112q0 61 -50 99t-132 38q-49 0 -105.5 -18t-119.5 -54v125q65 28 125.5 42t119.5 14q142 0 228 -66.5t86 -173.5q0 -57 -37 -116.5t-156 -176.5z" unicode="²"/>
<glyph glyph-name="threesuperior" d="M731 1120q94 -21 143.5 -75t49.5 -134q0 -124 -95 -191t-272 -67q-58 0 -115 10.5t-116 30.5v121q69 -27 125.5 -40t101.5 -13q101 0 160 40.5t59 108.5q0 74 -55 112t-164 38h-66v108h74q93 0 142 31.5t49 91.5q0 56 -48 87.5t-135 31.5q-44 0 -100 -12t-115 -35v121 q69 17 127.5 26t108.5 9q145 0 229 -59t84 -158q0 -71 -44 -117.5t-128 -65.5z" unicode="³"/>
<glyph glyph-name="acute" d="M756 1638h198l-325 -376h-154z" unicode="´"/>
<glyph glyph-name="mu" d="M195 -428v1548h184v-696q0 -142 60 -217.5t171 -75.5q127 0 191.5 85t64.5 251v653h185v-864q0 -59 16 -87t49 -28q9 0 23.5 5t42.5 18v-148q-38 -23 -72 -34t-68 -11q-62 0 -99.5 39.5t-49.5 118.5q-46 -80 -112.5 -119t-155.5 -39q-92 0 -155.5 38t-107.5 118v-555 h-167z" unicode="µ"/>
<glyph glyph-name="paragraph" d="M582 1493h448v-1690h-141v1567h-191v-1567h-141v846q-215 17 -333 127.5t-118 294.5q0 190 130.5 306t345.5 116z" unicode="¶"/>
<glyph glyph-name="periodcentered" d="M489 864h252v-305h-252v305z" unicode="·"/>
<glyph glyph-name="cedilla" d="M700 0q56 -62 82.5 -114.5t26.5 -100.5q0 -89 -60 -134.5t-178 -45.5q-45 0 -88.5 6t-87.5 18v131q34 -17 71.5 -24.5t84.5 -7.5q58 0 88.5 24t30.5 70q0 30 -22 73.5t-66 104.5h118z" unicode="¸"/>
<glyph glyph-name="onesuperior" d="M362 778h205v611l-223 -41v116l229 39h138v-725h204v-110h-553v110z" unicode="¹"/>
<glyph glyph-name="ordmasculine" d="M276 592h676v-123h-676v123zM616 1520q170 0 271.5 -112t101.5 -300q0 -187 -101 -298.5t-272 -111.5q-170 0 -271 111.5t-101 298.5q0 188 101.5 300t270.5 112zM616 1403q-102 0 -159.5 -78t-57.5 -217t57.5 -216t159.5 -77q101 0 159.5 78.5t58.5 214.5 q0 139 -57.5 217t-160.5 78z" unicode="º"/>
<glyph glyph-name="guillemotright" d="M193 1059l469 -418v-82l-469 -418v191l301 268l-301 268v191zM647 1059l469 -418v-82l-469 -418v191l301 268l-301 268v191z" unicode="»"/>
<glyph glyph-name="onequarter" d="M839 440l-274 -413h274v413zM815 565h162v-538h116v-111h-116v-186h-138v186h-387v121zM104 934h205v611l-223 -41v116l229 39h138v-725h204v-110h-553v110zM51 504l-24 108l1060 262l27 -108z" unicode="¼"/>
<glyph glyph-name="onehalf" d="M104 934h205v611l-223 -41v116l229 39h138v-725h204v-110h-553v110zM51 504l-24 108l1060 262l27 -108zM684 -156h410v-114h-571v110l231 226q101 97 141.5 158t40.5 112q0 61 -50 99t-132 38q-49 0 -105.5 -18t-119.5 -54v125q65 28 125.5 42t119.5 14q142 0 228 -66.5 t86 -173.5q0 -57 -37 -116.5t-156 -176.5z" unicode="½"/>
<glyph glyph-name="threequarters" d="M839 440l-274 -413h274v413zM815 565h162v-538h116v-111h-116v-186h-138v186h-387v121zM504 1276q94 -21 143.5 -75t49.5 -134q0 -124 -95 -191t-272 -67q-58 0 -115 10.5t-116 30.5v121q69 -27 125.5 -40t101.5 -13q101 0 160 40.5t59 108.5q0 74 -55 112t-164 38h-66 v108h74q93 0 142 31.5t49 91.5q0 56 -48 87.5t-135 31.5q-44 0 -100 -12t-115 -35v121q69 17 127.5 26t108.5 9q145 0 229 -59t84 -158q0 -71 -44 -117.5t-128 -65.5zM51 504l-24 108l1060 262l27 -108z" unicode="¾"/>
<glyph glyph-name="questiondown" d="M745 1239h-202v254h202v-254zM549 1092h190v-154q0 -98 -30.5 -166.5t-114.5 -150.5l-90 -89q-62 -59 -85.5 -103t-23.5 -93q0 -89 65.5 -144t174.5 -55q78 0 167 34.5t187 102.5v-188q-94 -57 -189.5 -85t-199.5 -28q-186 0 -296.5 96t-110.5 257q0 76 33.5 141.5 t127.5 157.5l88 86q67 64 86 106t19 105v5q2 23 2 42v123z" unicode="¿"/>
<glyph glyph-name="Agrave" d="M494 1493h245l457 -1493h-209l-110 389h-523l-108 -389h-209zM616 1315l-213 -764h426zM561 1899l197 -264h-154l-227 264h184z" unicode="À"/>
<glyph glyph-name="Aacute" d="M494 1493h245l457 -1493h-209l-110 389h-523l-108 -389h-209zM616 1315l-213 -764h426zM672 1899h186l-229 -264h-154z" unicode="Á"/>
<glyph glyph-name="Acircumflex" d="M494 1493h245l457 -1493h-209l-110 389h-523l-108 -389h-209zM616 1315l-213 -764h426zM522 1901h189l211 -266h-140l-166 178l-165 -178h-140z" unicode="Â"/>
<glyph glyph-name="Atilde" d="M494 1493h245l457 -1493h-209l-110 389h-523l-108 -389h-209zM616 1315l-213 -764h426zM612 1710l-57 33q-25 14 -40.5 19.5t-27.5 5.5q-35 0 -55 -25t-20 -70v-6h-125q0 101 51.5 160t136.5 59q36 0 66.5 -8t79.5 -35l57 -30q22 -13 39.5 -19t32.5 -6q31 0 51 25.5 t20 66.5v6h125q-2 -100 -53 -159.5t-135 -59.5q-34 0 -64 8t-82 35z" unicode="Ã"/>
<glyph glyph-name="Adieresis" d="M494 1493h245l457 -1493h-209l-110 389h-523l-108 -389h-209zM616 1315l-213 -764h426zM711 1870h202v-203h-202v203zM319 1870h203v-203h-203v203z" unicode="Ä"/>
<glyph glyph-name="Aring" d="M465 1399q-58 33 -90.5 93.5t-32.5 133.5q0 114 80 194.5t194 80.5t194.5 -80.5t80.5 -194.5q0 -73 -32 -132t-91 -95l428 -1399h-209l-110 389h-523l-108 -389h-209zM616 1311l-213 -760h426zM768 1626q0 63 -44.5 107.5t-107.5 44.5q-64 0 -107.5 -43.5t-43.5 -108.5 q0 -63 44 -107t107 -44t107.5 44t44.5 107z" unicode="Å"/>
<glyph glyph-name="AE" d="M530 1323l-202 -772h309v772h-107zM1161 1493v-170h-338v-442h307v-170h-307v-541h357v-170h-543v383h-352l-101 -383h-184l410 1493h751z" unicode="Æ"/>
<glyph glyph-name="Ccedilla" d="M800 0q56 -62 82.5 -114.5t26.5 -100.5q0 -89 -60 -134.5t-178 -45.5q-45 0 -88.5 6t-87.5 18v131q34 -17 71.5 -24.5t84.5 -7.5q58 0 88.5 24t30.5 70q0 30 -22 73.5t-66 104.5h118zM1073 53q-77 -41 -158 -61.5t-172 -20.5q-287 0 -445.5 203t-158.5 571 q0 366 159.5 570.5t444.5 204.5q91 0 172 -20.5t158 -61.5v-207q-74 61 -159 93t-171 32q-197 0 -295 -152t-98 -459q0 -306 98 -458t295 -152q88 0 172.5 32t157.5 93v-207z" unicode="Ç"/>
<glyph glyph-name="Egrave" d="M197 1493h886v-170h-684v-442h654v-170h-654v-541h703v-170h-905v1493zM579 1899l197 -264h-154l-227 264h184z" unicode="È"/>
<glyph glyph-name="Eacute" d="M197 1493h886v-170h-684v-442h654v-170h-654v-541h703v-170h-905v1493zM690 1899h186l-229 -264h-154z" unicode="É"/>
<glyph glyph-name="Ecircumflex" d="M197 1493h886v-170h-684v-442h654v-170h-654v-541h703v-170h-905v1493zM540 1901h189l211 -266h-140l-166 178l-165 -178h-140z" unicode="Ê"/>
<glyph glyph-name="Edieresis" d="M197 1493h886v-170h-684v-442h654v-170h-654v-541h703v-170h-905v1493zM729 1870h202v-203h-202v203zM337 1870h203v-203h-203v203z" unicode="Ë"/>
<glyph glyph-name="Igrave" d="M201 1493h829v-170h-313v-1153h313v-170h-829v170h313v1153h-313v170zM561 1899l197 -264h-154l-227 264h184z" unicode="Ì"/>
<glyph glyph-name="Iacute" d="M201 1493h829v-170h-313v-1153h313v-170h-829v170h313v1153h-313v170zM672 1899h186l-229 -264h-154z" unicode="Í"/>
<glyph glyph-name="Icircumflex" d="M201 1493h829v-170h-313v-1153h313v-170h-829v170h313v1153h-313v170zM522 1901h189l211 -266h-140l-166 178l-165 -178h-140z" unicode="Î"/>
<glyph glyph-name="Idieresis" d="M201 1493h829v-170h-313v-1153h313v-170h-829v170h313v1153h-313v170zM711 1870h202v-203h-202v203zM319 1870h203v-203h-203v203z" unicode="Ï"/>
<glyph glyph-name="Eth" d="M436 166q255 0 356 125.5t101 453.5q0 331 -100.5 456.5t-356.5 125.5h-96v-469h264v-149h-264v-543h96zM436 1493q342 0 504 -182t162 -566q0 -382 -162.5 -563.5t-503.5 -181.5h-303v709h-125v149h125v635h303z" unicode="Ð"/>
<glyph glyph-name="Ntilde" d="M139 1493h256l504 -1229v1229h195v-1493h-256l-504 1229v-1229h-195v1493zM612 1714l-57 33q-25 14 -40.5 19.5t-27.5 5.5q-35 0 -55 -25t-20 -70v-6h-125q0 101 51.5 160t136.5 59q36 0 66.5 -8t79.5 -35l57 -30q22 -13 39.5 -19t32.5 -6q31 0 51 25.5t20 66.5v6h125 q-2 -100 -53 -159.5t-135 -59.5q-34 0 -64 8t-82 35z" unicode="Ñ"/>
<glyph glyph-name="Ograve" d="M1116 745q0 -390 -123.5 -582t-376.5 -192t-376 191t-123 583q0 391 123.5 583t375.5 192q253 0 376.5 -192t123.5 -583zM905 745q0 329 -67.5 470t-221.5 141q-153 0 -220.5 -141t-67.5 -470q0 -328 67.5 -469t220.5 -141q154 0 221.5 140.5t67.5 469.5zM561 1899 l197 -264h-154l-227 264h184z" unicode="Ò"/>
<glyph glyph-name="Oacute" d="M1116 745q0 -390 -123.5 -582t-376.5 -192t-376 191t-123 583q0 391 123.5 583t375.5 192q253 0 376.5 -192t123.5 -583zM905 745q0 329 -67.5 470t-221.5 141q-153 0 -220.5 -141t-67.5 -470q0 -328 67.5 -469t220.5 -141q154 0 221.5 140.5t67.5 469.5zM672 1899h186 l-229 -264h-154z" unicode="Ó"/>
<glyph glyph-name="Ocircumflex" d="M1116 745q0 -390 -123.5 -582t-376.5 -192t-376 191t-123 583q0 391 123.5 583t375.5 192q253 0 376.5 -192t123.5 -583zM905 745q0 329 -67.5 470t-221.5 141q-153 0 -220.5 -141t-67.5 -470q0 -328 67.5 -469t220.5 -141q154 0 221.5 140.5t67.5 469.5zM522 1901h189 l211 -266h-140l-166 178l-165 -178h-140z" unicode="Ô"/>
<glyph glyph-name="Otilde" d="M1116 745q0 -390 -123.5 -582t-376.5 -192t-376 191t-123 583q0 391 123.5 583t375.5 192q253 0 376.5 -192t123.5 -583zM905 745q0 329 -67.5 470t-221.5 141q-153 0 -220.5 -141t-67.5 -470q0 -328 67.5 -469t220.5 -141q154 0 221.5 140.5t67.5 469.5zM612 1710 l-57 33q-25 14 -40.5 19.5t-27.5 5.5q-35 0 -55 -25t-20 -70v-6h-125q0 101 51.5 160t136.5 59q36 0 66.5 -8t79.5 -35l57 -30q22 -13 39.5 -19t32.5 -6q31 0 51 25.5t20 66.5v6h125q-2 -100 -53 -159.5t-135 -59.5q-34 0 -64 8t-82 35z" unicode="Õ"/>
<glyph glyph-name="Odieresis" d="M1116 745q0 -390 -123.5 -582t-376.5 -192t-376 191t-123 583q0 391 123.5 583t375.5 192q253 0 376.5 -192t123.5 -583zM905 745q0 329 -67.5 470t-221.5 141q-153 0 -220.5 -141t-67.5 -470q0 -328 67.5 -469t220.5 -141q154 0 221.5 140.5t67.5 469.5zM711 1870h202 v-203h-202v203zM319 1870h203v-203h-203v203z" unicode="Ö"/>
<glyph glyph-name="multiply" d="M150 293l350 348l-350 350l116 117l350 -350l351 350l116 -117l-350 -350l348 -348l-116 -119l-349 350l-348 -350z" unicode="×"/>
<glyph glyph-name="Oslash" d="M1032 1247q41 -81 62.5 -210t21.5 -292q0 -390 -123.5 -582t-376.5 -192q-121 0 -211 40.5t-151 121.5l-143 -203l-103 70l178 252q-32 73 -50.5 204t-18.5 289q0 391 123.5 583t375.5 192q115 0 201.5 -41t143.5 -121l139 201l100 -74zM338 471l504 719 q-25 81 -82.5 123.5t-143.5 42.5q-157 0 -222.5 -146t-65.5 -524q0 -80 2.5 -130.5t7.5 -84.5zM371 303q30 -78 95.5 -123t149.5 -45q154 0 221.5 140.5t67.5 469.5q0 110 -5 178t-15 113z" unicode="Ø"/>
<glyph glyph-name="Ugrave" d="M147 573v920h203v-1012q0 -109 6 -155.5t21 -71.5q32 -59 92.5 -89t146.5 -30q87 0 147 30t93 89q15 25 21 71t6 154v1014h202v-920q0 -229 -28.5 -325.5t-98.5 -159.5q-66 -59 -151 -88t-191 -29q-105 0 -190 29t-152 88q-69 62 -98 160.5t-29 324.5zM561 1899l197 -264 h-154l-227 264h184z" unicode="Ù"/>
<glyph glyph-name="Uacute" d="M147 573v920h203v-1012q0 -109 6 -155.5t21 -71.5q32 -59 92.5 -89t146.5 -30q87 0 147 30t93 89q15 25 21 71t6 154v1014h202v-920q0 -229 -28.5 -325.5t-98.5 -159.5q-66 -59 -151 -88t-191 -29q-105 0 -190 29t-152 88q-69 62 -98 160.5t-29 324.5zM672 1899h186 l-229 -264h-154z" unicode="Ú"/>
<glyph glyph-name="Ucircumflex" d="M147 573v920h203v-1012q0 -109 6 -155.5t21 -71.5q32 -59 92.5 -89t146.5 -30q87 0 147 30t93 89q15 25 21 71t6 154v1014h202v-920q0 -229 -28.5 -325.5t-98.5 -159.5q-66 -59 -151 -88t-191 -29q-105 0 -190 29t-152 88q-69 62 -98 160.5t-29 324.5zM522 1901h189 l211 -266h-140l-166 178l-165 -178h-140z" unicode="Û"/>
<glyph glyph-name="Udieresis" d="M147 573v920h203v-1012q0 -109 6 -155.5t21 -71.5q32 -59 92.5 -89t146.5 -30q87 0 147 30t93 89q15 25 21 71t6 154v1014h202v-920q0 -229 -28.5 -325.5t-98.5 -159.5q-66 -59 -151 -88t-191 -29q-105 0 -190 29t-152 88q-69 62 -98 160.5t-29 324.5zM711 1870h202v-203 h-202v203zM319 1870h203v-203h-203v203z" unicode="Ü"/>
<glyph glyph-name="Yacute" d="M37 1493h215l364 -659l363 659h217l-479 -823v-670h-203v670zM672 1899h186l-229 -264h-154z" unicode="Ý"/>
<glyph glyph-name="Thorn" d="M201 1493h202v-270h254q260 0 384 -105t124 -323q0 -219 -124 -323.5t-384 -104.5h-254v-367h-202v1493zM403 1057v-525h234q158 0 236.5 66t78.5 197t-78.5 196.5t-236.5 65.5h-234z" unicode="Þ"/>
<glyph glyph-name="germandbls" d="M188 1137q0 213 105 316t321 103q204 0 309 -110.5t107 -326.5q-155 -14 -239 -76t-84 -162q0 -49 27.5 -87.5t94.5 -80.5l58 -37q151 -93 206.5 -175t55.5 -198q0 -154 -112 -243t-308 -89q-69 0 -136.5 12.5t-133.5 36.5v164q76 -31 142.5 -46t125.5 -15 q108 0 172 48.5t64 129.5q0 71 -32.5 118.5t-152.5 121.5l-67 39q-92 56 -137.5 122.5t-45.5 145.5q0 128 81 213.5t237 120.5q-2 107 -62.5 164t-173.5 57q-121 0 -178 -65.5t-57 -204.5v-1133h-187v1137z" unicode="ß"/>
<glyph glyph-name="agrave" d="M1059 639v-639h-185v166q-59 -100 -148.5 -147.5t-217.5 -47.5q-171 0 -273 96.5t-102 258.5q0 187 125.5 284t368.5 97h247v29q-1 134 -68 194.5t-214 60.5q-94 0 -190 -27t-187 -79v184q102 39 195.5 58.5t181.5 19.5q139 0 237.5 -41t159.5 -123q38 -50 54 -123.5 t16 -220.5zM702 563h-61q-161 0 -242.5 -56.5t-81.5 -168.5q0 -101 61 -157t169 -56q152 0 239 105.5t88 291.5v41h-172zM477 1638l281 -376h-154l-325 376h198z" unicode="à"/>
<glyph glyph-name="aacute" d="M1059 639v-639h-185v166q-59 -100 -148.5 -147.5t-217.5 -47.5q-171 0 -273 96.5t-102 258.5q0 187 125.5 284t368.5 97h247v29q-1 134 -68 194.5t-214 60.5q-94 0 -190 -27t-187 -79v184q102 39 195.5 58.5t181.5 19.5q139 0 237.5 -41t159.5 -123q38 -50 54 -123.5 t16 -220.5zM702 563h-61q-161 0 -242.5 -56.5t-81.5 -168.5q0 -101 61 -157t169 -56q152 0 239 105.5t88 291.5v41h-172zM756 1638h198l-325 -376h-154z" unicode="á"/>
<glyph glyph-name="acircumflex" d="M1059 639v-639h-185v166q-59 -100 -148.5 -147.5t-217.5 -47.5q-171 0 -273 96.5t-102 258.5q0 187 125.5 284t368.5 97h247v29q-1 134 -68 194.5t-214 60.5q-94 0 -190 -27t-187 -79v184q102 39 195.5 58.5t181.5 19.5q139 0 237.5 -41t159.5 -123q38 -50 54 -123.5 t16 -220.5zM702 563h-61q-161 0 -242.5 -56.5t-81.5 -168.5q0 -101 61 -157t169 -56q152 0 239 105.5t88 291.5v41h-172zM543 1638h147l246 -376h-139l-181 245l-180 -245h-139z" unicode="â"/>
<glyph glyph-name="atilde" d="M1059 639v-639h-185v166q-59 -100 -148.5 -147.5t-217.5 -47.5q-171 0 -273 96.5t-102 258.5q0 187 125.5 284t368.5 97h247v29q-1 134 -68 194.5t-214 60.5q-94 0 -190 -27t-187 -79v184q102 39 195.5 58.5t181.5 19.5q139 0 237.5 -41t159.5 -123q38 -50 54 -123.5 t16 -220.5zM702 563h-61q-161 0 -242.5 -56.5t-81.5 -168.5q0 -101 61 -157t169 -56q152 0 239 105.5t88 291.5v41h-172zM612 1370l-57 55q-21 20 -37.5 29.5t-30.5 9.5q-38 0 -56 -37t-20 -118h-124q1 134 52 208t142 74q39 0 71 -14t69 -47l57 -55q21 -20 37.5 -29.5 t29.5 -9.5q39 0 57 37t19 118h125q-1 -134 -52 -208t-142 -74q-39 0 -71 14t-69 47z" unicode="ã"/>
<glyph glyph-name="adieresis" d="M1059 639v-639h-185v166q-59 -100 -148.5 -147.5t-217.5 -47.5q-171 0 -273 96.5t-102 258.5q0 187 125.5 284t368.5 97h247v29q-1 134 -68 194.5t-214 60.5q-94 0 -190 -27t-187 -79v184q102 39 195.5 58.5t181.5 19.5q139 0 237.5 -41t159.5 -123q38 -50 54 -123.5 t16 -220.5zM702 563h-61q-161 0 -242.5 -56.5t-81.5 -168.5q0 -101 61 -157t169 -56q152 0 239 105.5t88 291.5v41h-172zM711 1552h202v-202h-202v202zM319 1552h203v-202h-203v202z" unicode="ä"/>
<glyph glyph-name="aring" d="M1059 639v-639h-185v166q-59 -100 -148.5 -147.5t-217.5 -47.5q-171 0 -273 96.5t-102 258.5q0 187 125.5 284t368.5 97h247v29q-1 134 -68 194.5t-214 60.5q-94 0 -190 -27t-187 -79v184q102 39 195.5 58.5t181.5 19.5q139 0 237.5 -41t159.5 -123q38 -50 54 -123.5 t16 -220.5zM702 563h-61q-161 0 -242.5 -56.5t-81.5 -168.5q0 -101 61 -157t169 -56q152 0 239 105.5t88 291.5v41h-172zM768 1524q0 63 -44 107t-108 44t-107.5 -43.5t-43.5 -107.5q0 -65 43.5 -108.5t107.5 -43.5t108 44t44 108zM891 1524q0 -115 -79.5 -195t-195.5 -80 q-115 0 -194.5 80t-79.5 195t79.5 194.5t194.5 79.5q116 0 195.5 -79.5t79.5 -194.5z" unicode="å"/>
<glyph glyph-name="ae" d="M1200 514h-491q-1 -15 -1.5 -32.5t-0.5 -51.5q0 -161 50.5 -233t162.5 -72q79 0 143.5 25.5t114.5 76.5v-172q-55 -41 -121 -62.5t-137 -21.5q-110 0 -184.5 41t-106.5 119q-39 -80 -105.5 -120t-163.5 -40q-156 0 -237.5 86t-81.5 250q0 171 100 260.5t291 89.5h117v88 q0 120 -49.5 184t-143.5 64q-56 0 -122 -21.5t-128 -60.5v168q77 35 143 51.5t126 16.5q91 0 153 -31.5t99 -95.5q33 61 99 94t155 33q174 0 246.5 -118.5t72.5 -424.5v-90zM1036 657v52q0 151 -38.5 217.5t-125.5 66.5t-125 -68t-38 -225v-43h327zM543 442v72h-49 q-169 0 -229 -45t-60 -158q0 -89 44.5 -137.5t127.5 -48.5q92 0 129 66.5t37 250.5z" unicode="æ"/>
<glyph glyph-name="ccedilla" d="M804 0q56 -62 82.5 -114.5t26.5 -100.5q0 -89 -60 -134.5t-178 -45.5q-45 0 -88.5 6t-87.5 18v131q34 -17 71.5 -24.5t84.5 -7.5q58 0 88.5 24t30.5 70q0 30 -22 73.5t-66 104.5h118zM1061 57q-74 -43 -152.5 -64.5t-160.5 -21.5q-260 0 -406.5 156t-146.5 432t146.5 432 t406.5 156q81 0 158 -21t155 -65v-193q-73 65 -146.5 94t-166.5 29q-173 0 -266 -112t-93 -320q0 -207 93.5 -319.5t265.5 -112.5q96 0 172 29.5t141 91.5v-191z" unicode="ç"/>
<glyph glyph-name="egrave" d="M928 660q-4 162 -76.5 246.5t-208.5 84.5q-133 0 -219 -88t-102 -244zM1112 606v-90h-797v-6q0 -183 95.5 -283t269.5 -100q88 0 184 28t205 85v-183q-105 -43 -202.5 -64.5t-188.5 -21.5q-261 0 -408 156.5t-147 431.5q0 268 144 428t384 160q214 0 337.5 -145 t123.5 -396zM491 1638l281 -376h-154l-325 376h198z" unicode="è"/>
<glyph glyph-name="eacute" d="M928 660q-4 162 -76.5 246.5t-208.5 84.5q-133 0 -219 -88t-102 -244zM1112 606v-90h-797v-6q0 -183 95.5 -283t269.5 -100q88 0 184 28t205 85v-183q-105 -43 -202.5 -64.5t-188.5 -21.5q-261 0 -408 156.5t-147 431.5q0 268 144 428t384 160q214 0 337.5 -145 t123.5 -396zM770 1638h198l-325 -376h-154z" unicode="é"/>
<glyph glyph-name="ecircumflex" d="M928 660q-4 162 -76.5 246.5t-208.5 84.5q-133 0 -219 -88t-102 -244zM1112 606v-90h-797v-6q0 -183 95.5 -283t269.5 -100q88 0 184 28t205 85v-183q-105 -43 -202.5 -64.5t-188.5 -21.5q-261 0 -408 156.5t-147 431.5q0 268 144 428t384 160q214 0 337.5 -145 t123.5 -396zM557 1638h147l246 -376h-139l-181 245l-180 -245h-139z" unicode="ê"/>
<glyph glyph-name="edieresis" d="M928 660q-4 162 -76.5 246.5t-208.5 84.5q-133 0 -219 -88t-102 -244zM1112 606v-90h-797v-6q0 -183 95.5 -283t269.5 -100q88 0 184 28t205 85v-183q-105 -43 -202.5 -64.5t-188.5 -21.5q-261 0 -408 156.5t-147 431.5q0 268 144 428t384 160q214 0 337.5 -145 t123.5 -396zM725 1552h202v-202h-202v202zM333 1552h203v-202h-203v202z" unicode="ë"/>
<glyph glyph-name="igrave" d="M256 1120h471v-977h365v-143h-914v143h365v834h-287v143zM477 1638l281 -376h-154l-325 376h198z" unicode="ì"/>
<glyph glyph-name="iacute" d="M256 1120h471v-977h365v-143h-914v143h365v834h-287v143zM756 1638h198l-325 -376h-154z" unicode="í"/>
<glyph glyph-name="icircumflex" d="M256 1120h471v-977h365v-143h-914v143h365v834h-287v143zM543 1638h147l246 -376h-139l-181 245l-180 -245h-139z" unicode="î"/>
<glyph glyph-name="idieresis" d="M256 1120h471v-977h365v-143h-914v143h365v834h-287v143zM735 1552h202v-202h-202v202zM343 1552h203v-202h-203v202z" unicode="ï"/>
<glyph glyph-name="eth" d="M793 918q-35 13 -76 19.5t-86 6.5q-146 0 -222.5 -105t-76.5 -304q0 -196 74 -302t210 -106q137 0 211 106t74 302q0 110 -29 211.5t-79 171.5zM717 1327q197 -212 288 -402t91 -390q0 -268 -125.5 -416t-354.5 -148q-228 0 -353.5 148t-125.5 416q0 265 125.5 413 t349.5 148q34 0 51.5 -1t32.5 -3q-33 45 -69 89.5t-74 88.5l-279 -92l-30 98l237 80l-182 200h219l127 -145l289 94l33 -98z" unicode="ð"/>
<glyph glyph-name="ntilde" d="M1051 694v-694h-185v694q0 151 -53 222t-166 71q-129 0 -198.5 -91.5t-69.5 -262.5v-633h-184v1120h184v-168q49 96 133 145.5t199 49.5q171 0 255.5 -112.5t84.5 -340.5zM612 1370l-57 55q-21 20 -37.5 29.5t-30.5 9.5q-38 0 -56 -37t-20 -118h-124q1 134 52 208t142 74 q39 0 71 -14t69 -47l57 -55q21 -20 37.5 -29.5t29.5 -9.5q39 0 57 37t19 118h125q-1 -134 -52 -208t-142 -74q-39 0 -71 14t-69 47z" unicode="ñ"/>
<glyph glyph-name="ograve" d="M616 1147q233 0 356.5 -151t123.5 -437q0 -287 -123 -437.5t-357 -150.5q-233 0 -356 150.5t-123 437.5q0 286 123 437t356 151zM616 991q-140 0 -212 -109t-72 -323q0 -213 72 -322.5t212 -109.5q141 0 213 109.5t72 322.5q0 214 -72 323t-213 109zM477 1638l281 -376 h-154l-325 376h198z" unicode="ò"/>
<glyph glyph-name="oacute" d="M616 1147q233 0 356.5 -151t123.5 -437q0 -287 -123 -437.5t-357 -150.5q-233 0 -356 150.5t-123 437.5q0 286 123 437t356 151zM616 991q-140 0 -212 -109t-72 -323q0 -213 72 -322.5t212 -109.5q141 0 213 109.5t72 322.5q0 214 -72 323t-213 109zM756 1638h198 l-325 -376h-154z" unicode="ó"/>
<glyph glyph-name="ocircumflex" d="M616 1147q233 0 356.5 -151t123.5 -437q0 -287 -123 -437.5t-357 -150.5q-233 0 -356 150.5t-123 437.5q0 286 123 437t356 151zM616 991q-140 0 -212 -109t-72 -323q0 -213 72 -322.5t212 -109.5q141 0 213 109.5t72 322.5q0 214 -72 323t-213 109zM543 1638h147 l246 -376h-139l-181 245l-180 -245h-139z" unicode="ô"/>
<glyph glyph-name="otilde" d="M616 1147q233 0 356.5 -151t123.5 -437q0 -287 -123 -437.5t-357 -150.5q-233 0 -356 150.5t-123 437.5q0 286 123 437t356 151zM616 991q-140 0 -212 -109t-72 -323q0 -213 72 -322.5t212 -109.5q141 0 213 109.5t72 322.5q0 214 -72 323t-213 109zM612 1370l-57 55 q-21 20 -37.5 29.5t-30.5 9.5q-38 0 -56 -37t-20 -118h-124q1 134 52 208t142 74q39 0 71 -14t69 -47l57 -55q21 -20 37.5 -29.5t29.5 -9.5q39 0 57 37t19 118h125q-1 -134 -52 -208t-142 -74q-39 0 -71 14t-69 47z" unicode="õ"/>
<glyph glyph-name="odieresis" d="M616 1147q233 0 356.5 -151t123.5 -437q0 -287 -123 -437.5t-357 -150.5q-233 0 -356 150.5t-123 437.5q0 286 123 437t356 151zM616 991q-140 0 -212 -109t-72 -323q0 -213 72 -322.5t212 -109.5q141 0 213 109.5t72 322.5q0 214 -72 323t-213 109zM711 1552h202v-202 h-202v202zM319 1552h203v-202h-203v202z" unicode="ö"/>
<glyph glyph-name="divide" d="M88 727h1057v-170h-1057v170zM494 1135h245v-246h-245v246zM494 395h245v-245h-245v245z" unicode="÷"/>
<glyph glyph-name="oslash" d="M217 180q-39 71 -59.5 168.5t-20.5 210.5q0 286 123 437t356 151q100 0 179 -27.5t139 -83.5l147 176l93 -77l-164 -195q42 -66 64 -162.5t22 -218.5q0 -287 -123 -437.5t-357 -150.5q-103 0 -181.5 29.5t-135.5 89.5l-160 -186l-92 76zM817 897q-35 48 -84.5 71 t-116.5 23q-139 0 -213.5 -107t-74.5 -309q0 -48 7 -106t21 -129zM877 780l-463 -559q36 -47 86.5 -70.5t115.5 -23.5q141 0 213 109.5t72 322.5q0 52 -6 107.5t-18 113.5z" unicode="ø"/>
<glyph glyph-name="ugrave" d="M195 424v694h184v-694q0 -151 53.5 -222t165.5 -71q130 0 199 91.5t69 262.5v633h185v-1118h-185v168q-49 -97 -133.5 -147t-197.5 -50q-172 0 -256 112.5t-84 340.5zM477 1638l281 -376h-154l-325 376h198z" unicode="ù"/>
<glyph glyph-name="uacute" d="M195 424v694h184v-694q0 -151 53.5 -222t165.5 -71q130 0 199 91.5t69 262.5v633h185v-1118h-185v168q-49 -97 -133.5 -147t-197.5 -50q-172 0 -256 112.5t-84 340.5zM756 1638h198l-325 -376h-154z" unicode="ú"/>
<glyph glyph-name="ucircumflex" d="M195 424v694h184v-694q0 -151 53.5 -222t165.5 -71q130 0 199 91.5t69 262.5v633h185v-1118h-185v168q-49 -97 -133.5 -147t-197.5 -50q-172 0 -256 112.5t-84 340.5zM543 1638h147l246 -376h-139l-181 245l-180 -245h-139z" unicode="û"/>
<glyph glyph-name="udieresis" d="M195 424v694h184v-694q0 -151 53.5 -222t165.5 -71q130 0 199 91.5t69 262.5v633h185v-1118h-185v168q-49 -97 -133.5 -147t-197.5 -50q-172 0 -256 112.5t-84 340.5zM711 1552h202v-202h-202v202zM319 1552h203v-202h-203v202z" unicode="ü"/>
<glyph glyph-name="yacute" d="M858 360q-46 -117 -117 -308q-99 -264 -133 -322q-46 -78 -115 -117t-161 -39h-148v154h109q81 0 127 47t117 243l-433 1102h195l332 -876l327 876h195zM756 1638h198l-325 -376h-154z" unicode="ý"/>
<glyph glyph-name="thorn" d="M915 559q0 214 -67.5 323t-200.5 109q-134 0 -203 -109.5t-69 -322.5q0 -212 69 -322t203 -110q133 0 200.5 109t67.5 323zM375 141v-567h-185v1993h185v-590q46 83 122.5 126.5t176.5 43.5q203 0 318.5 -157t115.5 -435q0 -273 -116 -428.5t-318 -155.5 q-102 0 -178.5 43.5t-120.5 126.5z" unicode="þ"/>
<glyph glyph-name="ydieresis" d="M858 360q-46 -117 -117 -308q-99 -264 -133 -322q-46 -78 -115 -117t-161 -39h-148v154h109q81 0 127 47t117 243l-433 1102h195l332 -876l327 876h195zM711 1552h202v-202h-202v202zM319 1552h203v-202h-203v202z" unicode="ÿ"/>
<glyph glyph-name="Amacron" d="M317 1840h598v-148h-598v148zM494 1493h245l457 -1493h-209l-110 389h-523l-108 -389h-209zM616 1315l-213 -764h426z" unicode="Ā"/>
<glyph glyph-name="amacron" d="M317 1526h598v-148h-598v148zM1059 639v-639h-185v166q-59 -100 -148.5 -147.5t-217.5 -47.5q-171 0 -273 96.5t-102 258.5q0 187 125.5 284t368.5 97h247v29q-1 134 -68 194.5t-214 60.5q-94 0 -190 -27t-187 -79v184q102 39 195.5 58.5t181.5 19.5q139 0 237.5 -41 t159.5 -123q38 -50 54 -123.5t16 -220.5zM702 563h-61q-161 0 -242.5 -56.5t-81.5 -168.5q0 -101 61 -157t169 -56q152 0 239 105.5t88 291.5v41h-172z" unicode="ā"/>
<glyph glyph-name="Abreve" d="M303 1901h119q12 -54 62 -82.5t132 -28.5q83 0 131.5 27.5t63.5 83.5h119q-11 -119 -90.5 -180.5t-223.5 -61.5t-223 61t-90 181zM494 1493h245l457 -1493h-209l-110 389h-523l-108 -389h-209zM616 1315l-213 -764h426z" unicode="Ă"/>
<glyph glyph-name="abreve" d="M303 1608h119q11 -76 59 -113t135 -37q85 0 133 37t62 113h119q-11 -143 -90 -215t-224 -72q-144 0 -223 72t-90 215zM1059 639v-639h-185v166q-59 -100 -148.5 -147.5t-217.5 -47.5q-171 0 -273 96.5t-102 258.5q0 187 125.5 284t368.5 97h247v29q-1 134 -68 194.5 t-214 60.5q-94 0 -190 -27t-187 -79v184q102 39 195.5 58.5t181.5 19.5q139 0 237.5 -41t159.5 -123q38 -50 54 -123.5t16 -220.5zM702 563h-61q-161 0 -242.5 -56.5t-81.5 -168.5q0 -101 61 -157t169 -56q152 0 239 105.5t88 291.5v41h-172z" unicode="ă"/>
<glyph glyph-name="Aogonek" d="M983 0h119q-45 -61 -66.5 -105t-21.5 -75q0 -46 27.5 -69t81.5 -23q32 0 63 7.5t62 22.5v-133q-38 -10 -72 -15t-64 -5q-122 0 -179.5 43.5t-57.5 136.5q0 48 26.5 100.5t81.5 114.5zM494 1493h245l457 -1493h-209l-110 389h-523l-108 -389h-209zM616 1315l-213 -764h426 z" unicode="Ą"/>
<glyph glyph-name="aogonek" d="M873 0h119q-45 -61 -66.5 -105t-21.5 -75q0 -46 27.5 -69t81.5 -23q32 0 63 7.5t62 22.5v-133q-38 -10 -72 -15t-64 -5q-122 0 -179.5 43.5t-57.5 136.5q0 48 26.5 100.5t81.5 114.5zM1059 639v-639h-185v166q-59 -100 -148.5 -147.5t-217.5 -47.5q-171 0 -273 96.5 t-102 258.5q0 187 125.5 284t368.5 97h247v29q-1 134 -68 194.5t-214 60.5q-94 0 -190 -27t-187 -79v184q102 39 195.5 58.5t181.5 19.5q139 0 237.5 -41t159.5 -123q38 -50 54 -123.5t16 -220.5zM702 563h-61q-161 0 -242.5 -56.5t-81.5 -168.5q0 -101 61 -157t169 -56 q152 0 239 105.5t88 291.5v41h-172z" unicode="ą"/>
<glyph glyph-name="Cacute" d="M1073 53q-77 -41 -158 -61.5t-172 -20.5q-287 0 -445.5 203t-158.5 571q0 366 159.5 570.5t444.5 204.5q91 0 172 -20.5t158 -61.5v-207q-74 61 -159 93t-171 32q-197 0 -295 -152t-98 -459q0 -306 98 -458t295 -152q88 0 172.5 32t157.5 93v-207zM762 1899h186 l-229 -264h-154z" unicode="Ć"/>
<glyph glyph-name="cacute" d="M1061 57q-74 -43 -152.5 -64.5t-160.5 -21.5q-260 0 -406.5 156t-146.5 432t146.5 432t406.5 156q81 0 158 -21t155 -65v-193q-73 65 -146.5 94t-166.5 29q-173 0 -266 -112t-93 -320q0 -207 93.5 -319.5t265.5 -112.5q96 0 172 29.5t141 91.5v-191zM846 1638h198 l-325 -376h-154z" unicode="ć"/>
<glyph glyph-name="Ccircumflex" d="M648 1908h189l211 -266h-140l-166 178l-165 -178h-140zM1073 53q-77 -41 -158 -61.5t-172 -20.5q-287 0 -445.5 203t-158.5 571q0 366 159.5 570.5t444.5 204.5q91 0 172 -20.5t158 -61.5v-207q-74 61 -159 93t-171 32q-197 0 -295 -152t-98 -459q0 -306 98 -458 t295 -152q88 0 172.5 32t157.5 93v-207z" unicode="Ĉ"/>
<glyph glyph-name="ccircumflex" d="M633 1638h147l246 -376h-139l-181 245l-180 -245h-139zM1061 57q-74 -43 -152.5 -64.5t-160.5 -21.5q-260 0 -406.5 156t-146.5 432t146.5 432t406.5 156q81 0 158 -21t155 -65v-193q-73 65 -146.5 94t-166.5 29q-173 0 -266 -112t-93 -320q0 -207 93.5 -319.5 t265.5 -112.5q96 0 172 29.5t141 91.5v-191z" unicode="ĉ"/>
<glyph glyph-name="Cdotaccent" d="M588 1872h205v-205h-205v205zM1073 53q-77 -41 -158 -61.5t-172 -20.5q-287 0 -445.5 203t-158.5 571q0 366 159.5 570.5t444.5 204.5q91 0 172 -20.5t158 -61.5v-207q-74 61 -159 93t-171 32q-197 0 -295 -152t-98 -459q0 -306 98 -458t295 -152q88 0 172.5 32t157.5 93 v-207z" unicode="Ċ"/>
<glyph glyph-name="cdotaccent" d="M588 1552h205v-204h-205v204zM1061 57q-74 -43 -152.5 -64.5t-160.5 -21.5q-260 0 -406.5 156t-146.5 432t146.5 432t406.5 156q81 0 158 -21t155 -65v-193q-73 65 -146.5 94t-166.5 29q-173 0 -266 -112t-93 -320q0 -207 93.5 -319.5t265.5 -112.5q96 0 172 29.5 t141 91.5v-191z" unicode="ċ"/>
<glyph glyph-name="Ccaron" d="M1073 53q-77 -41 -158 -61.5t-172 -20.5q-287 0 -445.5 203t-158.5 571q0 366 159.5 570.5t444.5 204.5q91 0 172 -20.5t158 -61.5v-207q-74 61 -159 93t-171 32q-197 0 -295 -152t-98 -459q0 -306 98 -458t295 -152q88 0 172.5 32t157.5 93v-207zM612 1635l-211 266h140 l165 -178l166 178h140l-211 -266h-189z" unicode="Č"/>
<glyph glyph-name="ccaron" d="M1061 57q-74 -43 -152.5 -64.5t-160.5 -21.5q-260 0 -406.5 156t-146.5 432t146.5 432t406.5 156q81 0 158 -21t155 -65v-193q-73 65 -146.5 94t-166.5 29q-173 0 -266 -112t-93 -320q0 -207 93.5 -319.5t265.5 -112.5q96 0 172 29.5t141 91.5v-191zM633 1262l-246 376 h139l180 -245l181 245h139l-246 -376h-147z" unicode="č"/>
<glyph glyph-name="Dcaron" d="M440 1493q342 0 504 -182t162 -566q0 -382 -162 -563.5t-504 -181.5h-303v1493h303zM436 166q255 0 356 125.5t101 453.5q0 331 -100.5 456.5t-356.5 125.5h-96v-1161h96zM444 1629l-211 266h140l165 -178l166 178h140l-211 -266h-189z" unicode="Ď"/>
<glyph glyph-name="dcaron" d="M1114 1557h198l-113 -376h-154zM317 559q0 -214 68 -323t201 -109t202.5 110t69.5 322q0 213 -69.5 322.5t-202.5 109.5t-201 -109t-68 -323zM858 977v579h184v-1556h-184v141q-46 -83 -122.5 -126.5t-176.5 -43.5q-203 0 -319.5 157.5t-116.5 434.5q0 273 117 428.5 t319 155.5q101 0 178 -43.5t121 -126.5z" unicode="ď"/>
<glyph glyph-name="Dcroat" d="M436 166q255 0 356 125.5t101 453.5q0 331 -100.5 456.5t-356.5 125.5h-96v-469h264v-149h-264v-543h96zM436 1493q342 0 504 -182t162 -566q0 -382 -162.5 -563.5t-503.5 -181.5h-303v709h-125v149h125v635h303z" unicode="Đ"/>
<glyph glyph-name="dcroat" d="M317 559q0 -214 68 -323t201 -109t202.5 110t69.5 322q0 213 -69.5 322.5t-202.5 109.5t-201 -109t-68 -323zM858 977v309h-305v121h305v149h184v-149h191v-121h-191v-1286h-184v141q-46 -83 -122.5 -126.5t-176.5 -43.5q-203 0 -319.5 157.5t-116.5 434.5 q0 273 117 428.5t319 155.5q101 0 178 -43.5t121 -126.5z" unicode="đ"/>
<glyph glyph-name="Emacron" d="M335 1840h598v-148h-598v148zM197 1493h886v-170h-684v-442h654v-170h-654v-541h703v-170h-905v1493z" unicode="Ē"/>
<glyph glyph-name="emacron" d="M352 1526h598v-148h-598v148zM928 660q-4 162 -76.5 246.5t-208.5 84.5q-133 0 -219 -88t-102 -244zM1112 606v-90h-797v-6q0 -183 95.5 -283t269.5 -100q88 0 184 28t205 85v-183q-105 -43 -202.5 -64.5t-188.5 -21.5q-261 0 -408 156.5t-147 431.5q0 268 144 428 t384 160q214 0 337.5 -145t123.5 -396z" unicode="ē"/>
<glyph glyph-name="Ebreve" d="M321 1901h119q12 -54 62 -82.5t132 -28.5q83 0 131.5 27.5t63.5 83.5h119q-11 -119 -90.5 -180.5t-223.5 -61.5t-223 61t-90 181zM197 1493h886v-170h-684v-442h654v-170h-654v-541h703v-170h-905v1493z" unicode="Ĕ"/>
<glyph glyph-name="ebreve" d="M317 1608h119q11 -76 59 -113t135 -37q85 0 133 37t62 113h119q-11 -143 -90 -215t-224 -72q-144 0 -223 72t-90 215zM928 660q-4 162 -76.5 246.5t-208.5 84.5q-133 0 -219 -88t-102 -244zM1112 606v-90h-797v-6q0 -183 95.5 -283t269.5 -100q88 0 184 28t205 85v-183 q-105 -43 -202.5 -64.5t-188.5 -21.5q-261 0 -408 156.5t-147 431.5q0 268 144 428t384 160q214 0 337.5 -145t123.5 -396z" unicode="ĕ"/>
<glyph glyph-name="Edotaccent" d="M531 1872h205v-205h-205v205zM197 1493h886v-170h-684v-442h654v-170h-654v-541h703v-170h-905v1493z" unicode="Ė"/>
<glyph glyph-name="edotaccent" d="M527 1552h205v-204h-205v204zM928 660q-4 162 -76.5 246.5t-208.5 84.5q-133 0 -219 -88t-102 -244zM1112 606v-90h-797v-6q0 -183 95.5 -283t269.5 -100q88 0 184 28t205 85v-183q-105 -43 -202.5 -64.5t-188.5 -21.5q-261 0 -408 156.5t-147 431.5q0 268 144 428 t384 160q214 0 337.5 -145t123.5 -396z" unicode="ė"/>
<glyph glyph-name="Eogonek" d="M833 0h119q-45 -61 -66.5 -105t-21.5 -75q0 -46 27.5 -69t81.5 -23q32 0 63 7.5t62 22.5v-133q-38 -10 -72 -15t-64 -5q-122 0 -179.5 43.5t-57.5 136.5q0 48 26.5 100.5t81.5 114.5zM197 1493h886v-170h-684v-442h654v-170h-654v-541h703v-170h-905v1493z" unicode="Ę"/>
<glyph glyph-name="eogonek" d="M774 0h119q-45 -61 -66.5 -105t-21.5 -75q0 -46 27.5 -69t81.5 -23q32 0 63 7.5t62 22.5v-133q-38 -10 -72 -15t-64 -5q-122 0 -179.5 43.5t-57.5 136.5q0 48 26.5 100.5t81.5 114.5zM928 660q-4 162 -76.5 246.5t-208.5 84.5q-133 0 -219 -88t-102 -244zM1112 606v-90 h-797v-6q0 -183 95.5 -283t269.5 -100q88 0 184 28t205 85v-183q-105 -43 -202.5 -64.5t-188.5 -21.5q-261 0 -408 156.5t-147 431.5q0 268 144 428t384 160q214 0 337.5 -145t123.5 -396z" unicode="ę"/>
<glyph glyph-name="Ecaron" d="M197 1493h886v-170h-684v-442h654v-170h-654v-541h703v-170h-905v1493zM558 1629l-211 266h140l165 -178l166 178h140l-211 -266h-189z" unicode="Ě"/>
<glyph glyph-name="ecaron" d="M928 660q-4 162 -76.5 246.5t-208.5 84.5q-133 0 -219 -88t-102 -244zM1112 606v-90h-797v-6q0 -183 95.5 -283t269.5 -100q88 0 184 28t205 85v-183q-105 -43 -202.5 -64.5t-188.5 -21.5q-261 0 -408 156.5t-147 431.5q0 268 144 428t384 160q214 0 337.5 -145 t123.5 -396zM578 1257l-246 376h139l180 -245l181 245h139l-246 -376h-147z" unicode="ě"/>
<glyph glyph-name="Gcircumflex" d="M522 1901h189l211 -266h-140l-166 178l-165 -178h-140zM1104 123q-81 -75 -182.5 -113.5t-219.5 -38.5q-284 0 -442 203.5t-158 570.5q0 366 160 570.5t445 204.5q94 0 180 -26.5t166 -80.5v-207q-81 77 -166 113.5t-180 36.5q-197 0 -295.5 -152.5t-98.5 -458.5 q0 -311 95.5 -460.5t293.5 -149.5q67 0 117.5 15.5t91.5 48.5v401h-217v166h410v-643z" unicode="Ĝ"/>
<glyph glyph-name="gcircumflex" d="M543 1638h147l246 -376h-139l-181 245l-180 -245h-139zM1042 72q0 -252 -119 -382t-350 -130q-76 0 -159 14t-166 41v182q98 -46 178 -68t147 -22q149 0 217 81t68 257v8v125q-44 -94 -120 -140t-185 -46q-196 0 -313 157t-117 420q0 264 117 421t313 157q108 0 183 -43 t122 -133v145h184v-1044zM858 569q0 207 -67.5 314.5t-196.5 107.5q-135 0 -206 -107.5t-71 -314.5t71.5 -315.5t207.5 -108.5q127 0 194.5 109t67.5 315z" unicode="ĝ"/>
<glyph glyph-name="Gbreve" d="M353 1901h119q12 -54 62 -82.5t132 -28.5q83 0 131.5 27.5t63.5 83.5h119q-11 -119 -90.5 -180.5t-223.5 -61.5t-223 61t-90 181zM1104 123q-81 -75 -182.5 -113.5t-219.5 -38.5q-284 0 -442 203.5t-158 570.5q0 366 160 570.5t445 204.5q94 0 180 -26.5t166 -80.5v-207 q-81 77 -166 113.5t-180 36.5q-197 0 -295.5 -152.5t-98.5 -458.5q0 -311 95.5 -460.5t293.5 -149.5q67 0 117.5 15.5t91.5 48.5v401h-217v166h410v-643z" unicode="Ğ"/>
<glyph glyph-name="gbreve" d="M303 1608h119q11 -76 59 -113t135 -37q85 0 133 37t62 113h119q-11 -143 -90 -215t-224 -72q-144 0 -223 72t-90 215zM1042 72q0 -252 -119 -382t-350 -130q-76 0 -159 14t-166 41v182q98 -46 178 -68t147 -22q149 0 217 81t68 257v8v125q-44 -94 -120 -140t-185 -46 q-196 0 -313 157t-117 420q0 264 117 421t313 157q108 0 183 -43t122 -133v145h184v-1044zM858 569q0 207 -67.5 314.5t-196.5 107.5q-135 0 -206 -107.5t-71 -314.5t71.5 -315.5t207.5 -108.5q127 0 194.5 109t67.5 315z" unicode="ğ"/>
<glyph glyph-name="Gdotaccent" d="M563 1872h205v-205h-205v205zM1104 123q-81 -75 -182.5 -113.5t-219.5 -38.5q-284 0 -442 203.5t-158 570.5q0 366 160 570.5t445 204.5q94 0 180 -26.5t166 -80.5v-207q-81 77 -166 113.5t-180 36.5q-197 0 -295.5 -152.5t-98.5 -458.5q0 -311 95.5 -460.5t293.5 -149.5 q67 0 117.5 15.5t91.5 48.5v401h-217v166h410v-643z" unicode="Ġ"/>
<glyph glyph-name="gdotaccent" d="M513 1552h205v-204h-205v204zM1042 72q0 -252 -119 -382t-350 -130q-76 0 -159 14t-166 41v182q98 -46 178 -68t147 -22q149 0 217 81t68 257v8v125q-44 -94 -120 -140t-185 -46q-196 0 -313 157t-117 420q0 264 117 421t313 157q108 0 183 -43t122 -133v145h184v-1044z M858 569q0 207 -67.5 314.5t-196.5 107.5q-135 0 -206 -107.5t-71 -314.5t71.5 -315.5t207.5 -108.5q127 0 194.5 109t67.5 315z" unicode="ġ"/>
<glyph glyph-name="Gcommaaccent" d="M630 -228h239l-187 -345h-146zM1104 123q-81 -75 -182.5 -113.5t-219.5 -38.5q-284 0 -442 203.5t-158 570.5q0 366 160 570.5t445 204.5q94 0 180 -26.5t166 -80.5v-207q-81 77 -166 113.5t-180 36.5q-197 0 -295.5 -152.5t-98.5 -458.5q0 -311 95.5 -460.5 t293.5 -149.5q67 0 117.5 15.5t91.5 48.5v401h-217v166h410v-643z" unicode="Ģ"/>
<glyph glyph-name="gcommaaccent" d="M725 1269h-239l187 345h146zM1042 72q0 -252 -119 -382t-350 -130q-76 0 -159 14t-166 41v182q98 -46 178 -68t147 -22q149 0 217 81t68 257v8v125q-44 -94 -120 -140t-185 -46q-196 0 -313 157t-117 420q0 264 117 421t313 157q108 0 183 -43t122 -133v145h184v-1044z M858 569q0 207 -67.5 314.5t-196.5 107.5q-135 0 -206 -107.5t-71 -314.5t71.5 -315.5t207.5 -108.5q127 0 194.5 109t67.5 315z" unicode="ģ"/>
<glyph glyph-name="Hcircumflex" d="M522 1901h189l211 -266h-140l-166 178l-165 -178h-140zM137 1493h203v-612h553v612h203v-1493h-203v711h-553v-711h-203v1493z" unicode="Ĥ"/>
<glyph glyph-name="hcircumflex" d="M522 1901h189l211 -266h-140l-166 178l-165 -178h-140zM1051 694v-694h-185v694q0 151 -53 222t-166 71q-129 0 -198.5 -91.5t-69.5 -262.5v-633h-184v1556h184v-604q49 96 133 145.5t199 49.5q171 0 255.5 -112.5t84.5 -340.5z" unicode="ĥ"/>
<glyph glyph-name="Hbar" d="M339 1105v-224h554v224h-554zM137 1493h202v-224h554v224h202v-224h135v-164h-135v-1105h-202v711h-554v-711h-202v1105h-134v164h134v224z" unicode="Ħ"/>
<glyph glyph-name="hbar" d="M1051 694v-694h-185v694q0 151 -53 222t-166 71q-129 0 -198.5 -91.5t-69.5 -262.5v-633h-184v1270h-125v164h125v122h184v-122h353v-164h-353v-318q49 96 133 145.5t199 49.5q171 0 255.5 -112.5t84.5 -340.5z" unicode="ħ"/>
<glyph glyph-name="Itilde" d="M612 1710l-57 33q-25 14 -40.5 19.5t-27.5 5.5q-35 0 -55 -25t-20 -70v-6h-125q0 101 51.5 160t136.5 59q36 0 66.5 -8t79.5 -35l57 -30q22 -13 39.5 -19t32.5 -6q31 0 51 25.5t20 66.5v6h125q-2 -100 -53 -159.5t-135 -59.5q-34 0 -64 8t-82 35zM201 1493h829v-170h-313 v-1153h313v-170h-829v170h313v1153h-313v170z" unicode="Ĩ"/>
<glyph glyph-name="itilde" d="M612 1370l-57 55q-21 20 -37.5 29.5t-30.5 9.5q-38 0 -56 -37t-20 -118h-124q1 134 52 208t142 74q39 0 71 -14t69 -47l57 -55q21 -20 37.5 -29.5t29.5 -9.5q39 0 57 37t19 118h125q-1 -134 -52 -208t-142 -74q-39 0 -71 14t-69 47zM256 1120h471v-977h365v-143h-914v143 h365v834h-287v143z" unicode="ĩ"/>
<glyph glyph-name="Imacron" d="M317 1840h598v-148h-598v148zM201 1493h829v-170h-313v-1153h313v-170h-829v170h313v1153h-313v170z" unicode="Ī"/>
<glyph glyph-name="imacron" d="M317 1526h598v-148h-598v148zM256 1120h471v-977h365v-143h-914v143h365v834h-287v143z" unicode="ī"/>
<glyph glyph-name="Ibreve" d="M303 1901h119q12 -54 62 -82.5t132 -28.5q83 0 131.5 27.5t63.5 83.5h119q-11 -119 -90.5 -180.5t-223.5 -61.5t-223 61t-90 181zM201 1493h829v-170h-313v-1153h313v-170h-829v170h313v1153h-313v170z" unicode="Ĭ"/>
<glyph glyph-name="ibreve" d="M303 1608h119q11 -76 59 -113t135 -37q85 0 133 37t62 113h119q-11 -143 -90 -215t-224 -72q-144 0 -223 72t-90 215zM256 1120h471v-977h365v-143h-914v143h365v834h-287v143z" unicode="ĭ"/>
<glyph glyph-name="Iogonek" d="M201 1493h829v-170h-313v-1153h313v-170h-829v170h313v1153h-313v170zM598 0h119q-45 -61 -66.5 -105t-21.5 -75q0 -46 27.5 -69t81.5 -23q32 0 63 7.5t62 22.5v-133q-38 -10 -72 -15t-64 -5q-122 0 -179.5 43.5t-57.5 136.5q0 48 26.5 100.5t81.5 114.5z" unicode="Į"/>
<glyph glyph-name="iogonek" d="M543 1556h184v-233h-184v233zM256 1120h471v-977h365v-143h-914v143h365v834h-287v143zM608 0h119q-45 -61 -66.5 -105t-21.5 -75q0 -46 27.5 -69t81.5 -23q32 0 63 7.5t62 22.5v-133q-38 -10 -72 -15t-64 -5q-122 0 -179.5 43.5t-57.5 136.5q0 48 26.5 100.5t81.5 114.5 z" unicode="į"/>
<glyph glyph-name="Idotaccent" d="M513 1872h205v-205h-205v205zM201 1493h829v-170h-313v-1153h313v-170h-829v170h313v1153h-313v170z" unicode="İ"/>
<glyph glyph-name="dotlessi" d="M256 1120h471v-977h365v-143h-914v143h365v834h-287v143z" unicode="ı"/>
<glyph glyph-name="IJ" d="M-1 1493h605v-170h-228v-1153h228v-170h-605v170h228v1153h-228v170zM652 64v236q61 -81 127 -121.5t137 -40.5q97 0 136 74q38 75 38 278v836h-259v170h397v-1006q0 -282 -72 -399t-240 -117q-65 0 -130 22q-64 22 -134 68z" unicode="Ĳ"/>
<glyph glyph-name="ij" d="M294 1556h151v-233h-151v233zM59 1120h386v-977h300v-143h-750v143h299v834h-235v143zM978 1545h184v-233h-184v233zM978 -31v997h-317v143h501v-1140q0 -195 -89.5 -300.5t-254.5 -105.5h-254v156h234q90 0 135 62.5t45 187.5z" unicode="ĳ"/>
<glyph glyph-name="Jcircumflex" d="M570 1901h189l211 -266h-140l-166 178l-165 -178h-140zM109 61v236q91 -81 188 -121.5t201 -40.5q143 0 199.5 74.5t56.5 277.5v836h-381v170h583v-1006q0 -282 -105.5 -399t-352.5 -117q-96 0 -191 22t-198 68z" unicode="Ĵ"/>
<glyph glyph-name="jcircumflex" d="M543 1638h147l246 -376h-139l-181 245l-180 -245h-139zM600 -20v997h-317v143h501v-1140q0 -195 -89.5 -300.5t-254.5 -105.5h-254v156h234q90 0 135 62.5t45 187.5z" unicode="ĵ"/>
<glyph glyph-name="Kcommaaccent" d="M608 -199h239l-187 -345h-146zM137 1493h203v-664l631 664h237l-581 -610l598 -883h-244l-487 748l-154 -164v-584h-203v1493z" unicode="Ķ"/>
<glyph glyph-name="kcommaaccent" d="M646 -199h239l-187 -345h-146zM236 1556h190v-901l483 465h224l-441 -422l510 -698h-225l-414 578l-137 -129v-449h-190v1556z" unicode="ķ"/>
<glyph glyph-name="kgreenlandic" d="M236 1120h190v-465l483 465h224l-441 -422l510 -698h-225l-414 578l-137 -129v-449h-190v1120z" unicode="ĸ"/>
<glyph glyph-name="Lacute" d="M397 1900h186l-229 -264h-154zM215 1493h203v-1323h721v-170h-924v1493z" unicode="Ĺ"/>
<glyph glyph-name="lacute" d="M577 1900h186l-229 -264h-154zM639 406q0 -124 45.5 -187t134.5 -63h215v-156h-233q-165 0 -255.5 106t-90.5 300v1017h-295v144h479v-1161z" unicode="ĺ"/>
<glyph glyph-name="Lcommaaccent" d="M604 -199h239l-187 -345h-146zM215 1493h203v-1323h721v-170h-924v1493z" unicode="Ļ"/>
<glyph glyph-name="lcommaaccent" d="M497 -199h239l-187 -345h-146zM639 406q0 -124 45.5 -187t134.5 -63h215v-156h-233q-165 0 -255.5 106t-90.5 300v1017h-295v144h479v-1161z" unicode="ļ"/>
<glyph glyph-name="Lcaron" d="M718 1491h198l-113 -376h-154zM215 1493h203v-1323h721v-170h-924v1493z" unicode="Ľ"/>
<glyph glyph-name="lcaron" d="M960 1567h198l-113 -376h-154zM639 406q0 -124 45.5 -187t134.5 -63h215v-156h-233q-165 0 -255.5 106t-90.5 300v1017h-295v144h479v-1161z" unicode="ľ"/>
<glyph glyph-name="Ldot" d="M841 998h252v-305h-252v305zM215 1493h203v-1323h721v-170h-924v1493z" unicode="Ŀ"/>
<glyph glyph-name="ldot" d="M960 1008h252v-305h-252v305zM639 406q0 -124 45.5 -187t134.5 -63h215v-156h-233q-165 0 -255.5 106t-90.5 300v1017h-295v144h479v-1161z" unicode="ŀ"/>
<glyph glyph-name="Lslash" d="M215 1493h203v-616l315 219l78 -111l-393 -274v-541h721v-170h-924v571l-145 -106l-80 110l225 158v760z" unicode="Ł"/>
<glyph glyph-name="lslash" d="M639 406q0 -124 45.5 -187t134.5 -63h215v-156h-233q-165 0 -255.5 106t-90.5 300v292l-299 -209l-80 111l379 264v559h-295v144h479v-578l315 219l80 -110l-395 -275v-417z" unicode="ł"/>
<glyph glyph-name="Nacute" d="M705 1899h186l-229 -264h-154zM139 1493h256l504 -1229v1229h195v-1493h-256l-504 1229v-1229h-195v1493z" unicode="Ń"/>
<glyph glyph-name="nacute" d="M776 1645h198l-325 -376h-154zM1051 694v-694h-185v694q0 151 -53 222t-166 71q-129 0 -198.5 -91.5t-69.5 -262.5v-633h-184v1120h184v-168q49 96 133 145.5t199 49.5q171 0 255.5 -112.5t84.5 -340.5z" unicode="ń"/>
<glyph glyph-name="Ncommaaccent" d="M544 -199h239l-187 -345h-146zM139 1493h256l504 -1229v1229h195v-1493h-256l-504 1229v-1229h-195v1493z" unicode="Ņ"/>
<glyph glyph-name="ncommaaccent" d="M550 -199h239l-187 -345h-146zM1051 694v-694h-185v694q0 151 -53 222t-166 71q-129 0 -198.5 -91.5t-69.5 -262.5v-633h-184v1120h184v-168q49 96 133 145.5t199 49.5q171 0 255.5 -112.5t84.5 -340.5z" unicode="ņ"/>
<glyph glyph-name="Ncaron" d="M139 1493h256l504 -1229v1229h195v-1493h-256l-504 1229v-1229h-195v1493zM564 1635l-211 266h140l165 -178l166 178h140l-211 -266h-189z" unicode="Ň"/>
<glyph glyph-name="ncaron" d="M1051 694v-694h-185v694q0 151 -53 222t-166 71q-129 0 -198.5 -91.5t-69.5 -262.5v-633h-184v1120h184v-168q49 96 133 145.5t199 49.5q171 0 255.5 -112.5t84.5 -340.5zM531 1262l-246 376h139l180 -245l181 245h139l-246 -376h-147z" unicode="ň"/>
<glyph glyph-name="napostrophe" d="M1174 694v-694h-185v694q0 151 -53 222t-166 71q-129 0 -198.5 -91.5t-69.5 -262.5v-633h-184v1120h184v-168q49 96 133 145.5t199 49.5q171 0 255.5 -112.5t84.5 -340.5zM122 1556h252v-206l-197 -383h-153l98 383v206z" unicode="ŉ"/>
<glyph glyph-name="Eng" d="M1085 999v-1019q0 -195 -89 -300q-90 -106 -255 -106h-205v156h167q90 0 135 62q44 62 44 208v1009q0 180 -58 264.5t-182 84.5q-141 0 -217 -109t-76 -312v-937h-202v1493h202v-198q54 111 146 169t218 58q187 0 279.5 -130.5t92.5 -392.5z" unicode="Ŋ"/>
<glyph glyph-name="eng" d="M1051 694v-714q0 -195 -89 -300q-90 -106 -255 -106h-205v156h185q90 0 135 62q44 62 44 188v714q0 151 -53 222t-166 71q-129 0 -199 -91q-69 -92 -69 -263v-633h-184v1120h184v-168q49 96 133 146q84 49 199 49q171 0 255 -113q85 -112 85 -340z" unicode="ŋ"/>
<glyph glyph-name="Omacron" d="M317 1840h598v-148h-598v148zM1116 745q0 -390 -123.5 -582t-376.5 -192t-376 191t-123 583q0 391 123.5 583t375.5 192q253 0 376.5 -192t123.5 -583zM905 745q0 329 -67.5 470t-221.5 141q-153 0 -220.5 -141t-67.5 -470q0 -328 67.5 -469t220.5 -141 q154 0 221.5 140.5t67.5 469.5z" unicode="Ō"/>
<glyph glyph-name="omacron" d="M317 1526h598v-148h-598v148zM616 1147q233 0 356.5 -151t123.5 -437q0 -287 -123 -437.5t-357 -150.5q-233 0 -356 150.5t-123 437.5q0 286 123 437t356 151zM616 991q-140 0 -212 -109t-72 -323q0 -213 72 -322.5t212 -109.5q141 0 213 109.5t72 322.5q0 214 -72 323 t-213 109z" unicode="ō"/>
<glyph glyph-name="Obreve" d="M303 1901h119q12 -54 62 -82.5t132 -28.5q83 0 131.5 27.5t63.5 83.5h119q-11 -119 -90.5 -180.5t-223.5 -61.5t-223 61t-90 181zM1116 745q0 -390 -123.5 -582t-376.5 -192t-376 191t-123 583q0 391 123.5 583t375.5 192q253 0 376.5 -192t123.5 -583zM905 745 q0 329 -67.5 470t-221.5 141q-153 0 -220.5 -141t-67.5 -470q0 -328 67.5 -469t220.5 -141q154 0 221.5 140.5t67.5 469.5z" unicode="Ŏ"/>
<glyph glyph-name="obreve" d="M303 1608h119q11 -76 59 -113t135 -37q85 0 133 37t62 113h119q-11 -143 -90 -215t-224 -72q-144 0 -223 72t-90 215zM616 1147q233 0 356.5 -151t123.5 -437q0 -287 -123 -437.5t-357 -150.5q-233 0 -356 150.5t-123 437.5q0 286 123 437t356 151zM616 991 q-140 0 -212 -109t-72 -323q0 -213 72 -322.5t212 -109.5q141 0 213 109.5t72 322.5q0 214 -72 323t-213 109z" unicode="ŏ"/>
<glyph glyph-name="Ohungarumlaut" d="M541 1899h186l-229 -264h-154zM860 1899h186l-229 -264h-154zM1116 745q0 -390 -123.5 -582t-376.5 -192t-376 191t-123 583q0 391 123.5 583t375.5 192q253 0 376.5 -192t123.5 -583zM905 745q0 329 -67.5 470t-221.5 141q-153 0 -220.5 -141t-67.5 -470 q0 -328 67.5 -469t220.5 -141q154 0 221.5 140.5t67.5 469.5z" unicode="Ő"/>
<glyph glyph-name="ohungarumlaut" d="M868 1638h179l-248 -376h-135zM535 1638h170l-224 -376h-137zM616 1147q233 0 356.5 -151t123.5 -437q0 -287 -123 -437.5t-357 -150.5q-233 0 -356 150.5t-123 437.5q0 286 123 437t356 151zM616 991q-140 0 -212 -109t-72 -323q0 -213 72 -322.5t212 -109.5 q141 0 213 109.5t72 322.5q0 214 -72 323t-213 109z" unicode="ő"/>
<glyph glyph-name="OE" d="M590 1323q-177 0 -246.5 -115t-69.5 -463q0 -346 69.5 -460.5t246.5 -114.5h61v1153h-61zM1217 170v-170h-605q-295 0 -417.5 166.5t-122.5 578.5q0 417 122 582.5t418 165.5h594v-170h-358v-442h328v-170h-328v-541h369z" unicode="Œ"/>
<glyph glyph-name="oe" d="M1210 514h-491v-84q0 -163 49.5 -235t161.5 -72q80 0 145.5 26.5t112.5 77.5v-172q-59 -43 -121.5 -63.5t-136.5 -20.5q-98 0 -171.5 33.5t-121.5 99.5q-52 -68 -116 -100.5t-148 -32.5q-189 0 -274 138t-85 450t85 450t274 138q89 0 153 -31t111 -96q37 62 102 94.5 t152 32.5q175 0 247 -118.5t72 -424.5v-90zM373 123q102 0 143 84t41 323q0 291 -40 378t-144 87q-103 0 -143 -83.5t-40 -352.5t40 -352.5t143 -83.5zM1047 657q0 11 1 30t1 28q0 145 -40 212.5t-126 67.5q-87 0 -125.5 -68.5t-38.5 -226.5v-43h328z" unicode="œ"/>
<glyph glyph-name="Racute" d="M597 1899h186l-229 -264h-154zM346 1327v-530h221q145 0 216 65t71 199q0 129 -75.5 197.5t-219.5 68.5h-213zM760 705q78 -20 133 -75.5t137 -221.5l203 -408h-217l-178 377q-77 161 -138.5 207.5t-160.5 46.5h-193v-631h-203v1493h416q246 0 377 -111t131 -321 q0 -148 -80.5 -241.5t-226.5 -114.5z" unicode="Ŕ"/>
<glyph glyph-name="racute" d="M962 1645h198l-325 -376h-154zM1155 889q-59 46 -120 67t-134 21q-172 0 -263 -108t-91 -312v-557h-185v1120h185v-219q46 119 141.5 182.5t226.5 63.5q68 0 127 -17t113 -53v-188z" unicode="ŕ"/>
<glyph glyph-name="Rcommaaccent" d="M616 -199h239l-187 -345h-146zM346 1327v-530h221q145 0 216 65t71 199q0 129 -75.5 197.5t-219.5 68.5h-213zM760 705q78 -20 133 -75.5t137 -221.5l203 -408h-217l-178 377q-77 161 -138.5 207.5t-160.5 46.5h-193v-631h-203v1493h416q246 0 377 -111t131 -321 q0 -148 -80.5 -241.5t-226.5 -114.5z" unicode="Ŗ"/>
<glyph glyph-name="rcommaaccent" d="M382 -199h239l-187 -345h-146zM1155 889q-59 46 -120 67t-134 21q-172 0 -263 -108t-91 -312v-557h-185v1120h185v-219q46 119 141.5 182.5t226.5 63.5q68 0 127 -17t113 -53v-188z" unicode="ŗ"/>
<glyph glyph-name="Rcaron" d="M346 1327v-530h221q145 0 216 65t71 199q0 129 -75.5 197.5t-219.5 68.5h-213zM760 705q78 -20 133 -75.5t137 -221.5l203 -408h-217l-178 377q-77 161 -138.5 207.5t-160.5 46.5h-193v-631h-203v1493h416q246 0 377 -111t131 -321q0 -148 -80.5 -241.5t-226.5 -114.5z M462 1629l-211 266h140l165 -178l166 178h140l-211 -266h-189z" unicode="Ř"/>
<glyph glyph-name="rcaron" d="M1155 889q-59 46 -120 67t-134 21q-172 0 -263 -108t-91 -312v-557h-185v1120h185v-219q46 119 141.5 182.5t226.5 63.5q68 0 127 -17t113 -53v-188zM633 1262l-246 376h139l180 -245l181 245h139l-246 -376h-147z" unicode="ř"/>
<glyph glyph-name="Sacute" d="M697 1899h186l-229 -264h-154zM1012 1442v-205q-92 59 -184.5 89t-186.5 30q-143 0 -226 -66.5t-83 -179.5q0 -99 54.5 -151t203.5 -87l106 -24q210 -49 306 -154t96 -286q0 -213 -132 -325t-384 -112q-105 0 -211 22.5t-213 67.5v215q115 -73 217.5 -107t206.5 -34 q153 0 238 68.5t85 191.5q0 112 -58.5 171t-203.5 91l-108 25q-208 47 -302 142t-94 255q0 200 134.5 320.5t357.5 120.5q86 0 181 -19.5t200 -58.5z" unicode="Ś"/>
<glyph glyph-name="sacute" d="M782 1645h198l-325 -376h-154zM973 1081v-180q-79 46 -159 69t-163 23q-125 0 -186.5 -40.5t-61.5 -123.5q0 -75 46 -112t229 -72l74 -14q137 -26 207.5 -104t70.5 -203q0 -166 -118 -259.5t-328 -93.5q-83 0 -174 17.5t-197 52.5v190q103 -53 197 -79.5t178 -26.5 q122 0 189 49.5t67 138.5q0 128 -245 177l-8 2l-69 14q-159 31 -232 104.5t-73 200.5q0 161 109 248.5t311 87.5q90 0 173 -16.5t163 -49.5z" unicode="ś"/>
<glyph glyph-name="Scircumflex" d="M522 1901h189l211 -266h-140l-166 178l-165 -178h-140zM1012 1442v-205q-92 59 -184.5 89t-186.5 30q-143 0 -226 -66.5t-83 -179.5q0 -99 54.5 -151t203.5 -87l106 -24q210 -49 306 -154t96 -286q0 -213 -132 -325t-384 -112q-105 0 -211 22.5t-213 67.5v215 q115 -73 217.5 -107t206.5 -34q153 0 238 68.5t85 191.5q0 112 -58.5 171t-203.5 91l-108 25q-208 47 -302 142t-94 255q0 200 134.5 320.5t357.5 120.5q86 0 181 -19.5t200 -58.5z" unicode="Ŝ"/>
<glyph glyph-name="scircumflex" d="M543 1638h147l246 -376h-139l-181 245l-180 -245h-139zM973 1081v-180q-79 46 -159 69t-163 23q-125 0 -186.5 -40.5t-61.5 -123.5q0 -75 46 -112t229 -72l74 -14q137 -26 207.5 -104t70.5 -203q0 -166 -118 -259.5t-328 -93.5q-83 0 -174 17.5t-197 52.5v190 q103 -53 197 -79.5t178 -26.5q122 0 189 49.5t67 138.5q0 128 -245 177l-8 2l-69 14q-159 31 -232 104.5t-73 200.5q0 161 109 248.5t311 87.5q90 0 173 -16.5t163 -49.5z" unicode="ŝ"/>
<glyph glyph-name="Scedilla" d="M700 0q56 -62 82.5 -114.5t26.5 -100.5q0 -89 -60 -134.5t-178 -45.5q-45 0 -88.5 6t-87.5 18v131q34 -17 71.5 -24.5t84.5 -7.5q58 0 88.5 24t30.5 70q0 30 -22 73.5t-66 104.5h118zM1012 1442v-205q-92 59 -184.5 89t-186.5 30q-143 0 -226 -66.5t-83 -179.5 q0 -99 54.5 -151t203.5 -87l106 -24q210 -49 306 -154t96 -286q0 -213 -132 -325t-384 -112q-105 0 -211 22.5t-213 67.5v215q115 -73 217.5 -107t206.5 -34q153 0 238 68.5t85 191.5q0 112 -58.5 171t-203.5 91l-108 25q-208 47 -302 142t-94 255q0 200 134.5 320.5 t357.5 120.5q86 0 181 -19.5t200 -58.5z" unicode="Ş"/>
<glyph glyph-name="scedilla" d="M700 0q56 -62 82.5 -114.5t26.5 -100.5q0 -89 -60 -134.5t-178 -45.5q-45 0 -88.5 6t-87.5 18v131q34 -17 71.5 -24.5t84.5 -7.5q58 0 88.5 24t30.5 70q0 30 -22 73.5t-66 104.5h118zM973 1081v-180q-79 46 -159 69t-163 23q-125 0 -186.5 -40.5t-61.5 -123.5 q0 -75 46 -112t229 -72l74 -14q137 -26 207.5 -104t70.5 -203q0 -166 -118 -259.5t-328 -93.5q-83 0 -174 17.5t-197 52.5v190q103 -53 197 -79.5t178 -26.5q122 0 189 49.5t67 138.5q0 128 -245 177l-8 2l-69 14q-159 31 -232 104.5t-73 200.5q0 161 109 248.5t311 87.5 q90 0 173 -16.5t163 -49.5z" unicode="ş"/>
<glyph glyph-name="Scaron" d="M1012 1442v-205q-92 59 -184.5 89t-186.5 30q-143 0 -226 -66.5t-83 -179.5q0 -99 54.5 -151t203.5 -87l106 -24q210 -49 306 -154t96 -286q0 -213 -132 -325t-384 -112q-105 0 -211 22.5t-213 67.5v215q115 -73 217.5 -107t206.5 -34q153 0 238 68.5t85 191.5 q0 112 -58.5 171t-203.5 91l-108 25q-208 47 -302 142t-94 255q0 200 134.5 320.5t357.5 120.5q86 0 181 -19.5t200 -58.5zM522 1635l-211 266h140l165 -178l166 178h140l-211 -266h-189z" unicode="Š"/>
<glyph glyph-name="scaron" d="M973 1081v-180q-79 46 -159 69t-163 23q-125 0 -186.5 -40.5t-61.5 -123.5q0 -75 46 -112t229 -72l74 -14q137 -26 207.5 -104t70.5 -203q0 -166 -118 -259.5t-328 -93.5q-83 0 -174 17.5t-197 52.5v190q103 -53 197 -79.5t178 -26.5q122 0 189 49.5t67 138.5 q0 128 -245 177l-8 2l-69 14q-159 31 -232 104.5t-73 200.5q0 161 109 248.5t311 87.5q90 0 173 -16.5t163 -49.5zM543 1262l-246 376h139l180 -245l181 245h139l-246 -376h-147z" unicode="š"/>
<glyph glyph-name="Tcommaaccent" d="M700 0q56 -62 82.5 -114.5t26.5 -100.5q0 -89 -60 -134.5t-178 -45.5q-45 0 -88.5 6t-87.5 18v131q34 -17 71.5 -24.5t84.5 -7.5q58 0 88.5 24t30.5 70q0 30 -22 73.5t-66 104.5h118zM47 1493h1139v-170h-467v-1323h-203v1323h-469v170z" unicode="Ţ"/>
<glyph glyph-name="tcommaaccent" d="M821 0q56 -62 82.5 -114.5t26.5 -100.5q0 -89 -60 -134.5t-178 -45.5q-45 0 -88.5 6t-87.5 18v131q34 -17 71.5 -24.5t84.5 -7.5q58 0 88.5 24t30.5 70q0 30 -22 73.5t-66 104.5h118zM614 1438v-318h418v-143h-418v-608q0 -124 47 -173t164 -49h207v-147h-225 q-207 0 -292 83t-85 286v608h-299v143h299v318h184z" unicode="ţ"/>
<glyph glyph-name="Tcaron" d="M47 1493h1139v-170h-467v-1323h-203v1323h-469v170zM528 1635l-211 266h140l165 -178l166 178h140l-211 -266h-189z" unicode="Ť"/>
<glyph glyph-name="tcaron" d="M614 1438v-318h418v-143h-418v-608q0 -124 47 -173t164 -49h207v-147h-225q-207 0 -292 83t-85 286v608h-299v143h299v318h184zM820 1662h198l-113 -376h-154z" unicode="ť"/>
<glyph glyph-name="Tbar" d="M47 1493h1139v-170h-467v-576h265v-170h-265v-577h-203v577h-265v170h265v576h-469v170z" unicode="Ŧ"/>
<glyph glyph-name="tbar" d="M614 1438v-318h418v-143h-418v-233h229v-142h-229v-233q0 -124 47 -173t164 -49h207v-147h-225q-207 0 -292 83t-85 286v233h-229v142h229v233h-299v143h299v318h184z" unicode="ŧ"/>
<glyph glyph-name="Utilde" d="M612 1710l-57 33q-25 14 -40.5 19.5t-27.5 5.5q-35 0 -55 -25t-20 -70v-6h-125q0 101 51.5 160t136.5 59q36 0 66.5 -8t79.5 -35l57 -30q22 -13 39.5 -19t32.5 -6q31 0 51 25.5t20 66.5v6h125q-2 -100 -53 -159.5t-135 -59.5q-34 0 -64 8t-82 35zM147 573v920h203v-1012 q0 -109 6 -155.5t21 -71.5q32 -59 92.5 -89t146.5 -30q87 0 147 30t93 89q15 25 21 71t6 154v1014h202v-920q0 -229 -28.5 -325.5t-98.5 -159.5q-66 -59 -151 -88t-191 -29q-105 0 -190 29t-152 88q-69 62 -98 160.5t-29 324.5z" unicode="Ũ"/>
<glyph glyph-name="utilde" d="M612 1370l-57 55q-21 20 -37.5 29.5t-30.5 9.5q-38 0 -56 -37t-20 -118h-124q1 134 52 208t142 74q39 0 71 -14t69 -47l57 -55q21 -20 37.5 -29.5t29.5 -9.5q39 0 57 37t19 118h125q-1 -134 -52 -208t-142 -74q-39 0 -71 14t-69 47zM195 424v694h184v-694 q0 -151 53.5 -222t165.5 -71q130 0 199 91.5t69 262.5v633h185v-1118h-185v168q-49 -97 -133.5 -147t-197.5 -50q-172 0 -256 112.5t-84 340.5z" unicode="ũ"/>
<glyph glyph-name="Umacron" d="M317 1840h598v-148h-598v148zM147 573v920h203v-1012q0 -109 6 -155.5t21 -71.5q32 -59 92.5 -89t146.5 -30q87 0 147 30t93 89q15 25 21 71t6 154v1014h202v-920q0 -229 -28.5 -325.5t-98.5 -159.5q-66 -59 -151 -88t-191 -29q-105 0 -190 29t-152 88q-69 62 -98 160.5 t-29 324.5z" unicode="Ū"/>
<glyph glyph-name="umacron" d="M317 1526h598v-148h-598v148zM195 424v694h184v-694q0 -151 53.5 -222t165.5 -71q130 0 199 91.5t69 262.5v633h185v-1118h-185v168q-49 -97 -133.5 -147t-197.5 -50q-172 0 -256 112.5t-84 340.5z" unicode="ū"/>
<glyph glyph-name="Ubreve" d="M303 1901h119q12 -54 62 -82.5t132 -28.5q83 0 131.5 27.5t63.5 83.5h119q-11 -119 -90.5 -180.5t-223.5 -61.5t-223 61t-90 181zM147 573v920h203v-1012q0 -109 6 -155.5t21 -71.5q32 -59 92.5 -89t146.5 -30q87 0 147 30t93 89q15 25 21 71t6 154v1014h202v-920 q0 -229 -28.5 -325.5t-98.5 -159.5q-66 -59 -151 -88t-191 -29q-105 0 -190 29t-152 88q-69 62 -98 160.5t-29 324.5z" unicode="Ŭ"/>
<glyph glyph-name="ubreve" d="M303 1608h119q11 -76 59 -113t135 -37q85 0 133 37t62 113h119q-11 -143 -90 -215t-224 -72q-144 0 -223 72t-90 215zM195 424v694h184v-694q0 -151 53.5 -222t165.5 -71q130 0 199 91.5t69 262.5v633h185v-1118h-185v168q-49 -97 -133.5 -147t-197.5 -50 q-172 0 -256 112.5t-84 340.5z" unicode="ŭ"/>
<glyph glyph-name="Uring" d="M147 573v920h203v-1012q0 -109 6 -155.5t21 -71.5q32 -59 92.5 -89t146.5 -30q87 0 147 30t93 89q15 25 21 71t6 154v1014h202v-920q0 -229 -28.5 -325.5t-98.5 -159.5q-66 -59 -151 -88t-191 -29q-105 0 -190 29t-152 88q-69 62 -98 160.5t-29 324.5zM778 1859 q0 63 -44 107t-108 44t-107.5 -43.5t-43.5 -107.5q0 -65 43.5 -108.5t107.5 -43.5t108 44t44 108zM901 1859q0 -115 -79.5 -195t-195.5 -80q-115 0 -194.5 80t-79.5 195t79.5 194.5t194.5 79.5q116 0 195.5 -79.5t79.5 -194.5z" unicode="Ů"/>
<glyph glyph-name="uring" d="M195 424v694h184v-694q0 -151 53.5 -222t165.5 -71q130 0 199 91.5t69 262.5v633h185v-1118h-185v168q-49 -97 -133.5 -147t-197.5 -50q-172 0 -256 112.5t-84 340.5zM783 1479q0 63 -44 107t-108 44t-107.5 -43.5t-43.5 -107.5q0 -65 43.5 -108.5t107.5 -43.5t108 44 t44 108zM906 1479q0 -115 -79.5 -195t-195.5 -80q-115 0 -194.5 80t-79.5 195t79.5 194.5t194.5 79.5q116 0 195.5 -79.5t79.5 -194.5z" unicode="ů"/>
<glyph glyph-name="Uhungarumlaut" d="M541 1899h186l-229 -264h-154zM860 1899h186l-229 -264h-154zM147 573v920h203v-1012q0 -109 6 -155.5t21 -71.5q32 -59 92.5 -89t146.5 -30q87 0 147 30t93 89q15 25 21 71t6 154v1014h202v-920q0 -229 -28.5 -325.5t-98.5 -159.5q-66 -59 -151 -88t-191 -29 q-105 0 -190 29t-152 88q-69 62 -98 160.5t-29 324.5z" unicode="Ű"/>
<glyph glyph-name="uhungarumlaut" d="M868 1638h179l-248 -376h-135zM535 1638h170l-224 -376h-137zM195 424v694h184v-694q0 -151 53.5 -222t165.5 -71q130 0 199 91.5t69 262.5v633h185v-1118h-185v168q-49 -97 -133.5 -147t-197.5 -50q-172 0 -256 112.5t-84 340.5z" unicode="ű"/>
<glyph glyph-name="Uogonek" d="M147 573v920h203v-1012q0 -109 6 -155.5t21 -71.5q32 -59 92.5 -89t146.5 -30q87 0 147 30t93 89q15 25 21 71t6 154v1014h202v-920q0 -229 -28.5 -325.5t-98.5 -159.5q-66 -59 -151 -88t-191 -29q-105 0 -190 29t-152 88q-69 62 -98 160.5t-29 324.5zM556 -16h119 q-45 -61 -66.5 -105t-21.5 -75q0 -46 27.5 -69t81.5 -23q32 0 63 7.5t62 22.5v-133q-38 -10 -72 -15t-64 -5q-122 0 -179.5 43.5t-57.5 136.5q0 48 26.5 100.5t81.5 114.5z" unicode="Ų"/>
<glyph glyph-name="uogonek" d="M195 424v694h184v-694q0 -151 53.5 -222t165.5 -71q130 0 199 91.5t69 262.5v633h185v-1118h-185v168q-49 -97 -133.5 -147t-197.5 -50q-172 0 -256 112.5t-84 340.5zM935 0h119q-45 -61 -66.5 -105t-21.5 -75q0 -46 27.5 -69t81.5 -23q32 0 63 7.5t62 22.5v-133 q-38 -10 -72 -15t-64 -5q-122 0 -179.5 43.5t-57.5 136.5q0 48 26.5 100.5t81.5 114.5z" unicode="ų"/>
<glyph glyph-name="Wcircumflex" d="M522 1908h189l211 -266h-140l-166 178l-165 -178h-140zM0 1493h197l143 -1212l170 802h211l172 -804l143 1214h197l-223 -1493h-191l-203 887l-202 -887h-191z" unicode="Ŵ"/>
<glyph glyph-name="wcircumflex" d="M543 1645h147l246 -376h-139l-181 245l-180 -245h-139zM0 1120h182l195 -905l160 578h157l162 -578l195 905h182l-262 -1120h-176l-179 614l-178 -614h-176z" unicode="ŵ"/>
<glyph glyph-name="Ycircumflex" d="M522 1908h189l211 -266h-140l-166 178l-165 -178h-140zM37 1493h215l364 -659l363 659h217l-479 -823v-670h-203v670z" unicode="Ŷ"/>
<glyph glyph-name="ycircumflex" d="M555 1645h147l246 -376h-139l-181 245l-180 -245h-139zM858 360q-46 -117 -117 -308q-99 -264 -133 -322q-46 -78 -115 -117t-161 -39h-148v154h109q81 0 127 47t117 243l-433 1102h195l332 -876l327 876h195z" unicode="ŷ"/>
<glyph glyph-name="Ydieresis" d="M37 1493h215l364 -659l363 659h217l-479 -823v-670h-203v670zM711 1870h202v-203h-202v203zM319 1870h203v-203h-203v203z" unicode="Ÿ"/>
<glyph glyph-name="Zacute" d="M699 1899h186l-229 -264h-154zM178 1493h969v-154l-780 -1169h802v-170h-1013v154l759 1169h-737v170z" unicode="Ź"/>
<glyph glyph-name="zacute" d="M842 1645h198l-325 -376h-154zM227 1122h813v-168l-643 -804h643v-150h-837v170l643 805h-619v147z" unicode="ź"/>
<glyph glyph-name="Zdotaccent" d="M563 1872h205v-205h-205v205zM178 1493h969v-154l-780 -1169h802v-170h-1013v154l759 1169h-737v170z" unicode="Ż"/>
<glyph glyph-name="zdotaccent" d="M513 1552h205v-204h-205v204zM227 1122h813v-168l-643 -804h643v-150h-837v170l643 805h-619v147z" unicode="ż"/>
<glyph glyph-name="Zcaron" d="M178 1493h969v-154l-780 -1169h802v-170h-1013v154l759 1169h-737v170zM522 1635l-211 266h140l165 -178l166 178h140l-211 -266h-189z" unicode="Ž"/>
<glyph glyph-name="zcaron" d="M227 1122h813v-168l-643 -804h643v-150h-837v170l643 805h-619v147zM543 1262l-246 376h139l180 -245l181 245h139l-246 -376h-147z" unicode="ž"/>
<glyph glyph-name="longs" d="M678 1219v-1219h-184v977h-299v143h299v78q0 184 84.5 271t263.5 87h221v-153h-209q-99 0 -137.5 -40.5t-38.5 -143.5z" unicode="ſ"/>
<glyph glyph-name="uni0180" d="M918 559q0 214 -68 323t-201 109q-134 0 -203 -109.5t-69 -322.5q0 -212 69 -322t203 -110q133 0 201 109t68 323zM377 977q44 82 121.5 126t179.5 44q202 0 318 -155.5t116 -428.5q0 -277 -116.5 -434.5t-319.5 -157.5q-100 0 -176.5 43.5t-122.5 126.5v-141h-184v1270 h-123v164h123v122h184v-122h2h353v-164h-353h-2v-293z" unicode="ƀ"/>
<glyph glyph-name="uni0181" d="M338 1493h322q229 0 353 -99t124 -280q0 -137 -65.5 -216t-196.5 -99q147 -22 230.5 -125.5t83.5 -263.5q0 -203 -133 -306.5t-396 -103.5h-322v1327q-62 0 -112 -43.5t-50 -155.5v-49h-156v70q0 159 84.5 251.5t233.5 92.5zM540 1327v-450h116q146 0 211.5 56t65.5 181 q0 113 -64.5 163t-212.5 50h-116zM540 713v-547h120q176 0 251 61.5t75 202.5q0 146 -79 214.5t-247 68.5h-120z" unicode="Ɓ"/>
<glyph glyph-name="uni0182" d="M1068 1327h-699v-450h235q379 -15 480 -206q53 -100 53 -261q0 -203 -133 -306q-133 -104 -396 -104h-442v1493h902v-166zM369 713v-547h239q176 0 251 61.5t75 202.5q0 146 -79 214.5t-247 68.5h-239z" unicode="Ƃ"/>
<glyph glyph-name="uni0183" d="M918 559q0 214 -68 323t-201 109q-134 0 -203 -109.5t-69 -322.5q0 -212 69 -322t203 -110q133 0 201 109t68 323zM377 977q44 82 121.5 126t179.5 44q202 0 318 -155.5t116 -428.5q0 -277 -116.5 -434.5t-319.5 -157.5q-100 0 -176.5 43.5t-122.5 126.5v-141h-184v1556 h752v-184h-568v-395z" unicode="ƃ"/>
<glyph glyph-name="uni0184" d="M417 877h235q379 -15 480 -206q53 -100 53 -261q0 -203 -133 -306q-133 -104 -396 -104h-442v948l-166 228l369 317v-616zM417 713v-547h239q176 0 251 62q75 61 75 202q0 146 -79 214q-79 69 -247 69h-239z" unicode="Ƅ"/>
<glyph glyph-name="uni0185" d="M438 977q44 82 121 126t179 44q202 0 318 -155q116 -156 116 -429q0 -277 -116 -435q-116 -157 -320 -157q-100 0 -176 43q-76 44 -122 127v-141h-184v948l-194 228l378 380v-579zM978 559q0 214 -68 323t-200 109q-134 0 -204 -109q-68 -110 -68 -323q0 -212 68 -322 q70 -110 204 -110q132 0 200 109t68 323z" unicode="ƅ"/>
<glyph glyph-name="uni0186" d="M139 1438q77 41 158 61.5t172 20.5q285 0 444.5 -204.5t159.5 -570.5q0 -368 -158.5 -571t-445.5 -203q-91 0 -172 20.5t-158 61.5v207q73 -61 157.5 -93t172.5 -32q197 0 295 152t98 458q0 307 -98 459t-295 152q-86 0 -171 -32t-159 -93v207z" unicode="Ɔ"/>
<glyph glyph-name="uni0187" d="M994 53q-77 -41 -158 -61.5t-172 -20.5q-287 0 -445.5 203t-158.5 571q0 298 159.5 502.5t444.5 204.5q90 0 169 -20q23 51 65 101q90 106 255 106h20v-156q-84 0 -135 -62q-44 -53 -44 -188v-70q-74 61 -159 93t-171 32q-197 0 -295 -152t-98 -391q0 -306 98 -458 t295 -152q88 0 172.5 32t157.5 93v-207z" unicode="Ƈ"/>
<glyph glyph-name="uni0188" d="M960 57q-74 -43 -152.5 -64.5t-160.5 -21.5q-260 0 -406.5 156t-146.5 432t146.5 432t406.5 156q70 0 137 -16q19 114 80 185q90 106 255 106h20v-156q-90 0 -135 -62q-44 -62 -44 -188v-148q-73 65 -146.5 94t-166.5 29q-173 0 -266 -112t-93 -320q0 -207 93.5 -319.5 t265.5 -112.5q96 0 172 29.5t141 91.5v-191z" unicode="ƈ"/>
<glyph glyph-name="uni0189" d="M436 166q255 0 356 125.5t101 453.5q0 331 -100.5 456.5t-356.5 125.5h-96v-469h264v-149h-264v-543h96zM436 1493q342 0 504 -182t162 -566q0 -382 -162.5 -563.5t-503.5 -181.5h-303v709h-125v149h125v635h303z" unicode="Ɖ"/>
<glyph glyph-name="uni018A" d="M555 166q255 0 356 125.5t101 453.5q0 331 -100.5 456.5t-356.5 125.5h-26v-1161h26zM326 1493h233q342 0 504 -182t162 -566q0 -382 -162 -563.5t-504 -181.5h-233v1327q-54 0 -114 -47q-48 -38 -48 -152v-49h-156v70q0 181 96 262.5t222 81.5z" unicode="Ɗ"/>
<glyph glyph-name="uni018B" d="M200 1327v166h902v-1493h-442q-263 0 -396 103.5t-133 306.5q0 161 53 261q101 191 480 206h235v450h-699zM899 713h-239q-168 0 -247 -68.5t-79 -214.5q0 -141 75 -202.5t251 -61.5h239v547z" unicode="Ƌ"/>
<glyph glyph-name="uni018C" d="M324 1372v184h752v-1556h-184v141q-46 -83 -122.5 -126.5t-176.5 -43.5q-203 0 -319.5 157.5t-116.5 434.5q0 273 116 428.5t318 155.5q102 0 179.5 -44t121.5 -126v395h-568zM351 559q0 -214 68 -323t201 -109q134 0 203 110t69 322q0 213 -69 322.5t-203 109.5 q-133 0 -201 -109t-68 -323z" unicode="ƌ"/>
<glyph glyph-name="uni018D" d="M898 51q19 -9 59 -49q62 -61 62 -153q0 -136 -118 -218q-119 -82 -316 -82q-102 0 -152 12l-151 36v173q66 -24 136 -39q75 -15 148 -15h19l32 1q73 2 133 45l39 28q27 24 27 70q0 33 -13 52q-17 24 -58 45q-24 13 -129 14q-235 3 -356 151q-124 151 -124 437 q0 287 123 437.5t357 150.5q233 0 356 -150.5t123 -437.5q0 -286 -123 -437q-31 -38 -74 -71zM616 127q140 0 212 109t72 323q0 213 -72 322.5t-212 109.5q-141 0 -213 -109.5t-72 -322.5q0 -214 72 -323t213 -109z" unicode="ƍ"/>
<glyph glyph-name="uni018E" d="M1102 1493v-1493h-905v170h703v541h-654v170h654v442h-684v170h886z" unicode="Ǝ"/>
<glyph glyph-name="uni018F" d="M332 644q0 -248 70 -378.5t218 -130.5t211 127.5t72 381.5h-571zM117 745v83h787v8q0 241 -69 380.5t-219 139.5q-86 0 -171 -32t-159 -93v207q77 41 158 61.5t172 20.5q253 0 376.5 -192t123.5 -583q0 -390 -123.5 -582t-376.5 -192t-376 191t-123 583z" unicode="Ə"/>
<glyph glyph-name="uni0190" d="M440 799q-131 34 -199.5 115t-68.5 204q0 181 130.5 291.5t348.5 110.5q73 0 167.5 -16t215.5 -48v-186q-104 40 -199 60t-184 20q-134 0 -206.5 -61.5t-72.5 -176.5q0 -109 78 -170t217 -61h154v-166h-154q-152 0 -241 -76.5t-89 -206.5q0 -141 89 -216t255 -75 q98 0 197 26t201 79v-201q-103 -36 -210 -55t-210 -19q-245 0 -383.5 117.5t-138.5 323.5q0 149 78 248.5t225 138.5z" unicode="Ɛ"/>
<glyph glyph-name="uni0191" d="M380 1493h790v-170h-587v-440h524v-170h-524v-733q0 -195 -89 -300q-90 -106 -255 -106h-176v156h138q90 0 135 62q44 62 44 188v1513z" unicode="Ƒ"/>
<glyph glyph-name="florin" d="M1063 1556v-153h-209h-2q-97 0 -136 -41q-38 -40 -38 -143v-99h385v-143h-385v-997q0 -214 -81 -310q-82 -96 -263 -96h-70v156h49q105 0 143 48q38 49 38 202l-2 997h-297v143h296v78q0 180 87 272q37 39 97 60q70 26 167 26h9h3h209z" unicode="ƒ"/>
<glyph glyph-name="uni0193" d="M1054 123q-82 -75 -183 -113.5t-219 -38.5q-284 0 -442 203.5t-158 570.5q0 366 160 570.5t444 204.5q94 0 180 -26l34 -12q15 26 36 51q90 106 256 106h19v-156q-84 0 -135 -62q-43 -54 -44 -188v-27q-80 77 -165 113.5t-181 36.5q-196 0 -295 -152.5t-99 -458.5 q0 -311 96 -460.5t294 -149.5q66 0 117 15.5t91 48.5v401h-216v166h410v-643z" unicode="Ɠ"/>
<glyph glyph-name="uni0194" d="M600 495q-198 -301 -198 -625q0 -138 216 -138q204 0 204 138q0 325 -222 625zM730 650q324 -449 324 -844q0 -236 -416 -236q-440 0 -440 236q0 367 294 851l-464 696h216l372 -555l372 555h218z" unicode="Ɣ"/>
<glyph glyph-name="uni0195" d="M755 694v-288h-1q0 -153 34 -202q35 -48 85 -48h8q19 2 73 75q47 66 47 222v411h167v-411q0 -228 -76 -340.5t-230 -112.5q-127 0 -201 96q-73 96 -73 310v288q0 151 -47.5 222t-113.5 71q-71 0 -133.5 -91.5t-62.5 -262.5v-633h-166v1556h166v-604q77 134 94 146 q75 49 160 49q118 0 194 -112.5t76 -340.5z" unicode="ƕ"/>
<glyph glyph-name="uni0196" d="M514 1323h-313v170h829v-170h-313v-902q0 -127 44 -188q45 -62 135 -62h185l1 -171h-217q-170 0 -262 106q-89 102 -89 300v917z" unicode="Ɩ"/>
<glyph glyph-name="uni0197" d="M201 1493h829v-170h-313v-576h2h265v-170h-265h-2v-407h313v-170h-829v170h313v407h-263v170h263v576h-313v170z" unicode="Ɨ"/>
<glyph glyph-name="uni0198" d="M647 1180q161 170 266 182q21 3 41 3q126 0 218 -99l47 -51l-106 -114l-33 37q-45 51 -105 51q-17 0 -36 -4q-66 -15 -175 -130l-164 -172l598 -883h-244l-487 748l-154 -164v-584h-203v1493h203v-664z" unicode="Ƙ"/>
<glyph glyph-name="uni0199" d="M236 1002v148q0 195 89 300q90 106 255 106h205v-156h-185q-90 0 -135 -62q-44 -62 -44 -188h5v-495l483 465h224l-441 -422l510 -698h-225l-414 578l-137 -129v-449h-190v1002z" unicode="ƙ"/>
<glyph glyph-name="uni019A" d="M639 406q0 -124 45.5 -187t134.5 -63h215v-156h-233q-165 0 -255.5 106t-90.5 300v196h-228v142h228v679h-295v144h479v-823h9h221v-142h-221h-9v-196z" unicode="ƚ"/>
<glyph glyph-name="uni019B" d="M579 1213l348 242l80 -110l-371 -258l497 -1087h-191l-321 704l-330 -704h-191l425 913l-34 74l-362 -251l-80 111l385 266l-174 380h191z" unicode="ƛ"/>
<glyph glyph-name="uni019C" d="M568 114q-34 -72 -86.5 -106.5t-126.5 -34.5q-135 0 -190.5 104.5t-55.5 393.5v1022h168v-1014q0 -237 26.5 -294.5t96.5 -57.5q80 0 109.5 61.5t29.5 290.5v1014h168v-1014q0 -240 28.5 -296t102.5 -56q73 0 101.5 61.5t28.5 290.5v1014h167v-1493h-167v96 q-33 -60 -82.5 -91.5t-112.5 -31.5q-76 0 -126.5 35t-78.5 106z" unicode="Ɯ"/>
<glyph glyph-name="uni019D" d="M190 1493h230l454 -1229v1229h175v-1493h-230l-453 1229v-1249q0 -195 -81 -300q-81 -106 -229 -106h-27v156q81 0 121 62q40 61 40 188v1513z" unicode="Ɲ"/>
<glyph glyph-name="uni019E" d="M1051 694v-1124h-185v1124q0 151 -53 222t-166 71q-129 0 -198.5 -91.5t-69.5 -262.5v-633h-184v1120h184v-168q49 96 133 145.5t199 49.5q171 0 255.5 -112.5t84.5 -340.5z" unicode="ƞ"/>
<glyph glyph-name="uni019F" d="M330 644q9 -250 66 -368q67 -141 220 -141q154 0 222 141q56 117 65 368h-573zM904 828q-8 264 -66 387q-68 141 -222 141q-153 0 -220 -141q-59 -123 -67 -387h575zM1116 745q0 -390 -123.5 -582t-376.5 -192t-376 191t-123 583q0 391 123.5 583t375.5 192 q253 0 376.5 -192t123.5 -583z" unicode="Ɵ"/>
<glyph glyph-name="Ohorn" d="M796 1292v119q61 -45 105 -66.5t75 -21.5q46 0 69 27.5t23 81.5q0 32 -7.5 63t-22.5 62h133q10 -38 15 -72t5 -64q0 -122 -43.5 -179.5t-136.5 -57.5q-48 0 -100.5 26.5t-114.5 81.5zM1005 745q0 -390 -123.5 -582t-376.5 -192t-376 191t-123 583q0 391 123.5 583 t375.5 192q253 0 376.5 -192t123.5 -583zM794 745q0 329 -67.5 470t-221.5 141q-153 0 -220.5 -141t-67.5 -470q0 -328 67.5 -469t220.5 -141q154 0 221.5 140.5t67.5 469.5z" unicode="Ơ"/>
<glyph glyph-name="ohorn" d="M807 872v119q61 -45 105 -66.5t75 -21.5q46 0 69 27.5t23 81.5q0 32 -7.5 63t-22.5 62h133q10 -38 15 -72t5 -64q0 -122 -43.5 -179.5t-136.5 -57.5q-48 0 -100.5 26.5t-114.5 81.5zM511 1147q233 0 356.5 -151t123.5 -437q0 -287 -123 -437.5t-357 -150.5 q-233 0 -356 150.5t-123 437.5q0 286 123 437t356 151zM511 991q-140 0 -212 -109t-72 -323q0 -213 72 -322.5t212 -109.5q141 0 213 109.5t72 322.5q0 214 -72 323t-213 109z" unicode="ơ"/>
<glyph glyph-name="uni01A2" d="M693 1215q-61 141 -199 141t-198.5 -141t-60.5 -470q0 -328 60.5 -469t198.5 -141t199 141v939zM45 745q0 672 334 761q53 14 115 14q206 0 317 -158l147 131h230v-1493h-175v1229l-180 -160v-906q-111 -192 -339 -192t-338.5 191t-110.5 583z" unicode="Ƣ"/>
<glyph glyph-name="uni01A3" d="M262 559q0 -395 215 -429q19 -3 40 -3q127 0 192 109v646q-65 109 -192 109q-206 0 -246 -286q-9 -66 -9 -146zM86 559q0 436 250 551q80 37 181 37q210 0 321 -151v-43l126 110h231v-1493h-176v1229l-181 -157v-520q-110 -151 -321 -151q-234 0 -345 188 q-86 146 -86 400z" unicode="ƣ"/>
<glyph glyph-name="uni01A4" d="M669 766q211 0 275 157q22 56 22 124q0 133 -78 206.5t-219 73.5h-93v-561h93zM1177 1047q0 -348 -312 -425q-86 -22 -196 -22h-93v-600h-202v1327q-54 0 -114 -47q-48 -38 -48 -152v-49h-156v70q0 181 96 263q96 81 222 81h295q407 0 489 -292q19 -69 19 -154z" unicode="Ƥ"/>
<glyph glyph-name="uni01A5" d="M375 977q91 164 285 170h14q203 0 318.5 -157t115.5 -435q0 -273 -116 -428.5t-318 -155.5q-102 0 -178.5 43.5t-120.5 126.5v-567h-185v1452q0 302 203 381q63 25 141 25h205v-156h-185q-169 0 -178 -221q-1 -14 -1 -29v-49zM375 559q0 -375 209 -425q29 -7 63 -7 q133 0 200.5 109t67.5 323q0 418 -251 432h-17q-214 0 -260 -273q-12 -70 -12 -159z" unicode="ƥ"/>
<glyph glyph-name="uni01A6" d="M346 1063v-530h221q145 0 216 65t71 199q0 129 -75.5 197.5t-219.5 68.5h-213zM760 441q78 -20 133 -75q54 -55 137 -222l203 -408h-217l-178 377q-77 161 -138.5 207.5t-160.5 46.5h-193v-367h-203v1493h203v-264h213q246 0 377 -111t131 -321q0 -148 -80.5 -241.5 t-226.5 -114.5z" unicode="Ʀ"/>
<glyph glyph-name="uni01A7" d="M225 1442q105 39 200 58.5t181 19.5q223 0 357.5 -120.5t134.5 -320.5q0 -160 -94 -255t-302 -142l-108 -25q-145 -32 -203.5 -91t-58.5 -171q0 -123 85 -191.5t238 -68.5q104 0 206.5 34t217.5 107v-215q-107 -45 -213 -67.5t-211 -22.5q-252 0 -384 112t-132 325 q0 181 96 286t306 154l106 24q149 35 203.5 87t54.5 151q0 113 -83 179.5t-226 66.5q-94 0 -186.5 -30t-184.5 -89v205z" unicode="Ƨ"/>
<glyph glyph-name="uni01A8" d="M270 1081q80 33 163 49.5t173 16.5q202 0 311 -87.5t109 -248.5q0 -127 -73 -200.5t-232 -104.5l-69 -14l-8 -2q-245 -49 -245 -177q0 -89 67 -138.5t189 -49.5q84 0 178 26.5t197 79.5v-190q-106 -35 -197 -52.5t-174 -17.5q-210 0 -328 93.5t-118 259.5q0 125 70.5 203 t207.5 104l74 14q183 35 229 72t46 112q0 83 -61.5 123.5t-186.5 40.5q-83 0 -163 -23t-159 -69v180z" unicode="ƨ"/>
<glyph glyph-name="uni01A9" d="M786 747l-455 -577h802v-170h-1013v170l454 577l-454 576v170h1013v-170h-802z" unicode="Ʃ"/>
<glyph glyph-name="uni01AA" d="M765 1130l-2 -1219q0 -103 39 -144q37 -40 137 -40h176v-153h-174q-195 0 -276 86q-87 92 -87 272v1198h-190q-270 0 -270 210q0 216 303 216q181 0 263 -96q53 -64 71 -175h191v-155h-181zM568 1284q-7 45 -25 68q-33 48 -143 48q-127 0 -127 -67q0 -49 116 -49h179z " unicode="ƪ"/>
<glyph glyph-name="uni01AB" d="M614 1438v-318h418v-143h-418v-608q0 -124 47 -173t164 -49h207v-147v-20q0 -195 -89 -300q-90 -106 -255 -106h-205v156h185q90 0 135 62q44 62 44 188v20h-40q-207 0 -292 83t-85 286v608h-299v143h299v318h184z" unicode="ƫ"/>
<glyph glyph-name="uni01AC" d="M453 1327q-17 1 -32 1q-108 0 -169 -48q-49 -38 -49 -152v-49h-156v70q0 181 96 262.5t310 81.5h733v-170h-467v-1323h-203v1323z" unicode="Ƭ"/>
<glyph glyph-name="uni01AD" d="M614 1120h418v-143h-418v-608q0 -124 47 -173t164 -49h207v-147h-225q-207 0 -292 83t-85 286v608h-299v143h298v30q0 195 89 300q90 106 255 106h205v-156h-185q-90 0 -135 -62q-44 -62 -44 -188v-30z" unicode="ƭ"/>
<glyph glyph-name="uni01AE" d="M47 1493h1139v-170h-467v-1343q0 -126 44 -188q45 -62 135 -62h185v-156h-223q-165 0 -255 106q-89 105 -89 300v1343h-469v170z" unicode="Ʈ"/>
<glyph glyph-name="Uhorn" d="M829 1296v119q61 -45 105 -66.5t75 -21.5q46 0 69 27.5t23 81.5q0 32 -7.5 63t-22.5 62h133q10 -38 15 -72t5 -64q0 -122 -43.5 -179.5t-136.5 -57.5q-48 0 -100.5 26.5t-114.5 81.5zM9 573v920h203v-1012q0 -109 6 -155.5t21 -71.5q32 -59 92.5 -89t146.5 -30 q87 0 147 30t93 89q15 25 21 71t6 154v1014h202v-920q0 -229 -28.5 -325.5t-98.5 -159.5q-66 -59 -151 -88t-191 -29q-105 0 -190 29t-152 88q-69 62 -98 160.5t-29 324.5z" unicode="Ư"/>
<glyph glyph-name="uhorn" d="M799 872v119q61 -45 105 -66.5t75 -21.5q46 0 69 27.5t23 81.5q0 32 -7.5 63t-22.5 62h133q10 -38 15 -72t5 -64q0 -122 -43.5 -179.5t-136.5 -57.5q-48 0 -100.5 26.5t-114.5 81.5zM39 424v694h184v-694q0 -151 53.5 -222t165.5 -71q130 0 199 91.5t69 262.5v633h185 v-1118h-185v168q-49 -97 -133.5 -147t-197.5 -50q-172 0 -256 112.5t-84 340.5z" unicode="ư"/>
<glyph glyph-name="uni01B1" d="M1159 1460v-172h-245q123 -134 178 -278t55 -332q0 -311 -144 -494.5t-384 -183.5q-242 0 -386.5 183t-144.5 495q0 188 55.5 332.5t178.5 277.5h-248v172h463v-172q-120 -76 -187 -240.5t-67 -386.5q0 -230 90 -362.5t244 -132.5t243.5 132.5t89.5 362.5 q0 222 -67 386.5t-187 240.5v172h463z" unicode="Ʊ"/>
<glyph glyph-name="uni01B2" d="M506 0q-170 0 -262 106q-90 102 -90 300v1087h204v-1072q0 -126 44 -188t134 -62q154 0 244 132.5t90 362.5q0 222 -67 386.5t-187 240.5h218q122 -134 177 -278t55 -332q0 -311 -144 -495q-147 -188 -416 -188z" unicode="Ʋ"/>
<glyph glyph-name="uni01B3" d="M875 1140l-246 -470v-670h-183v670l-429 823h193l328 -659l199 401q99 200 208 242q46 18 91 18q80 0 155 -57l25 -19l-71 -134l-10 9q-34 31 -74 31q-28 0 -59 -16q-51 -24 -127 -169z" unicode="Ƴ"/>
<glyph glyph-name="uni01B4" d="M622 -104q-81 -203 -152 -261q-74 -61 -198 -61h-147v154h108q76 0 118 36t93 170l33 84l-453 1102h195l350 -876l279 699q50 126 131 167q43 22 94 22q49 0 104 -20l48 -17l-53 -147l-28 10q-28 11 -50 11q-43 0 -59 -41z" unicode="ƴ"/>
<glyph glyph-name="uni01B5" d="M178 1493h969v-154l-395 -592h232v-170h-265h-80l-272 -407h802v-170h-1013v154l275 423h-180v170h290l374 576h-737v170z" unicode="Ƶ"/>
<glyph glyph-name="uni01B6" d="M222 1122h813v-168l-270 -338h312v-164h-354h-89l-242 -302h643v-150h-837v170l225 282h-267v164h398l287 359h-619v147z" unicode="ƶ"/>
<glyph glyph-name="uni01B7" d="M228 435q0 -143 100 -218q99 -75 288.5 -75t289.5 75t100 218q0 134 -92 207q-94 74 -258 74h-174v166l370 441h-738v170h970v-168l-376 -441q104 0 234 -56q98 -43 184 -151q80 -104 80 -242q0 -221 -152 -342t-432 -121q-292 0 -444 121t-152 342h202z" unicode="Ʒ"/>
<glyph glyph-name="uni01B8" d="M1006 435h200q0 -221 -152 -342t-444 -121q-280 0 -432 121t-152 342q0 138 82 242q85 108 184 151q129 56 234 56l-376 441v168h968v-170h-736l370 -441v-166h-174q-166 0 -258 -74q-92 -73 -92 -207q0 -143 100 -218q99 -75 288.5 -75t289.5 75t100 218z" unicode="Ƹ"/>
<glyph glyph-name="uni01B9" d="M624 476l-411 476v168h874v-147h-667l430 -499v-166h-174q-165 0 -258 -74q-92 -75 -92 -207q0 -143 100 -218q99 -75 289 -75q109 0 209 25t184 74v-195q-106 -37 -206 -56q-99 -18 -193 -18q-280 0 -432 121t-152 342q0 138 81 242q86 109 184 151q128 56 234 56z" unicode="ƹ"/>
<glyph glyph-name="uni01BA" d="M699 -274q84 0 161 21q79 21 160 65v-179q-87 -32 -167 -45q-86 -14 -183 -14q-480 0 -480 281q0 238 406 291q284 37 284 135q0 124 -235 124h-290l485 568h-667v147h874v-168l-354 -412q367 0 367 -229q0 -276 -464 -325q-226 -24 -226 -121q0 -139 329 -139z" unicode="ƺ"/>
<glyph glyph-name="uni01BB" d="M164 1421q208 99 399 99q219 0 352.5 -116.5t133.5 -305.5q0 -96 -45 -192q-34 -74 -100 -159h80v-170h-230l-56 -63l-325 -344h686v-170h-907v170l382 407h-283v170h434q105 130 135 214q22 60 22 122q0 185 -150 245q-57 22 -125 22q-181 0 -403 -133v204z" unicode="ƻ"/>
<glyph glyph-name="uni01BC" d="M616 142q316 0 377 199q13 43 13 94q0 134 -92 207q-94 74 -258 74h-441v777h924v-170h-721v-439h290q105 0 234 -56q99 -43 184 -151q80 -101 80 -242q0 -221 -152 -342t-432 -121q-430 0 -552 256q-44 91 -44 207h202q0 -181 158 -252q91 -41 230 -41z" unicode="Ƽ"/>
<glyph glyph-name="uni01BD" d="M518 -266q311 0 374 195q15 45 15 98q0 134 -92 207q-93 74 -258 74h-300v812h752v-184h-568v-461l168 1h4q102 0 230 -56q99 -43 184 -151q81 -104 81 -242q0 -221 -152 -342t-432 -121q-187 0 -399 74v195q170 -99 393 -99z" unicode="ƽ"/>
<glyph glyph-name="uni01BE" d="M845 439q0 114 -74 193q-89 95 -262 95h-62v271h-229v164h229v276h202v-276h231v-164h-231v-125q165 -29 273 -139q117 -119 117 -295q0 -185 -110 -311q-138 -157 -412 -157q-171 0 -323 70v172q156 -86 315 -86q179 0 278 114q57 65 58 198z" unicode="ƾ"/>
<glyph glyph-name="uni01BF" d="M310 60q626 400 626 649q0 133 -57 199q-56 65 -176 65q-220 0 -393 -239v-674zM310 -122v-304h-185v1546h185v-170q52 66 187 148q81 49 291 49q184 0 261 -112q78 -113 78 -266q0 -425 -817 -891z" unicode="ƿ"/>
<glyph glyph-name="uni01C0" d="M516 1493h202v-1493h-202v1493z" unicode="ǀ"/>
<glyph glyph-name="uni01C1" d="M314 1493h202v-1493h-202v1493zM718 1493h202v-1493h-202v1493z" unicode="ǁ"/>
<glyph glyph-name="uni01C2" d="M516 1493h202v-404h350v-168h-350v-240h350v-170h-350v-511h-202v511h-352v170h352v240h-352v168h352v404z" unicode="ǂ"/>
<glyph glyph-name="uni01C3" d="M515 254h203v-254h-203v254zM515 1493h203v-655l-21 -357h-161l-21 357v655z" unicode="ǃ"/>
<glyph glyph-name="uni01CD" d="M494 1493h245l457 -1493h-209l-110 389h-523l-108 -389h-209zM616 1315l-213 -764h426zM522 1635l-211 266h140l165 -178l166 178h140l-211 -266h-189z" unicode="Ǎ"/>
<glyph glyph-name="uni01CE" d="M1059 639v-639h-185v166q-59 -100 -148.5 -147.5t-217.5 -47.5q-171 0 -273 96.5t-102 258.5q0 187 125.5 284t368.5 97h247v29q-1 134 -68 194.5t-214 60.5q-94 0 -190 -27t-187 -79v184q102 39 195.5 58.5t181.5 19.5q139 0 237.5 -41t159.5 -123q38 -50 54 -123.5 t16 -220.5zM702 563h-61q-161 0 -242.5 -56.5t-81.5 -168.5q0 -101 61 -157t169 -56q152 0 239 105.5t88 291.5v41h-172zM543 1262l-246 376h139l180 -245l181 245h139l-246 -376h-147z" unicode="ǎ"/>
<glyph glyph-name="uni01CF" d="M201 1493h829v-170h-313v-1153h313v-170h-829v170h313v1153h-313v170zM522 1635l-211 266h140l165 -178l166 178h140l-211 -266h-189z" unicode="Ǐ"/>
<glyph glyph-name="uni01D0" d="M256 1120h471v-977h365v-143h-914v143h365v834h-287v143zM543 1262l-246 376h139l180 -245l181 245h139l-246 -376h-147z" unicode="ǐ"/>
<glyph glyph-name="uni01D1" d="M1116 745q0 -390 -123.5 -582t-376.5 -192t-376 191t-123 583q0 391 123.5 583t375.5 192q253 0 376.5 -192t123.5 -583zM905 745q0 329 -67.5 470t-221.5 141q-153 0 -220.5 -141t-67.5 -470q0 -328 67.5 -469t220.5 -141q154 0 221.5 140.5t67.5 469.5zM522 1635 l-211 266h140l165 -178l166 178h140l-211 -266h-189z" unicode="Ǒ"/>
<glyph glyph-name="uni01D2" d="M616 1147q233 0 356.5 -151t123.5 -437q0 -287 -123 -437.5t-357 -150.5q-233 0 -356 150.5t-123 437.5q0 286 123 437t356 151zM616 991q-140 0 -212 -109t-72 -323q0 -213 72 -322.5t212 -109.5q141 0 213 109.5t72 322.5q0 214 -72 323t-213 109zM543 1262l-246 376 h139l180 -245l181 245h139l-246 -376h-147z" unicode="ǒ"/>
<glyph glyph-name="uni01D3" d="M147 573v920h203v-1012q0 -109 6 -155.5t21 -71.5q32 -59 92.5 -89t146.5 -30q87 0 147 30t93 89q15 25 21 71t6 154v1014h202v-920q0 -229 -28.5 -325.5t-98.5 -159.5q-66 -59 -151 -88t-191 -29q-105 0 -190 29t-152 88q-69 62 -98 160.5t-29 324.5zM522 1635l-211 266 h140l165 -178l166 178h140l-211 -266h-189z" unicode="Ǔ"/>
<glyph glyph-name="uni01D4" d="M195 424v694h184v-694q0 -151 53.5 -222t165.5 -71q130 0 199 91.5t69 262.5v633h185v-1118h-185v168q-49 -97 -133.5 -147t-197.5 -50q-172 0 -256 112.5t-84 340.5zM543 1262l-246 376h139l180 -245l181 245h139l-246 -376h-147z" unicode="ǔ"/>
<glyph glyph-name="uni01D5" d="M711 1746h202v-203h-202v203zM319 1746h203v-203h-203v203zM147 573v920h203v-1012q0 -109 6 -155.5t21 -71.5q32 -59 92.5 -89t146.5 -30q87 0 147 30t93 89q15 25 21 71t6 154v1014h202v-920q0 -229 -28.5 -325.5t-98.5 -159.5q-66 -59 -151 -88t-191 -29 q-105 0 -190 29t-152 88q-69 62 -98 160.5t-29 324.5zM317 1952h598v-148h-598v148z" unicode="Ǖ"/>
<glyph glyph-name="uni01D6" d="M711 1552h202v-202h-202v202zM319 1552h203v-202h-203v202zM195 424v694h184v-694q0 -151 53.5 -222t165.5 -71q130 0 199 91.5t69 262.5v633h185v-1118h-185v168q-49 -97 -133.5 -147t-197.5 -50q-172 0 -256 112.5t-84 340.5zM317 1842h598v-148h-598v148z" unicode="ǖ"/>
<glyph glyph-name="uni01D7" d="M711 1746h202v-203h-202v203zM319 1746h203v-203h-203v203zM147 573v920h203v-1012q0 -109 6 -155.5t21 -71.5q32 -59 92.5 -89t146.5 -30q87 0 147 30t93 89q15 25 21 71t6 154v1014h202v-920q0 -229 -28.5 -325.5t-98.5 -159.5q-66 -59 -151 -88t-191 -29 q-105 0 -190 29t-152 88q-69 62 -98 160.5t-29 324.5zM672 2041h186l-229 -264h-154z" unicode="Ǘ"/>
<glyph glyph-name="uni01D8" d="M711 1552h202v-202h-202v202zM319 1552h203v-202h-203v202zM195 424v694h184v-694q0 -151 53.5 -222t165.5 -71q130 0 199 91.5t69 262.5v633h185v-1118h-185v168q-49 -97 -133.5 -147t-197.5 -50q-172 0 -256 112.5t-84 340.5zM756 1954h198l-325 -376h-154z" unicode="ǘ"/>
<glyph glyph-name="uni01D9" d="M711 1746h202v-203h-202v203zM319 1746h203v-203h-203v203zM147 573v920h203v-1012q0 -109 6 -155.5t21 -71.5q32 -59 92.5 -89t146.5 -30q87 0 147 30t93 89q15 25 21 71t6 154v1014h202v-920q0 -229 -28.5 -325.5t-98.5 -159.5q-66 -59 -151 -88t-191 -29 q-105 0 -190 29t-152 88q-69 62 -98 160.5t-29 324.5zM522 1777l-211 266h140l165 -178l166 178h140l-211 -266h-189z" unicode="Ǚ"/>
<glyph glyph-name="uni01DA" d="M711 1552h202v-202h-202v202zM319 1552h203v-202h-203v202zM195 424v694h184v-694q0 -151 53.5 -222t165.5 -71q130 0 199 91.5t69 262.5v633h185v-1118h-185v168q-49 -97 -133.5 -147t-197.5 -50q-172 0 -256 112.5t-84 340.5zM543 1578l-246 376h139l180 -245l181 245 h139l-246 -376h-147z" unicode="ǚ"/>
<glyph glyph-name="uni01DB" d="M711 1746h202v-203h-202v203zM319 1746h203v-203h-203v203zM147 573v920h203v-1012q0 -109 6 -155.5t21 -71.5q32 -59 92.5 -89t146.5 -30q87 0 147 30t93 89q15 25 21 71t6 154v1014h202v-920q0 -229 -28.5 -325.5t-98.5 -159.5q-66 -59 -151 -88t-191 -29 q-105 0 -190 29t-152 88q-69 62 -98 160.5t-29 324.5zM561 2041l197 -264h-154l-227 264h184z" unicode="Ǜ"/>
<glyph glyph-name="uni01DC" d="M477 1954l281 -376h-154l-325 376h198zM195 424v694h184v-694q0 -151 53.5 -222t165.5 -71q130 0 199 91.5t69 262.5v633h185v-1118h-185v168q-49 -97 -133.5 -147t-197.5 -50q-172 0 -256 112.5t-84 340.5zM711 1552h202v-202h-202v202zM319 1552h203v-202h-203v202z " unicode="ǜ"/>
<glyph glyph-name="uni01DD" d="M306 459q0 -162 74.5 -247t210.5 -85q133 0 219 88t102 244h-606zM122 512v90h797v6q0 183 -95.5 283t-269.5 100q-88 0 -184 -28t-205 -85v183q105 43 202.5 64.5t188.5 21.5q261 0 408 -156.5t147 -431.5q0 -268 -144 -428t-384 -160q-214 0 -337.5 145t-123.5 396z " unicode="ǝ"/>
<glyph glyph-name="uni01DE" d="M711 1746h202v-203h-202v203zM319 1746h203v-203h-203v203zM317 1952h598v-148h-598v148zM494 1493h245l457 -1493h-209l-110 389h-523l-108 -389h-209zM616 1315l-213 -764h426z" unicode="Ǟ"/>
<glyph glyph-name="uni01DF" d="M317 1842h598v-148h-598v148zM1059 639v-639h-185v166q-59 -100 -148.5 -147.5t-217.5 -47.5q-171 0 -273 96.5t-102 258.5q0 187 125.5 284t368.5 97h247v29q-1 134 -68 194.5t-214 60.5q-94 0 -190 -27t-187 -79v184q102 39 195.5 58.5t181.5 19.5q139 0 237.5 -41 t159.5 -123q38 -50 54 -123.5t16 -220.5zM702 563h-61q-161 0 -242.5 -56.5t-81.5 -168.5q0 -101 61 -157t169 -56q152 0 239 105.5t88 291.5v41h-172zM711 1552h202v-202h-202v202zM319 1552h203v-202h-203v202z" unicode="ǟ"/>
<glyph glyph-name="uni01E0" d="M317 1952h598v-148h-598v148zM513 1748h205v-205h-205v205zM494 1493h245l457 -1493h-209l-110 389h-523l-108 -389h-209zM616 1315l-213 -764h426z" unicode="Ǡ"/>
<glyph glyph-name="uni01E1" d="M317 1842h598v-148h-598v148zM513 1552h205v-204h-205v204zM1059 639v-639h-185v166q-59 -100 -148.5 -147.5t-217.5 -47.5q-171 0 -273 96.5t-102 258.5q0 187 125.5 284t368.5 97h247v29q-1 134 -68 194.5t-214 60.5q-94 0 -190 -27t-187 -79v184q102 39 195.5 58.5 t181.5 19.5q139 0 237.5 -41t159.5 -123q38 -50 54 -123.5t16 -220.5zM702 563h-61q-161 0 -242.5 -56.5t-81.5 -168.5q0 -101 61 -157t169 -56q152 0 239 105.5t88 291.5v41h-172z" unicode="ǡ"/>
<glyph glyph-name="uni01E2" d="M487 1840h598v-148h-598v148zM530 1323l-202 -772h309v772h-107zM1161 1493v-170h-338v-442h307v-170h-307v-541h357v-170h-543v383h-352l-101 -383h-184l410 1493h751z" unicode="Ǣ"/>
<glyph glyph-name="uni01E3" d="M317 1526h598v-148h-598v148zM1200 514h-491q-1 -15 -1.5 -32.5t-0.5 -51.5q0 -161 50.5 -233t162.5 -72q79 0 143.5 25.5t114.5 76.5v-172q-55 -41 -121 -62.5t-137 -21.5q-110 0 -184.5 41t-106.5 119q-39 -80 -105.5 -120t-163.5 -40q-156 0 -237.5 86t-81.5 250 q0 171 100 260.5t291 89.5h117v88q0 120 -49.5 184t-143.5 64q-56 0 -122 -21.5t-128 -60.5v168q77 35 143 51.5t126 16.5q91 0 153 -31.5t99 -95.5q33 61 99 94t155 33q174 0 246.5 -118.5t72.5 -424.5v-90zM1036 657v52q0 151 -38.5 217.5t-125.5 66.5t-125 -68t-38 -225 v-43h327zM543 442v72h-49q-169 0 -229 -45t-60 -158q0 -89 44.5 -137.5t127.5 -48.5q92 0 129 66.5t37 250.5z" unicode="ǣ"/>
<glyph glyph-name="Gcaron" d="M522 1635l-211 266h140l165 -178l166 178h140l-211 -266h-189zM1104 123q-81 -75 -182.5 -113.5t-219.5 -38.5q-284 0 -442 203.5t-158 570.5q0 366 160 570.5t445 204.5q94 0 180 -26.5t166 -80.5v-207q-81 77 -166 113.5t-180 36.5q-197 0 -295.5 -152.5t-98.5 -458.5 q0 -311 95.5 -460.5t293.5 -149.5q67 0 117.5 15.5t91.5 48.5v401h-217v166h410v-643z" unicode="Ǧ"/>
<glyph glyph-name="gcaron" d="M543 1262l-246 376h139l180 -245l181 245h139l-246 -376h-147zM1042 72q0 -252 -119 -382t-350 -130q-76 0 -159 14t-166 41v182q98 -46 178 -68t147 -22q149 0 217 81t68 257v8v125q-44 -94 -120 -140t-185 -46q-196 0 -313 157t-117 420q0 264 117 421t313 157 q108 0 183 -43t122 -133v145h184v-1044zM858 569q0 207 -67.5 314.5t-196.5 107.5q-135 0 -206 -107.5t-71 -314.5t71.5 -315.5t207.5 -108.5q127 0 194.5 109t67.5 315z" unicode="ǧ"/>
<glyph glyph-name="uni01E8" d="M522 1635l-211 266h140l165 -178l166 178h140l-211 -266h-189zM137 1493h203v-664l631 664h237l-581 -610l598 -883h-244l-487 748l-154 -164v-584h-203v1493z" unicode="Ǩ"/>
<glyph glyph-name="uni01E9" d="M522 1635l-211 266h140l165 -178l166 178h140l-211 -266h-189zM236 1556h190v-901l483 465h224l-441 -422l510 -698h-225l-414 578l-137 -129v-449h-190v1556z" unicode="ǩ"/>
<glyph glyph-name="uni01EA" d="M556 -16h119q-45 -61 -66.5 -105t-21.5 -75q0 -46 27.5 -69t81.5 -23q32 0 63 7.5t62 22.5v-133q-38 -10 -72 -15t-64 -5q-122 0 -179.5 43.5t-57.5 136.5q0 48 26.5 100.5t81.5 114.5zM1116 745q0 -390 -123.5 -582t-376.5 -192t-376 191t-123 583q0 391 123.5 583 t375.5 192q253 0 376.5 -192t123.5 -583zM905 745q0 329 -67.5 470t-221.5 141q-153 0 -220.5 -141t-67.5 -470q0 -328 67.5 -469t220.5 -141q154 0 221.5 140.5t67.5 469.5z" unicode="Ǫ"/>
<glyph glyph-name="uni01EB" d="M556 -16h119q-45 -61 -66.5 -105t-21.5 -75q0 -46 27.5 -69t81.5 -23q32 0 63 7.5t62 22.5v-133q-38 -10 -72 -15t-64 -5q-122 0 -179.5 43.5t-57.5 136.5q0 48 26.5 100.5t81.5 114.5zM616 1147q233 0 356.5 -151t123.5 -437q0 -287 -123 -437.5t-357 -150.5 q-233 0 -356 150.5t-123 437.5q0 286 123 437t356 151zM616 991q-140 0 -212 -109t-72 -323q0 -213 72 -322.5t212 -109.5q141 0 213 109.5t72 322.5q0 214 -72 323t-213 109z" unicode="ǫ"/>
<glyph glyph-name="uni01EC" d="M317 1840h598v-148h-598v148zM556 -16h119q-45 -61 -66.5 -105t-21.5 -75q0 -46 27.5 -69t81.5 -23q32 0 63 7.5t62 22.5v-133q-38 -10 -72 -15t-64 -5q-122 0 -179.5 43.5t-57.5 136.5q0 48 26.5 100.5t81.5 114.5zM1116 745q0 -390 -123.5 -582t-376.5 -192t-376 191 t-123 583q0 391 123.5 583t375.5 192q253 0 376.5 -192t123.5 -583zM905 745q0 329 -67.5 470t-221.5 141q-153 0 -220.5 -141t-67.5 -470q0 -328 67.5 -469t220.5 -141q154 0 221.5 140.5t67.5 469.5z" unicode="Ǭ"/>
<glyph glyph-name="uni01ED" d="M317 1526h598v-148h-598v148zM556 -16h119q-45 -61 -66.5 -105t-21.5 -75q0 -46 27.5 -69t81.5 -23q32 0 63 7.5t62 22.5v-133q-38 -10 -72 -15t-64 -5q-122 0 -179.5 43.5t-57.5 136.5q0 48 26.5 100.5t81.5 114.5zM616 1147q233 0 356.5 -151t123.5 -437 q0 -287 -123 -437.5t-357 -150.5q-233 0 -356 150.5t-123 437.5q0 286 123 437t356 151zM616 991q-140 0 -212 -109t-72 -323q0 -213 72 -322.5t212 -109.5q141 0 213 109.5t72 322.5q0 214 -72 323t-213 109z" unicode="ǭ"/>
<glyph glyph-name="uni01EE" d="M522 1635l-211 266h140l165 -178l166 178h140l-211 -266h-189zM228 435q0 -143 100 -218q99 -75 288.5 -75t289.5 75t100 218q0 134 -92 207q-94 74 -258 74h-174v166l370 441h-738v170h970v-168l-376 -441q104 0 234 -56q98 -43 184 -151q80 -104 80 -242 q0 -221 -152 -342t-432 -121q-292 0 -444 121t-152 342h202z" unicode="Ǯ"/>
<glyph glyph-name="uni01EF" d="M543 1262l-246 376h139l180 -245l181 245h139l-246 -376h-147zM609 476q106 0 234 -56q98 -42 184 -151q81 -104 81 -242q0 -221 -152 -342t-432 -121q-94 0 -193 18q-100 19 -206 56v195q84 -49 184 -74t209 -25q190 0 289 75q100 75 100 218q0 132 -92 207 q-93 74 -258 74h-174v166l430 499h-667v147h874v-168z" unicode="ǯ"/>
<glyph glyph-name="uni01F0" d="M578 1257l-246 376h139l180 -245l181 245h139l-246 -376h-147zM600 -20v997h-317v143h501v-1140q0 -195 -89.5 -300.5t-254.5 -105.5h-254v156h234q90 0 135 62.5t45 187.5z" unicode="ǰ"/>
<glyph glyph-name="uni01F4" d="M762 1899h186l-229 -264h-154zM1104 123q-81 -75 -182.5 -113.5t-219.5 -38.5q-284 0 -442 203.5t-158 570.5q0 366 160 570.5t445 204.5q94 0 180 -26.5t166 -80.5v-207q-81 77 -166 113.5t-180 36.5q-197 0 -295.5 -152.5t-98.5 -458.5q0 -311 95.5 -460.5 t293.5 -149.5q67 0 117.5 15.5t91.5 48.5v401h-217v166h410v-643z" unicode="Ǵ"/>
<glyph glyph-name="uni01F5" d="M756 1638h198l-325 -376h-154zM1042 72q0 -252 -119 -382t-350 -130q-76 0 -159 14t-166 41v182q98 -46 178 -68t147 -22q149 0 217 81t68 257v8v125q-44 -94 -120 -140t-185 -46q-196 0 -313 157t-117 420q0 264 117 421t313 157q108 0 183 -43t122 -133v145h184v-1044z M858 569q0 207 -67.5 314.5t-196.5 107.5q-135 0 -206 -107.5t-71 -314.5t71.5 -315.5t207.5 -108.5q127 0 194.5 109t67.5 315z" unicode="ǵ"/>
<glyph glyph-name="uni01F6" d="M877 135q54 0 79 79q33 102 33 372v295h182v-320q0 -373 -104 -513q-57 -77 -190 -77q-128 0 -200 83q-134 153 -134 507v150h-299v-711h-182v1493h182v-612h299v612h183v-907q0 -273 82 -412q23 -39 69 -39z" unicode="Ƕ"/>
<glyph glyph-name="uni01F8" d="M561 1899l197 -264h-154l-227 264h184zM139 1493h256l504 -1229v1229h195v-1493h-256l-504 1229v-1229h-195v1493z" unicode="Ǹ"/>
<glyph glyph-name="uni01F9" d="M477 1638l281 -376h-154l-325 376h198zM1051 694v-694h-185v694q0 151 -53 222t-166 71q-129 0 -198.5 -91.5t-69.5 -262.5v-633h-184v1120h184v-168q49 96 133 145.5t199 49.5q171 0 255.5 -112.5t84.5 -340.5z" unicode="ǹ"/>
<glyph glyph-name="AEacute" d="M912 1899h186l-229 -264h-154zM530 1323l-202 -772h309v772h-107zM1161 1493v-170h-338v-442h307v-170h-307v-541h357v-170h-543v383h-352l-101 -383h-184l410 1493h751z" unicode="Ǽ"/>
<glyph glyph-name="aeacute" d="M756 1638h198l-325 -376h-154zM1200 514h-491q-1 -15 -1.5 -32.5t-0.5 -51.5q0 -161 50.5 -233t162.5 -72q79 0 143.5 25.5t114.5 76.5v-172q-55 -41 -121 -62.5t-137 -21.5q-110 0 -184.5 41t-106.5 119q-39 -80 -105.5 -120t-163.5 -40q-156 0 -237.5 86t-81.5 250 q0 171 100 260.5t291 89.5h117v88q0 120 -49.5 184t-143.5 64q-56 0 -122 -21.5t-128 -60.5v168q77 35 143 51.5t126 16.5q91 0 153 -31.5t99 -95.5q33 61 99 94t155 33q174 0 246.5 -118.5t72.5 -424.5v-90zM1036 657v52q0 151 -38.5 217.5t-125.5 66.5t-125 -68t-38 -225 v-43h327zM543 442v72h-49q-169 0 -229 -45t-60 -158q0 -89 44.5 -137.5t127.5 -48.5q92 0 129 66.5t37 250.5z" unicode="ǽ"/>
<glyph glyph-name="Oslashacute" d="M672 1899h186l-229 -264h-154zM1032 1247q41 -81 62.5 -210t21.5 -292q0 -390 -123.5 -582t-376.5 -192q-121 0 -211 40.5t-151 121.5l-143 -203l-103 70l178 252q-32 73 -50.5 204t-18.5 289q0 391 123.5 583t375.5 192q115 0 201.5 -41t143.5 -121l139 201l100 -74z M338 471l504 719q-25 81 -82.5 123.5t-143.5 42.5q-157 0 -222.5 -146t-65.5 -524q0 -80 2.5 -130.5t7.5 -84.5zM371 303q30 -78 95.5 -123t149.5 -45q154 0 221.5 140.5t67.5 469.5q0 110 -5 178t-15 113z" unicode="Ǿ"/>
<glyph glyph-name="oslashacute" d="M756 1638h198l-325 -376h-154zM217 180q-39 71 -59.5 168.5t-20.5 210.5q0 286 123 437t356 151q100 0 179 -27.5t139 -83.5l147 176l93 -77l-164 -195q42 -66 64 -162.5t22 -218.5q0 -287 -123 -437.5t-357 -150.5q-103 0 -181.5 29.5t-135.5 89.5l-160 -186l-92 76z M817 897q-35 48 -84.5 71t-116.5 23q-139 0 -213.5 -107t-74.5 -309q0 -48 7 -106t21 -129zM877 780l-463 -559q36 -47 86.5 -70.5t115.5 -23.5q141 0 213 109.5t72 322.5q0 52 -6 107.5t-18 113.5z" unicode="ǿ"/>
<glyph glyph-name="uni0200" d="M692 1899l197 -264h-154l-229 264h186zM373 1899l197 -264h-154l-229 264h186zM494 1493h245l457 -1493h-209l-110 389h-523l-108 -389h-209zM616 1315l-213 -764h426z" unicode="Ȁ"/>
<glyph glyph-name="uni0201" d="M722 1638l190 -376h-137l-223 376h170zM388 1638l205 -376h-135l-248 376h178zM1059 639v-639h-185v166q-59 -100 -148.5 -147.5t-217.5 -47.5q-171 0 -273 96.5t-102 258.5q0 187 125.5 284t368.5 97h247v29q-1 134 -68 194.5t-214 60.5q-94 0 -190 -27t-187 -79v184 q102 39 195.5 58.5t181.5 19.5q139 0 237.5 -41t159.5 -123q38 -50 54 -123.5t16 -220.5zM702 563h-61q-161 0 -242.5 -56.5t-81.5 -168.5q0 -101 61 -157t169 -56q152 0 239 105.5t88 291.5v41h-172z" unicode="ȁ"/>
<glyph glyph-name="uni0202" d="M303 1659q11 120 90 181t223 61t223.5 -61.5t90.5 -180.5h-119q-15 56 -63.5 83.5t-131.5 27.5q-82 0 -132 -28.5t-62 -82.5h-119zM494 1493h245l457 -1493h-209l-110 389h-523l-108 -389h-209zM616 1315l-213 -764h426z" unicode="Ȃ"/>
<glyph glyph-name="uni0203" d="M303 1321q11 143 90 215t223 72q145 0 224 -72t90 -215h-119q-14 76 -62 113t-133 37q-87 0 -135 -37t-59 -113h-119zM1059 639v-639h-185v166q-59 -100 -148.5 -147.5t-217.5 -47.5q-171 0 -273 96.5t-102 258.5q0 187 125.5 284t368.5 97h247v29q-1 134 -68 194.5 t-214 60.5q-94 0 -190 -27t-187 -79v184q102 39 195.5 58.5t181.5 19.5q139 0 237.5 -41t159.5 -123q38 -50 54 -123.5t16 -220.5zM702 563h-61q-161 0 -242.5 -56.5t-81.5 -168.5q0 -101 61 -157t169 -56q152 0 239 105.5t88 291.5v41h-172z" unicode="ȃ"/>
<glyph glyph-name="uni0204" d="M692 1899l197 -264h-154l-229 264h186zM373 1899l197 -264h-154l-229 264h186zM197 1493h886v-170h-684v-442h654v-170h-654v-541h703v-170h-905v1493z" unicode="Ȅ"/>
<glyph glyph-name="uni0205" d="M736 1638l190 -376h-137l-223 376h170zM402 1638l205 -376h-135l-248 376h178zM928 660q-4 162 -76.5 246.5t-208.5 84.5q-133 0 -219 -88t-102 -244zM1112 606v-90h-797v-6q0 -183 95.5 -283t269.5 -100q88 0 184 28t205 85v-183q-105 -43 -202.5 -64.5t-188.5 -21.5 q-261 0 -408 156.5t-147 431.5q0 268 144 428t384 160q214 0 337.5 -145t123.5 -396z" unicode="ȅ"/>
<glyph glyph-name="uni0206" d="M303 1659q11 120 90 181t223 61t223.5 -61.5t90.5 -180.5h-119q-15 56 -63.5 83.5t-131.5 27.5q-82 0 -132 -28.5t-62 -82.5h-119zM197 1493h886v-170h-684v-442h654v-170h-654v-541h703v-170h-905v1493z" unicode="Ȇ"/>
<glyph glyph-name="uni0207" d="M317 1321q11 143 90 215t223 72q145 0 224 -72t90 -215h-119q-14 76 -62 113t-133 37q-87 0 -135 -37t-59 -113h-119zM928 660q-4 162 -76.5 246.5t-208.5 84.5q-133 0 -219 -88t-102 -244zM1112 606v-90h-797v-6q0 -183 95.5 -283t269.5 -100q88 0 184 28t205 85v-183 q-105 -43 -202.5 -64.5t-188.5 -21.5q-261 0 -408 156.5t-147 431.5q0 268 144 428t384 160q214 0 337.5 -145t123.5 -396z" unicode="ȇ"/>
<glyph glyph-name="uni0208" d="M692 1899l197 -264h-154l-229 264h186zM373 1899l197 -264h-154l-229 264h186zM201 1493h829v-170h-313v-1153h313v-170h-829v170h313v1153h-313v170z" unicode="Ȉ"/>
<glyph glyph-name="uni0209" d="M722 1638l190 -376h-137l-223 376h170zM388 1638l205 -376h-135l-248 376h178zM256 1120h471v-977h365v-143h-914v143h365v834h-287v143z" unicode="ȉ"/>
<glyph glyph-name="uni020A" d="M303 1659q11 120 90 181t223 61t223.5 -61.5t90.5 -180.5h-119q-15 56 -63.5 83.5t-131.5 27.5q-82 0 -132 -28.5t-62 -82.5h-119zM201 1493h829v-170h-313v-1153h313v-170h-829v170h313v1153h-313v170z" unicode="Ȋ"/>
<glyph glyph-name="uni020B" d="M303 1321q11 143 90 215t223 72q145 0 224 -72t90 -215h-119q-14 76 -62 113t-133 37q-87 0 -135 -37t-59 -113h-119zM256 1120h471v-977h365v-143h-914v143h365v834h-287v143z" unicode="ȋ"/>
<glyph glyph-name="uni020C" d="M692 1899l197 -264h-154l-229 264h186zM373 1899l197 -264h-154l-229 264h186zM1116 745q0 -390 -123.5 -582t-376.5 -192t-376 191t-123 583q0 391 123.5 583t375.5 192q253 0 376.5 -192t123.5 -583zM905 745q0 329 -67.5 470t-221.5 141q-153 0 -220.5 -141 t-67.5 -470q0 -328 67.5 -469t220.5 -141q154 0 221.5 140.5t67.5 469.5z" unicode="Ȍ"/>
<glyph glyph-name="uni020D" d="M722 1638l190 -376h-137l-223 376h170zM388 1638l205 -376h-135l-248 376h178zM616 1147q233 0 356.5 -151t123.5 -437q0 -287 -123 -437.5t-357 -150.5q-233 0 -356 150.5t-123 437.5q0 286 123 437t356 151zM616 991q-140 0 -212 -109t-72 -323q0 -213 72 -322.5 t212 -109.5q141 0 213 109.5t72 322.5q0 214 -72 323t-213 109z" unicode="ȍ"/>
<glyph glyph-name="uni020E" d="M303 1659q11 120 90 181t223 61t223.5 -61.5t90.5 -180.5h-119q-15 56 -63.5 83.5t-131.5 27.5q-82 0 -132 -28.5t-62 -82.5h-119zM1116 745q0 -390 -123.5 -582t-376.5 -192t-376 191t-123 583q0 391 123.5 583t375.5 192q253 0 376.5 -192t123.5 -583zM905 745 q0 329 -67.5 470t-221.5 141q-153 0 -220.5 -141t-67.5 -470q0 -328 67.5 -469t220.5 -141q154 0 221.5 140.5t67.5 469.5z" unicode="Ȏ"/>
<glyph glyph-name="uni020F" d="M303 1321q11 143 90 215t223 72q145 0 224 -72t90 -215h-119q-14 76 -62 113t-133 37q-87 0 -135 -37t-59 -113h-119zM616 1147q233 0 356.5 -151t123.5 -437q0 -287 -123 -437.5t-357 -150.5q-233 0 -356 150.5t-123 437.5q0 286 123 437t356 151zM616 991 q-140 0 -212 -109t-72 -323q0 -213 72 -322.5t212 -109.5q141 0 213 109.5t72 322.5q0 214 -72 323t-213 109z" unicode="ȏ"/>
<glyph glyph-name="uni0210" d="M642 1899l197 -264h-154l-229 264h186zM323 1899l197 -264h-154l-229 264h186zM346 1327v-530h221q145 0 216 65t71 199q0 129 -75.5 197.5t-219.5 68.5h-213zM760 705q78 -20 133 -75.5t137 -221.5l203 -408h-217l-178 377q-77 161 -138.5 207.5t-160.5 46.5h-193v-631 h-203v1493h416q246 0 377 -111t131 -321q0 -148 -80.5 -241.5t-226.5 -114.5z" unicode="Ȑ"/>
<glyph glyph-name="uni0211" d="M872 1638l190 -376h-137l-223 376h170zM538 1638l205 -376h-135l-248 376h178zM1155 889q-59 46 -120 67t-134 21q-172 0 -263 -108t-91 -312v-557h-185v1120h185v-219q46 119 141.5 182.5t226.5 63.5q68 0 127 -17t113 -53v-188z" unicode="ȑ"/>
<glyph glyph-name="uni0212" d="M253 1659q11 120 90 181t223 61t223.5 -61.5t90.5 -180.5h-119q-15 56 -63.5 83.5t-131.5 27.5q-82 0 -132 -28.5t-62 -82.5h-119zM346 1327v-530h221q145 0 216 65t71 199q0 129 -75.5 197.5t-219.5 68.5h-213zM760 705q78 -20 133 -75.5t137 -221.5l203 -408h-217 l-178 377q-77 161 -138.5 207.5t-160.5 46.5h-193v-631h-203v1493h416q246 0 377 -111t131 -321q0 -148 -80.5 -241.5t-226.5 -114.5z" unicode="Ȓ"/>
<glyph glyph-name="uni0213" d="M453 1321q11 143 90 215t223 72q145 0 224 -72t90 -215h-119q-14 76 -62 113t-133 37q-87 0 -135 -37t-59 -113h-119zM1155 889q-59 46 -120 67t-134 21q-172 0 -263 -108t-91 -312v-557h-185v1120h185v-219q46 119 141.5 182.5t226.5 63.5q68 0 127 -17t113 -53v-188z " unicode="ȓ"/>
<glyph glyph-name="uni0214" d="M692 1899l197 -264h-154l-229 264h186zM373 1899l197 -264h-154l-229 264h186zM147 573v920h203v-1012q0 -109 6 -155.5t21 -71.5q32 -59 92.5 -89t146.5 -30q87 0 147 30t93 89q15 25 21 71t6 154v1014h202v-920q0 -229 -28.5 -325.5t-98.5 -159.5q-66 -59 -151 -88 t-191 -29q-105 0 -190 29t-152 88q-69 62 -98 160.5t-29 324.5z" unicode="Ȕ"/>
<glyph glyph-name="uni0215" d="M722 1638l190 -376h-137l-223 376h170zM388 1638l205 -376h-135l-248 376h178zM195 424v694h184v-694q0 -151 53.5 -222t165.5 -71q130 0 199 91.5t69 262.5v633h185v-1118h-185v168q-49 -97 -133.5 -147t-197.5 -50q-172 0 -256 112.5t-84 340.5z" unicode="ȕ"/>
<glyph glyph-name="uni0216" d="M303 1659q11 120 90 181t223 61t223.5 -61.5t90.5 -180.5h-119q-15 56 -63.5 83.5t-131.5 27.5q-82 0 -132 -28.5t-62 -82.5h-119zM147 573v920h203v-1012q0 -109 6 -155.5t21 -71.5q32 -59 92.5 -89t146.5 -30q87 0 147 30t93 89q15 25 21 71t6 154v1014h202v-920 q0 -229 -28.5 -325.5t-98.5 -159.5q-66 -59 -151 -88t-191 -29q-105 0 -190 29t-152 88q-69 62 -98 160.5t-29 324.5z" unicode="Ȗ"/>
<glyph glyph-name="uni0217" d="M303 1321q11 143 90 215t223 72q145 0 224 -72t90 -215h-119q-14 76 -62 113t-133 37q-87 0 -135 -37t-59 -113h-119zM195 424v694h184v-694q0 -151 53.5 -222t165.5 -71q130 0 199 91.5t69 262.5v633h185v-1118h-185v168q-49 -97 -133.5 -147t-197.5 -50 q-172 0 -256 112.5t-84 340.5z" unicode="ȗ"/>
<glyph glyph-name="Scommaaccent" d="M502 -197h239l-187 -345h-146zM1012 1442v-205q-92 59 -184.5 89t-186.5 30q-143 0 -226 -66.5t-83 -179.5q0 -99 54.5 -151t203.5 -87l106 -24q210 -49 306 -154t96 -286q0 -213 -132 -325t-384 -112q-105 0 -211 22.5t-213 67.5v215q115 -73 217.5 -107t206.5 -34 q153 0 238 68.5t85 191.5q0 112 -58.5 171t-203.5 91l-108 25q-208 47 -302 142t-94 255q0 200 134.5 320.5t357.5 120.5q86 0 181 -19.5t200 -58.5z" unicode="Ș"/>
<glyph glyph-name="scommaaccent" d="M502 -197h239l-187 -345h-146zM973 1081v-180q-79 46 -159 69t-163 23q-125 0 -186.5 -40.5t-61.5 -123.5q0 -75 46 -112t229 -72l74 -14q137 -26 207.5 -104t70.5 -203q0 -166 -118 -259.5t-328 -93.5q-83 0 -174 17.5t-197 52.5v190q103 -53 197 -79.5t178 -26.5 q122 0 189 49.5t67 138.5q0 128 -245 177l-8 2l-69 14q-159 31 -232 104.5t-73 200.5q0 161 109 248.5t311 87.5q90 0 173 -16.5t163 -49.5z" unicode="ș"/>
<glyph glyph-name="uni021A" d="M502 -197h239l-187 -345h-146zM47 1493h1139v-170h-467v-1323h-203v1323h-469v170z" unicode="Ț"/>
<glyph glyph-name="uni021B" d="M591 -197h239l-187 -345h-146zM614 1438v-318h418v-143h-418v-608q0 -124 47 -173t164 -49h207v-147h-225q-207 0 -292 83t-85 286v608h-299v143h299v318h184z" unicode="ț"/>
<glyph glyph-name="uni021C" d="M800 674q308 -67 308 -360q0 -112 -55.5 -215t-148 -183t-220.5 -148t-267 -116t-292 -82v160q200 55 352.5 125t245 146.5t138.5 155t46 157.5q0 101 -62.5 167t-174.5 66q-95 0 -210 -51l-163 -72v171l248 106q60 26 111 58.5t103 82t82.5 119t30.5 151.5 q0 55 -17.5 98t-45 68.5t-65 42.5t-73.5 23t-74 6q-184 0 -427 -184v190q239 164 445 164q131 0 232.5 -43t163.5 -134t62 -219q0 -60 -11.5 -111t-40.5 -107.5t-84 -114.5t-137 -117z" unicode="Ȝ"/>
<glyph glyph-name="uni021D" d="M782 461q70 -8 126 -42t87 -79t47.5 -89t16.5 -81q0 -75 -33 -144t-87 -123t-130 -102.5t-154.5 -83.5t-168 -65.5t-164 -50t-148.5 -34.5v130q162 46 284.5 94t201.5 93.5t128.5 94.5t69.5 94.5t20 96.5q0 88 -59 144t-152 56q-59 0 -122 -25l-216 -86v139l223 85 q34 13 66.5 29t76 46t75 64.5t54 85.5t22.5 108q0 44 -15.5 79t-40 56t-58 34.5t-66 18.5t-67.5 5q-69 0 -153 -29.5t-231 -119.5v154q266 133 400 133q112 0 204 -35.5t150 -108.5t58 -170q0 -110 -51.5 -186.5t-193.5 -185.5z" unicode="ȝ"/>
<glyph glyph-name="uni021E" d="M522 1635l-211 266h140l165 -178l166 178h140l-211 -266h-189zM137 1493h203v-612h553v612h203v-1493h-203v711h-553v-711h-203v1493z" unicode="Ȟ"/>
<glyph glyph-name="uni021F" d="M522 1635l-211 266h140l165 -178l166 178h140l-211 -266h-189zM1051 694v-694h-185v694q0 151 -53 222t-166 71q-129 0 -198.5 -91.5t-69.5 -262.5v-633h-184v1556h184v-604q49 96 133 145.5t199 49.5q171 0 255.5 -112.5t84.5 -340.5z" unicode="ȟ"/>
<glyph glyph-name="uni0220" d="M1085 999v-1429h-203v1439q0 180 -58 264.5t-182 84.5q-141 0 -217 -109t-76 -312v-937h-202v1493h202v-198q54 111 146 169t218 58q187 0 279.5 -130.5t92.5 -392.5z" unicode="Ƞ"/>
<glyph glyph-name="uni0221" d="M173 559q0 -214 54 -323t160 -109t161.5 110t55.5 322q0 213 -55.5 322.5t-161.5 109.5t-160 -109t-54 -323zM788 406q0 -116 13 -151q114 244 218 245h3q161 0 161 -216q0 -313 -250 -313q-71 0 -119 17q-30 -79 -50 -136h-119l68 194q-32 13 -70 102l-16 37 q-28 -90 -84 -143q-76 -71 -174 -71h-3q-163 2 -255 157q-93 158 -93 435q0 273 93.5 428.5t254.5 155.5q80 0 141.5 -43.5t96.5 -126.5v579h184v-1150zM877 144q11 -17 71 -17h7q123 0 126 155v7q0 55 -62 55t-142 -200z" unicode="ȡ"/>
<glyph glyph-name="uni0224" d="M178 1493h969v-154l-780 -1169h802v-42h1v-148q0 -195 -89 -300q-90 -106 -255 -106h-205v156h185q90 0 135 62q44 62 44 188v20h-829v154l759 1169h-737v170z" unicode="Ȥ"/>
<glyph glyph-name="uni0225" d="M227 1122h813v-168l-643 -804h643v-150h-8v-20q0 -195 -89 -300q-90 -106 -255 -106h-205v156h185q90 0 135 62q44 62 44 188v20h-644v170l643 805h-619v147z" unicode="ȥ"/>
<glyph glyph-name="uni0226" d="M513 1872h205v-205h-205v205zM494 1493h245l457 -1493h-209l-110 389h-523l-108 -389h-209zM616 1315l-213 -764h426z" unicode="Ȧ"/>
<glyph glyph-name="uni0227" d="M513 1552h205v-204h-205v204zM1059 639v-639h-185v166q-59 -100 -148.5 -147.5t-217.5 -47.5q-171 0 -273 96.5t-102 258.5q0 187 125.5 284t368.5 97h247v29q-1 134 -68 194.5t-214 60.5q-94 0 -190 -27t-187 -79v184q102 39 195.5 58.5t181.5 19.5q139 0 237.5 -41 t159.5 -123q38 -50 54 -123.5t16 -220.5zM702 563h-61q-161 0 -242.5 -56.5t-81.5 -168.5q0 -101 61 -157t169 -56q152 0 239 105.5t88 291.5v41h-172z" unicode="ȧ"/>
<glyph glyph-name="uni0228" d="M750 0q56 -62 82.5 -114.5t26.5 -100.5q0 -89 -60 -134.5t-178 -45.5q-45 0 -88.5 6t-87.5 18v131q34 -17 71.5 -24.5t84.5 -7.5q58 0 88.5 24t30.5 70q0 30 -22 73.5t-66 104.5h118zM197 1493h886v-170h-684v-442h654v-170h-654v-541h703v-170h-905v1493z" unicode="Ȩ"/>
<glyph glyph-name="uni0229" d="M750 0q56 -62 82.5 -114.5t26.5 -100.5q0 -89 -60 -134.5t-178 -45.5q-45 0 -88.5 6t-87.5 18v131q34 -17 71.5 -24.5t84.5 -7.5q58 0 88.5 24t30.5 70q0 30 -22 73.5t-66 104.5h118zM928 660q-4 162 -76.5 246.5t-208.5 84.5q-133 0 -219 -88t-102 -244zM1112 606v-90 h-797v-6q0 -183 95.5 -283t269.5 -100q88 0 184 28t205 85v-183q-105 -43 -202.5 -64.5t-188.5 -21.5q-261 0 -408 156.5t-147 431.5q0 268 144 428t384 160q214 0 337.5 -145t123.5 -396z" unicode="ȩ"/>
<glyph glyph-name="uni022A" d="M711 1746h202v-203h-202v203zM319 1746h203v-203h-203v203zM317 1952h598v-148h-598v148zM1116 745q0 -390 -123.5 -582t-376.5 -192t-376 191t-123 583q0 391 123.5 583t375.5 192q253 0 376.5 -192t123.5 -583zM905 745q0 329 -67.5 470t-221.5 141q-153 0 -220.5 -141 t-67.5 -470q0 -328 67.5 -469t220.5 -141q154 0 221.5 140.5t67.5 469.5z" unicode="Ȫ"/>
<glyph glyph-name="uni022B" d="M317 1842h598v-148h-598v148zM616 1147q233 0 356.5 -151t123.5 -437q0 -287 -123 -437.5t-357 -150.5q-233 0 -356 150.5t-123 437.5q0 286 123 437t356 151zM616 991q-140 0 -212 -109t-72 -323q0 -213 72 -322.5t212 -109.5q141 0 213 109.5t72 322.5q0 214 -72 323 t-213 109zM711 1552h202v-202h-202v202zM319 1552h203v-202h-203v202z" unicode="ȫ"/>
<glyph glyph-name="uni022C" d="M1116 745q0 -390 -123.5 -582t-376.5 -192t-376 191t-123 583q0 391 123.5 583t375.5 192q253 0 376.5 -192t123.5 -583zM905 745q0 329 -67.5 470t-221.5 141q-153 0 -220.5 -141t-67.5 -470q0 -328 67.5 -469t220.5 -141q154 0 221.5 140.5t67.5 469.5zM612 1582 l-57 33q-25 14 -40.5 19.5t-27.5 5.5q-35 0 -55 -25t-20 -70v-6h-125q0 101 51.5 160t136.5 59q36 0 66.5 -8t79.5 -35l57 -30q22 -13 39.5 -19t32.5 -6q31 0 51 25.5t20 66.5v6h125q-2 -100 -53 -159.5t-135 -59.5q-34 0 -64 8t-82 35zM317 1952h598v-148h-598v148z" unicode="Ȭ"/>
<glyph glyph-name="uni022D" d="M321 1842h598v-148h-598v148zM616 1147q233 0 356.5 -151t123.5 -437q0 -287 -123 -437.5t-357 -150.5q-233 0 -356 150.5t-123 437.5q0 286 123 437t356 151zM616 991q-140 0 -212 -109t-72 -323q0 -213 72 -322.5t212 -109.5q141 0 213 109.5t72 322.5q0 214 -72 323 t-213 109zM612 1370l-57 55q-21 20 -37.5 29.5t-30.5 9.5q-38 0 -56 -37t-20 -118h-124q1 134 52 208t142 74q39 0 71 -14t69 -47l57 -55q21 -20 37.5 -29.5t29.5 -9.5q39 0 57 37t19 118h125q-1 -134 -52 -208t-142 -74q-39 0 -71 14t-69 47z" unicode="ȭ"/>
<glyph glyph-name="uni022E" d="M513 1872h205v-205h-205v205zM1116 745q0 -390 -123.5 -582t-376.5 -192t-376 191t-123 583q0 391 123.5 583t375.5 192q253 0 376.5 -192t123.5 -583zM905 745q0 329 -67.5 470t-221.5 141q-153 0 -220.5 -141t-67.5 -470q0 -328 67.5 -469t220.5 -141 q154 0 221.5 140.5t67.5 469.5z" unicode="Ȯ"/>
<glyph glyph-name="uni022F" d="M513 1552h205v-204h-205v204zM616 1147q233 0 356.5 -151t123.5 -437q0 -287 -123 -437.5t-357 -150.5q-233 0 -356 150.5t-123 437.5q0 286 123 437t356 151zM616 991q-140 0 -212 -109t-72 -323q0 -213 72 -322.5t212 -109.5q141 0 213 109.5t72 322.5q0 214 -72 323 t-213 109z" unicode="ȯ"/>
<glyph glyph-name="uni0230" d="M317 1952h598v-148h-598v148zM513 1748h205v-205h-205v205zM1116 745q0 -390 -123.5 -582t-376.5 -192t-376 191t-123 583q0 391 123.5 583t375.5 192q253 0 376.5 -192t123.5 -583zM905 745q0 329 -67.5 470t-221.5 141q-153 0 -220.5 -141t-67.5 -470q0 -328 67.5 -469 t220.5 -141q154 0 221.5 140.5t67.5 469.5z" unicode="Ȱ"/>
<glyph glyph-name="uni0231" d="M317 1842h598v-148h-598v148zM513 1552h205v-204h-205v204zM616 1147q233 0 356.5 -151t123.5 -437q0 -287 -123 -437.5t-357 -150.5q-233 0 -356 150.5t-123 437.5q0 286 123 437t356 151zM616 991q-140 0 -212 -109t-72 -323q0 -213 72 -322.5t212 -109.5 q141 0 213 109.5t72 322.5q0 214 -72 323t-213 109z" unicode="ȱ"/>
<glyph glyph-name="uni0232" d="M317 1840h598v-148h-598v148zM37 1493h215l364 -659l363 659h217l-479 -823v-670h-203v670z" unicode="Ȳ"/>
<glyph glyph-name="uni0233" d="M317 1526h598v-148h-598v148zM858 360q-46 -117 -117 -308q-99 -264 -133 -322q-46 -78 -115 -117t-161 -39h-148v154h109q81 0 127 47t117 243l-433 1102h195l332 -876l327 876h195z" unicode="ȳ"/>
<glyph glyph-name="uni0234" d="M664 -12q-29 -79 -49 -136h-119l68 194q-19 5 -70 102q-39 74 -39 258v1017h-295v144h479v-1161q0 -116 13 -151q114 244 218 245h3q161 0 161 -216q0 -313 -250 -313q-70 0 -120 17zM728 144q11 -17 71 -17h7q123 0 126 155v7q0 55 -62 55t-142 -200z" unicode="ȴ"/>
<glyph glyph-name="uni0235" d="M715 406q0 -114 22 -160q122 252 225 254h3q156 0 161 -204v-12q0 -312 -250 -313q-71 0 -120 17q-29 -79 -49 -136h-119l68 194q-19 5 -70 102q-39 74 -39 258v235q0 237 -26.5 294.5t-116.5 57.5q-73 0 -101.5 -61.5t-28.5 -290.5v-641h-167v1120h167v-96 q33 60 82.5 91.5t112.5 31.5q133 0 190 -105q56 -101 56 -393v-243zM820 144q11 -17 71 -17h7q123 0 126 155v7q0 55 -62 55t-142 -200z" unicode="ȵ"/>
<glyph glyph-name="uni0236" d="M614 406q0 -116 13 -151q114 244 218 245h3q161 0 161 -216q0 -313 -250 -313q-71 0 -119 17q-30 -79 -50 -136h-119l68 194q-19 5 -70 102q-39 74 -39 258v571h-299v143h299v318h184v-318h418v-143h-418v-571zM703 144q11 -17 71 -17h7q123 0 126 155v7q0 55 -62 55 t-142 -200z" unicode="ȶ"/>
<glyph glyph-name="dotlessj" d="M600 -20v997h-317v143h501v-1140q0 -195 -89.5 -300.5t-254.5 -105.5h-254v156h234q90 0 135 62.5t45 187.5z" unicode="ȷ"/>
<glyph glyph-name="uni0238" d="M672 977q26 82 72.5 126t107.5 44q122 0 191.5 -155.5t69.5 -428.5q0 -277 -70 -434.5t-192 -157.5q-60 0 -106 43.5t-73 126.5v-141h-111v141q-27 -83 -73 -126.5t-106 -43.5q-122 0 -192 157.5t-70 434.5q0 273 70.5 428.5t191.5 155.5q60 0 106.5 -43.5t72.5 -126.5 v579h111v-579zM996 559q0 214 -40.5 323t-120.5 109q-81 0 -122 -109.5t-41 -322.5q0 -212 41 -322t122 -110q80 0 120.5 109t40.5 323zM237 559q0 -214 40.5 -323t120.5 -109t121.5 110t41.5 322q0 213 -41.5 322.5t-121.5 109.5t-120.5 -109t-40.5 -323z" unicode="ȸ"/>
<glyph glyph-name="uni0239" d="M561 141q-26 -82 -72.5 -126t-107.5 -44q-121 0 -191 155.5t-70 428.5q0 277 70 434.5t192 157.5q60 0 106 -43.5t73 -126.5v141h111v-141q27 83 73 126.5t106 43.5q122 0 192 -157.5t70 -434.5q0 -273 -70.5 -428.5t-191.5 -155.5q-61 0 -107 43.5t-72 126.5v-579h-111 v579zM237 559q0 -214 40.5 -323t120.5 -109t121.5 109.5t41.5 322.5q0 212 -41.5 322t-121.5 110t-120.5 -109t-40.5 -323zM996 559q0 214 -40.5 323t-120.5 109t-121.5 -110t-41.5 -322q0 -213 41.5 -322.5t121.5 -109.5t120.5 109t40.5 323z" unicode="ȹ"/>
<glyph glyph-name="uni023A" d="M705 995l-89 320l-207 -743zM546 551h283l-81 289zM494 1493h245l96 -313l265 379l100 -74l-319 -456l315 -1029h-209l-110 389h-445l-130 -186l-56 -203h-86l-49 -70l-103 70l52 74z" unicode="Ⱥ"/>
<glyph glyph-name="uni023B" d="M1073 53q-77 -41 -158 -61.5t-172 -20.5q-287 0 -445 203l-9 11l-178 -255l-103 70l212 303q-81 179 -81 442q0 366 159.5 570.5t444.5 204.5q91 0 172 -20q59 -15 115 -41l70 100l100 -74l-127 -181v-73q-16 13 -33 25l-629 -898q16 -39 37 -71q98 -152 295 -152 q88 0 172.5 32t157.5 93v-207zM368 514l564 804l-18 6q-85 32 -171 32q-197 0 -295 -152t-98 -459q0 -126 18 -231z" unicode="Ȼ"/>
<glyph glyph-name="uni023C" d="M1061 57q-74 -43 -152.5 -64.5t-160.5 -21.5q-260 0 -406 156l-8 9l-195 -232l-92 76l216 258q-68 132 -68 321q0 276 146.5 432t406.5 156q81 0 158 -21q40 -11 80 -28l95 114l93 -77l-113 -134v-133q-34 30 -67 52l-540 -641q13 -21 28 -39q94 -113 266 -113 q96 0 172 29.5t141 91.5v-191zM405 406l476 567q-62 18 -133 18q-173 0 -266 -112t-93 -320q0 -83 16 -153z" unicode="ȼ"/>
<glyph glyph-name="uni023D" d="M288 1493h203v-746h263v-170h-263v-407h721v-170h-924v577h-267v170h267v746z" unicode="Ƚ"/>
<glyph glyph-name="uni023E" d="M514 687v636h-467v170h1032l46 66l100 -74l-39 -56v-106h-74l-395 -563v-760h-203v470l-378 -540l-103 70zM717 976l243 347h-243v-347z" unicode="Ⱦ"/>
<glyph glyph-name="uni023F" d="M973 1081v-180q-79 46 -159 69t-163 23q-125 0 -186.5 -40.5t-61.5 -123.5q0 -75 46 -112t229 -72l74 -14q137 -26 207.5 -104t70.5 -203q0 -166 -118 -260q-104 -82 -280 -92l152 -152l147 -126q42 -36 118 -36v-154h-39q-84 0 -198 61q-71 38 -160 129l-237 243 q-51 53 -152 88l-50 16v190h12q117 0 233 -91q68 -15 130 -15q122 0 189 49.5t67 138.5q0 128 -245 177l-8 2l-69 14q-161 33 -232 104q-73 74 -73 201q0 161 109 248.5t311 87.5q90 0 173 -16.5t163 -49.5z" unicode="ȿ"/>
<glyph glyph-name="uni0240" d="M227 1122h813v-168l-662 -821q49 -17 81 -49l264 -264l147 -126q42 -36 118 -36h52v-154h-91q-84 0 -198 61q-71 38 -160 129l-237 243q-61 63 -151 63v156v14l643 805h-619v147z" unicode="ɀ"/>
<glyph glyph-name="uni0241" d="M374 1327q-54 0 -114 -47q-48 -38 -48 -152v-49h-156v70q0 181 96 262.5t222 81.5h295q250 0 379 -113.5t129 -332.5q0 -221 -128.5 -334t-379.5 -113v-600h-202v766h202q140 0 218.5 74t78.5 207t-78 206.5t-219 73.5h-295z" unicode="Ɂ"/>
<glyph glyph-name="uni0244" d="M883 577h-533v-96q0 -109 6 -155.5t21 -71.5q32 -59 92.5 -89t146.5 -30q87 0 147 30t93 89q15 25 21 71t6 154v98zM21 577v170h126v746h203v-746h533v746h202v-746h127v-170h-127v-4q0 -229 -28.5 -325.5t-98.5 -159.5q-66 -59 -151 -88t-191 -29q-105 0 -190 29 t-152 88q-69 62 -98 160.5t-29 324.5v4h-126z" unicode="Ʉ"/>
<glyph glyph-name="uni0245" d="M617 1323l-351 -1323h-209l437 1493h245l437 -1493h-209z" unicode="Ʌ"/>
<glyph glyph-name="uni024C" d="M430 1327v-530h137q145 0 216 65t71 199q0 129 -75.5 197.5t-219.5 68.5h-129zM227 1493h332q246 0 377 -111t131 -321q0 -148 -80.5 -241.5t-226.5 -114.5q78 -20 133 -75q54 -55 137 -222l203 -408h-217l-178 377q-77 161 -138.5 207.5t-160.5 46.5h-109v-631h-203v631 h-206v166h206v696z" unicode="Ɍ"/>
<glyph glyph-name="uni024D" d="M1155 889q-59 46 -120 67t-134 21q-172 0 -263 -108q-77 -92 -89 -253h513v-164h-515v-452h-185v452h-220v164h220v504h185v-219q46 119 141.5 182.5t226.5 63.5q68 0 127 -17t113 -53v-188z" unicode="ɍ"/>
<glyph glyph-name="uni0250" d="M154 479v639h184v-166q60 100 149 147.5t217 47.5q172 0 274 -96.5t102 -258.5q0 -187 -126 -284t-368 -97h-248v-29q0 -134 68 -194.5t214 -60.5q94 0 190 27t188 79v-184q-102 -39 -196 -58.5t-182 -19.5q-138 0 -237 41t-159 123q-38 50 -54 123.5t-16 220.5zM510 555 h62q160 0 242 56.5t82 168.5q0 101 -61 157t-169 56q-152 0 -240 -105.5t-88 -291.5v-41h172z" unicode="ɐ"/>
<glyph glyph-name="uni0251" d="M317 559q0 -214 68 -323t201 -109t202.5 110t69.5 322q0 213 -69.5 322.5t-202.5 109.5t-201 -109t-68 -323zM858 977v141h184v-1118h-184v141q-46 -83 -122.5 -126.5t-176.5 -43.5q-203 0 -319.5 157.5t-116.5 434.5q0 273 117 428.5t319 155.5q101 0 178 -43.5 t121 -126.5z" unicode="ɑ"/>
<glyph glyph-name="uni0252" d="M376 975q46 83 122.5 126.5t176.5 43.5q203 0 319.5 -157.5t116.5 -434.5q0 -273 -117 -428.5t-319 -155.5q-101 0 -178 43.5t-121 126.5v-139h-184v1118h184v-143zM917 557q0 214 -68 323t-201 109t-202.5 -110t-69.5 -322q0 -213 69.5 -322.5t202.5 -109.5t201 109 t68 323z" unicode="ɒ"/>
<glyph glyph-name="uni0253" d="M377 977q44 82 121.5 126t179.5 44q202 0 318 -155.5t116 -428.5q0 -277 -116.5 -434.5t-319.5 -157.5q-100 0 -176.5 43.5t-122.5 126.5v-141h-184v1150q0 195 89.5 300.5t254.5 105.5h204v-156h-184q-90 0 -135 -62.5t-45 -187.5v-173zM918 559q0 214 -68 323t-201 109 q-134 0 -203 -109.5t-69 -322.5q0 -212 69 -322t203 -110q133 0 201 109t68 323z" unicode="ɓ"/>
<glyph glyph-name="uni0254" d="M184 1061q74 43 152 64.5t160 21.5q260 0 407 -156t147 -432t-147 -432t-407 -156q-80 0 -157 21t-155 65v193q72 -65 146 -94t166 -29q174 0 267 112t93 320q0 207 -94 319.5t-266 112.5q-96 0 -172 -29.5t-140 -91.5v191z" unicode="ɔ"/>
<glyph glyph-name="uni0255" d="M632 146q60 -19 134 -19q146 0 146 57q0 75 -132 75q-101 0 -148 -113zM436 -141q0 104 13 185q-57 35 -105 86q-149 161 -149 429q0 276 146.5 432t406.5 156q81 0 158 -21t155 -65v-193q-73 65 -146.5 94t-166.5 29q-173 0 -266 -112t-93 -320q0 -220 99 -319 q7 -7 13 -14q85 176 280 176q301 0 301 -246q0 -189 -334 -189q-82 0 -153 17q-6 -57 -6 -125h-153z" unicode="ɕ"/>
<glyph glyph-name="uni0256" d="M750 977v579h181v-1576q0 -126 35 -188q36 -62 108 -62h6v-156h-56q-132 0 -204 106q-71 105 -71 300v161q-37 -83 -98 -127q-61 -43 -141 -43q-180 0 -283.5 157.5t-103.5 434.5q0 273 104 428.5t283 155.5q81 0 142.5 -43.5t97.5 -126.5zM316 559q0 -214 54.5 -323 t161 -109t162.5 110t56 322q0 213 -56 322.5t-162.5 109.5t-161 -109t-54.5 -323z" unicode="ɖ"/>
<glyph glyph-name="uni0257" d="M748 1002v148q0 195 71 300q72 106 204 106h56v-156h-5q-72 0 -108 -62q-35 -62 -35 -188v-1150h-183v141q-36 -83 -97.5 -126.5t-141.5 -43.5q-180 0 -283 157.5t-103 434.5q0 273 103.5 428.5t282.5 155.5q81 0 142.5 -43.5t96.5 -126.5v25zM315 559q0 -214 54.5 -323 t160.5 -109q107 0 162.5 110t55.5 322q0 213 -55.5 322.5t-162.5 109.5q-106 0 -160.5 -109t-54.5 -323z" unicode="ɗ"/>
<glyph glyph-name="uni0258" d="M306 659h606q-16 156 -102 244t-219 88q-136 0 -210.5 -85t-74.5 -247zM122 606q0 251 123.5 396t337.5 145q240 0 384 -160t144 -428q0 -275 -147 -431.5t-408 -156.5q-91 0 -188.5 21.5t-202.5 64.5v183q109 -57 205 -85t184 -28q174 0 269.5 100t95.5 283v6h-797v90z " unicode="ɘ"/>
<glyph glyph-name="uni0259" d="M306 459q0 -162 74.5 -247t210.5 -85q133 0 219 88t102 244h-606zM122 512v90h797v6q0 183 -95.5 283t-269.5 100q-88 0 -184 -28t-205 -85v183q105 43 202.5 64.5t188.5 21.5q261 0 408 -156.5t147 -431.5q0 -268 -144 -428t-384 -160q-214 0 -337.5 145t-123.5 396z " unicode="ə"/>
<glyph glyph-name="uni025A" d="M368 1147q252 0 371 -232l154 117h140v-148q0 -153 28.5 -201.5t108.5 -48.5h33v-156h-49q-132 0 -196.5 93t-64.5 293l-106 -81q23 -96 23 -214q0 -275 -113 -436.5t-295 -161.5t-281 145q-71 103 -91 259l582 443q-15 40 -35 74q-58 99 -217 99t-306 -104v174 q154 86 314 86zM578 214q76 138 76 345q0 62 -7 118l-469 -356q23 -69 48 -104q62 -90 177.5 -90t174.5 87z" unicode="ɚ"/>
<glyph glyph-name="uni025B" d="M449 607q-119 25 -184 90q-64 64 -64 158q0 134 122 213t331 79q81 0 172 -12q92 -12 197 -36v-167q-104 27 -191 40q-86 12 -162 12q-138 0 -212 -43t-74 -117q0 -61 72 -104q72 -44 207 -44h166v-144h-159q-150 0 -234 -55t-84 -136q0 -98 90 -151q91 -52 264 -52 q99 0 190 18q91 17 168 51v-173q-97 -28 -187 -42q-91 -14 -177 -14q-254 0 -393 91q-138 92 -138 258q0 109 74 183t206 97z" unicode="ɛ"/>
<glyph glyph-name="uni025C" d="M783 607q132 -23 206.5 -97t74.5 -183q0 -166 -138.5 -257.5t-393.5 -91.5q-85 0 -176 14t-187 42v173q76 -34 167 -51.5t191 -17.5q173 0 263.5 52.5t90.5 150.5q0 81 -84.5 136t-234.5 55h-158v144h165q136 0 208 43.5t72 104.5q0 74 -74.5 117t-212.5 43 q-75 0 -161.5 -12.5t-190.5 -39.5v167q105 24 196.5 36t171.5 12q210 0 332 -79t122 -213q0 -94 -65 -158.5t-184 -89.5z" unicode="ɜ"/>
<glyph glyph-name="uni025D" d="M517 607q99 -23 155 -97t56 -183q0 -166 -104 -258q-104 -91 -295 -91q-64 0 -132 14t-140 42v173q57 -34 125 -51q68 -18 143 -18q130 0 197 52q69 53 69 151q0 81 -64 136q-63 55 -176 55h-118v144h124q102 0 156 44q54 43 54 104q0 74 -56 117t-160 43q-56 0 -121 -12 q-65 -13 -143 -40v167q79 24 147 36q69 12 129 12q158 0 249 -79q75 -65 89 -167l169 131h138v-148q0 -153 29 -202q28 -48 107 -48h32v-156h-48q-131 0 -196 96q-61 90 -61 290l-211 -162v1l-5 -6q-49 -65 -138 -90z" unicode="ɝ"/>
<glyph glyph-name="uni025E" d="M451 1099q85 46 246 46q160 0 260.5 -86.5t100.5 -234.5q0 -103 -53.5 -174t-151.5 -98q98 -28 151.5 -99t53.5 -174q0 -148 -101.5 -235t-261.5 -87q-159 0 -244 61q-275 194 -275 538q0 394 275 543zM670 984q-339 0 -339 -418q0 -447 339 -447q118 0 178 59 q59 59 59 135t-59 130q-33 30 -172 30h-136v157h136q139 0 172 30q59 55 59 132t-60.5 134.5t-176.5 57.5z" unicode="ɞ"/>
<glyph glyph-name="uni025F" d="M1137 616v-164h-353v-472q0 -195 -89.5 -300.5t-254.5 -105.5h-254v156h234q90 0 135 62.5t45 187.5v472h-383v164h383v359h-317v143h501v-502h353z" unicode="ɟ"/>
<glyph glyph-name="uni0260" d="M752 569v423h-214q-109 0 -166.5 -108t-57.5 -315t57.5 -315.5t167.5 -108.5q103 0 158 109t55 315zM749 1118v32q0 195 72 300q72 106 206 106h49v-156h-26q-58 0 -87 -62q-28 -62 -28 -188v-1078q0 -251 -104 -382q-104 -130 -310 -130q-62 0 -129 14t-134 41v182 q79 -46 144 -68t119 -22q120 0 175 81t55 257v8v125q-35 -94 -96.5 -140t-149.5 -46q-174 0 -278 157t-104 420q0 233 104 391t278 158h244z" unicode="ɠ"/>
<glyph glyph-name="uni0261" d="M1076 72q0 -252 -119 -382t-350 -130q-76 0 -159 14t-166 41v182q98 -46 178 -68t147 -22q149 0 217 81t68 257v8v125q-44 -94 -120 -140t-185 -46q-196 0 -313 157t-117 420q0 225 117 390q113 159 313 159h489v-1046zM892 569v423h-264q-135 0 -206 -108t-71 -315 t71.5 -315.5t207.5 -108.5q127 0 194.5 109t67.5 315z" unicode="ɡ"/>
<glyph glyph-name="uni0262" d="M946 178v282h-156v140h322v-528q-72 -34 -160 -54q-78 -18 -280 -18q-252 0 -401 159t-149 429q0 274 150 431t412 157q62 0 166 -18q104 -17 232 -92v-172q-120 77 -232 104q-86 22 -158 22q-178 0 -278 -114q-98 -113 -98 -318t98 -318q100 -114 278 -114q174 0 254 22 z" unicode="ɢ"/>
<glyph glyph-name="uni0263" d="M610.5 -268q113.5 0 162 38t48.5 107q0 290 -203 575q-219 -304 -219 -575q0 -69 49 -107t162.5 -38zM738 572q284 -428 284 -761q0 -56 -21.5 -99t-68 -75.5t-126 -49.5t-189.5 -17t-189 17t-126 49.5t-68.5 75.5t-21.5 99q0 340 288 768l-398 539h218l302 -398l292 398 h216z" unicode="ɣ"/>
<glyph glyph-name="uni0264" d="M608 440q-117 -158 -117 -217q0 -104 123 -104q113 0 113 104q0 63 -119 217zM726 575q178 -241 178 -408t-285 -167q-303 0 -303 167q0 177 184 419l-398 532h218l296 -397l298 397h216z" unicode="ɤ"/>
<glyph glyph-name="uni0265" d="M188 424v694h184v-694q0 -151 54 -222t166 -71q130 0 199 91.5t69 262.5v633h184v-1548h-184v598q-50 -97 -134 -147t-198 -50q-172 0 -256 112.5t-84 340.5z" unicode="ɥ"/>
<glyph glyph-name="uni0266" d="M381 962l-2 -10q50 96 134 145.5t198 49.5q172 0 256 -112.5t84 -340.5v-694h-184v694q0 151 -53 222t-167 71q-128 0 -198 -91.5t-70 -262.5v-633h-184v1002v148q0 195 90 300q90 106 254 106h206v-156h-186q-90 0 -134 -62t-44 -188v-188z" unicode="ɦ"/>
<glyph glyph-name="uni0267" d="M381 962l-2 -10q49 96 133.5 145.5t198.5 49.5q171 0 255.5 -112.5t84.5 -340.5v-714q0 -195 -88 -300q-91 -106 -256 -106h-204v156h184q91 0 136 62q44 62 44 188v714q0 151 -53 222t-167 71q-128 0 -198 -91.5t-70 -262.5v-633h-184v1002v148q0 195 90 300 q90 106 254 106h206v-156h-186q-90 0 -134 -62t-44 -188v-188z" unicode="ɧ"/>
<glyph glyph-name="uni0268" d="M238 1118h470v-502h354v-164h-354v-309h366v-143h-914v143h364v309h-382v164h382v361h-286v141zM524 1556h184v-233h-184v233z" unicode="ɨ"/>
<glyph glyph-name="uni0269" d="M1034 0h-204q-166 0 -256 106q-88 102 -88 300v571h-288v141h472v-712q0 -126 44 -188t134 -62h186v-156z" unicode="ɩ"/>
<glyph glyph-name="uni026A" d="M160 1118h914v-141h-366v-834h366v-143h-914v143h364v834h-364v141z" unicode="ɪ"/>
<glyph glyph-name="uni026B" d="M658 406q0 -147 46 -187q72 -63 134 -63h216v-156h-234q-164 0 -255 106t-91 300v198q-46 10 -93 10q-79 0 -149.5 -29.5t-143.5 -92.5v174q78 60 151 87t156 27q41 0 79 -6v649h-294v144h478v-857q114 -53 206 -53q70 0 138.5 30.5t142.5 92.5v-174 q-75 -59 -146.5 -86.5t-150.5 -27.5q-85 0 -190 45v-131z" unicode="ɫ"/>
<glyph glyph-name="uni026C" d="M498 786q-23 132 -94 132q-78 0 -78 -75q0 -57 92 -57h80zM682 406q0 -124 45.5 -187t134.5 -63h214v-156h-232q-165 0 -255.5 106t-90.5 300v220h-62q-279 0 -279 189q0 246 246 246q53 0 95 -25v387h-295v144h479v-781h250v-160h-250v-220z" unicode="ɬ"/>
<glyph glyph-name="uni026D" d="M639 -20q0 -124 45.5 -187t134.5 -63h215v-156h-233q-165 0 -255.5 106t-90.5 300v1443h-295v144h479v-1587z" unicode="ɭ"/>
<glyph glyph-name="uni026E" d="M424 406q0 -124 36 -187t108 -63h172v-156h-187q-132 0 -204.5 106t-72.5 300v1017h-236v144h384v-447h698v-168l-329 -476q84 0 187 -56q79 -43 148 -151q64 -104 64 -242q0 -221 -121.5 -342t-345.5 -121q-75 0 -154 18q-80 19 -165 56v195q67 -49 147 -74t167 -25 q152 0 232 75t80 218q0 132 -74 207q-74 74 -206 74h-140v166l344 499h-532v-567z" unicode="ɮ"/>
<glyph glyph-name="uni026F" d="M562 141q-34 -72 -86 -106.5t-126 -34.5q-136 0 -191 104.5t-55 393.5v649h168v-641q0 -237 26 -294.5t96 -57.5q80 0 110 61.5t30 290.5v641h168v-641q0 -240 28 -296t102 -56t102 61.5t28 290.5v641h168v-1120h-168v96q-32 -60 -82 -91.5t-112 -31.5q-76 0 -127 35 t-79 106z" unicode="ɯ"/>
<glyph glyph-name="uni0270" d="M562 141q-34 -72 -86 -106.5t-126 -34.5q-136 0 -191 104.5t-55 393.5v649h168v-641q0 -237 26 -294.5t96 -57.5q80 0 110 61.5t30 290.5v641h168v-641q0 -240 28 -296t102 -56t102 61.5t28 290.5v641h168v-1577h-168v553q-32 -60 -82 -91.5t-112 -31.5q-76 0 -127 35 t-79 106z" unicode="ɰ"/>
<glyph glyph-name="uni0271" d="M670 1006q34 72 86.5 106.5t126.5 34.5q135 0 190.5 -104.5t55.5 -393.5v-669q0 -194 -80.5 -300t-230.5 -106h-186v156h168q83 0 122 62t39 188v661q0 237 -26.5 294.5t-96.5 57.5q-80 0 -109.5 -61.5t-29.5 -290.5v-641h-168v641q0 240 -28.5 296t-102.5 56 q-73 0 -101.5 -61.5t-28.5 -290.5v-641h-167v1118h167v-94q33 64 82.5 93.5t112.5 29.5q83 0 127 -35q53 -43 78 -106z" unicode="ɱ"/>
<glyph glyph-name="uni0272" d="M490 -20q0 -214 -61.5 -310t-197.5 -96h-53v156h2q68 0 96 48q28 49 28 202v1138h186v-172q49 101 117 151q67 50 154 50q168 0 254 -119q86 -120 86 -352v-676h-185v670q0 159 -46 238t-140 79q-111 0 -176 -95q-64 -95 -64 -259v-653z" unicode="ɲ"/>
<glyph glyph-name="uni0273" d="M744 -20v690q0 159 -46 238q-47 79 -140 79q-112 0 -176 -95q-65 -95 -65 -259v-633h-181v1118h181v-172q50 101 117 151t155 50q168 0 254 -119q86 -120 86 -352v-696q0 -153 29 -202q29 -48 92 -48h4v-156h-52q-136 0 -196 96q-62 96 -62 310z" unicode="ɳ"/>
<glyph glyph-name="uni0274" d="M144 1147h272l477 -903v903h196v-1147h-272l-477 903v-903h-196v1147z" unicode="ɴ"/>
<glyph glyph-name="uni0275" d="M895 447h-557q14 -132 66 -211q72 -109 212 -109q141 0 213 109q52 79 66 211zM616 991q-140 0 -212 -109q-63 -95 -71 -271h567q-8 176 -71 271q-72 109 -213 109zM616 1147q233 0 356.5 -151t123.5 -437q0 -287 -123 -437.5t-357 -150.5q-233 0 -356 150.5t-123 437.5 q0 286 123 437t356 151z" unicode="ɵ"/>
<glyph glyph-name="uni0276" d="M596 973h-23q-151 0 -226 -104q-75 -103 -75 -310q0 -208 75 -312q75 -105 226 -105h23v831zM1153 1120v-170h-373v-275h356v-155h-356v-348h384v-172h-600q-243 0 -369 142q-126 143 -126 419q0 274 126 416q126 143 369 143h589z" unicode="ɶ"/>
<glyph glyph-name="uni0277" d="M1062 435q0 -171 -48 -307q-55 -158 -192 -158q-95 0 -162 122q-27 50 -43 151q-16 -101 -43 -151q-67 -122 -162 -122q-118 0 -186 154q-56 124 -56 307q0 255 64 428q106 288 383 288q235 0 355 -237q90 -176 90 -475zM896 510q0 156 -57 269q-80 161 -225 161 q-131 0 -203 -111q-74 -115 -74 -346q0 -312 124 -312q34 0 75 79q22 43 22 228v182h117v-182q0 -185 23 -228q41 -79 73 -79q125 0 125 339z" unicode="ɷ"/>
<glyph glyph-name="uni0278" d="M532 139v840q-79 -24 -128 -97q-72 -109 -72 -323q0 -213 72 -323q49 -73 128 -97zM716 974v-830q69 26 113 92q72 110 72 323q0 214 -72 323q-44 66 -113 92zM532 1391h-240v164h664v-164h-240v-252q161 -26 256 -143q124 -151 124 -437q0 -287 -123 -437 q-95 -117 -257 -143v-240h240v-165h-664v165h240v237q-172 23 -272 146q-123 150 -123 437q0 286 123 437q100 123 272 146v249z" unicode="ɸ"/>
<glyph glyph-name="uni0279" d="M152 231q59 -46 120 -67t134 -21q172 0 263 108t91 312v555h185v-1118h-185v219q-46 -119 -141.5 -182.5t-226.5 -63.5q-68 0 -127 17t-113 53v188z" unicode="ɹ"/>
<glyph glyph-name="uni027A" d="M152 231q59 -46 120 -67t134 -21q172 0 263 108t91 312v1004h185v-1567h-185v219q-46 -119 -141.5 -182.5t-226.5 -63.5q-68 0 -127 17t-113 53v188z" unicode="ɺ"/>
<glyph glyph-name="uni027B" d="M895 -20q0 -125 44.5 -187.5t134.5 -62.5h78v-156h-98q-165 0 -254.5 105.5t-89.5 300.5v239q-46 -119 -141.5 -182.5t-226.5 -63.5q-68 0 -127 17t-113 53v188q59 -46 120 -67t134 -21q172 0 263 108t91 312v555h185v-1138z" unicode="ɻ"/>
<glyph glyph-name="uni027C" d="M1155 889q-59 46 -120 67t-134 21q-172 0 -263 -108t-91 -312v-983h-185v1544h185v-217q46 119 141.5 182.5t226.5 63.5q68 0 127 -17t113 -53v-188z" unicode="ɼ"/>
<glyph glyph-name="uni027D" d="M547 -20q0 -125 44 -188q44 -62 135 -62h234v-156h-254q-165 0 -254.5 105.5t-89.5 300.5v1138h185v-217q46 119 141.5 182.5t226.5 63.5q68 0 127 -17t113 -53v-188q-59 46 -120 67t-134 21q-172 0 -263 -108t-91 -312v-577z" unicode="ɽ"/>
<glyph glyph-name="uni027E" d="M520 741q0 212 82 310q82 96 262 96h210v-156h-188q-106 0 -144 -48q-36 -50 -36 -202v-598h368v-143h-914v143h360v598z" unicode="ɾ"/>
<glyph glyph-name="uni027F" d="M712 741v-598h362v-143h-914v143h366v598q0 154 -36 202t-144 48h-186v156h208q180 0 262 -96q82 -98 82 -310z" unicode="ɿ"/>
<glyph glyph-name="uni0280" d="M307 965v-337h198q119 0 182 43q64 43 64 126q0 84 -64 126q-63 42 -182 42h-198zM724 525q55 -17 108 -71q52 -54 105 -148l174 -306h-195l-162 287q-63 113 -122 149q-59 37 -156 37h-169v-473h-185v1118h388q217 0 325 -78q107 -77 107 -243q0 -105 -56 -175t-162 -97 z" unicode="ʀ"/>
<glyph glyph-name="uni0281" d="M307 155h198q119 0 182 42q64 42 64 126q0 83 -64 126q-63 43 -182 43h-198v-337zM724 595q106 -27 162 -97t56 -175q0 -162 -107 -243q-108 -80 -325 -80h-388v1118h185v-471h169q97 0 156 37q59 36 122 149l162 285h195l-174 -304q-53 -94 -105 -148q-53 -54 -108 -71z " unicode="ʁ"/>
<glyph glyph-name="uni0282" d="M984 1087v-174q-78 40 -161.5 60t-174.5 20q-136 0 -204 -42q-70 -42 -70 -126q0 -64 50 -101q48 -36 196 -69l64 -14q196 -42 278 -119q82 -76 82 -213q0 -157 -122 -247q-124 -91 -340 -91q-104 0 -210 21q0 -159 38 -214q34 -48 144 -48h232v-156h-254q-180 0 -262 96 t-82 310v251q102 -53 202 -79q98 -27 196 -27q130 0 200 45q70 44 70 125q0 75 -50 115q-52 40 -222 77l-64 15q-172 36 -248 110q-76 75 -76 205q0 158 112 244t318 86q102 0 192.5 -15t165.5 -45z" unicode="ʂ"/>
<glyph glyph-name="uni0283" d="M723 -20q0 -195 -89.5 -300.5t-254.5 -105.5h-254v156h234q90 0 135 62.5t45 187.5v1218q0 184 84.5 271t263.5 87h221v-153h-209q-99 0 -137.5 -40.5t-38.5 -143.5v-1239z" unicode="ʃ"/>
<glyph glyph-name="uni0284" d="M1076 616v-164h-353v-472q0 -195 -89.5 -300.5t-254.5 -105.5h-254v156h234q90 0 135 62.5t45 187.5v472h-383v164h383v361h-317v141h317v80q0 184 84.5 271t263.5 87h221v-153h-209q-99 0 -137.5 -40.5t-38.5 -143.5v-603h353z" unicode="ʄ"/>
<glyph glyph-name="uni0285" d="M723 712v-801q0 -103 39 -143q38 -41 137 -41h209v-153h-221q-179 0 -263.5 87t-84.5 271v780q0 124 -45 188q-45 62 -135 62h-234v156h254q165 0 254.5 -105.5t89.5 -300.5z" unicode="ʅ"/>
<glyph glyph-name="uni0286" d="M763 0h183v-155h-191q-18 -111 -71 -175q-82 -96 -263 -96q-303 0 -303 216q0 210 270 210h190v1198q0 180 87 272q81 86 276 86h174v-153h-176q-100 0 -137 -40q-39 -41 -39 -144v-1219zM568 -154h-179q-116 0 -116 -51q0 -65 127 -65q110 0 143 48q18 23 25 68z" unicode="ʆ"/>
<glyph glyph-name="uni0287" d="M584 -318v318h-418v143h418v608q0 124 -47 173t-164 49h-207v147h225q207 0 292 -83t85 -286v-608h299v-143h-299v-318h-184z" unicode="ʇ"/>
<glyph glyph-name="uni0288" d="M614 1438v-318h418v-143h-418v-1033q0 -124 47 -173t164 -49h207v-147h-225q-207 0 -292 83t-85 286v1033h-299v143h299v318h184z" unicode="ʈ"/>
<glyph glyph-name="uni0289" d="M895 452h-569v-3q0 -159 62 -239q62 -79 186 -79q149 0 236 95q77 85 85 226zM0 452v164h142v504h184v-504h570v504h184v-504h153v-164h-153v-452h-184v172q-67 -102 -156 -152q-89 -49 -206 -49q-193 0 -292.5 120t-99.5 351v10h-142z" unicode="ʉ"/>
<glyph glyph-name="uni028A" d="M95 956v164h442v-220q-109 -69 -172 -174q-66 -111 -66 -246q0 -159 88 -256t232 -97t232 97q88 98 88 256q0 146 -66 246q-71 111 -171 174v220h436v-164h-236q114 -100 170 -213q54 -110 54 -246q0 -235 -142 -381t-367 -146t-367 145q-142 146 -142 374q0 147 52 254 q53 109 172 213h-237z" unicode="ʊ"/>
<glyph glyph-name="uni028B" d="M597 986h322q114 -100 170 -213q54 -110 54 -246q0 -235 -142 -381t-367 -146h-70q-181 0 -263 96q-81 96 -81 310v571h-155v143h339v-714q0 -153 38 -202q38 -48 135 -48h8l51 1q144 0 232 97q88 98 88 256q0 146 -66 246q-79 119 -171 174q-76 44 -122 56z" unicode="ʋ"/>
<glyph glyph-name="uni028C" d="M1162 0h-196l-350 940l-350 -940h-194l420 1120h250z" unicode="ʌ"/>
<glyph glyph-name="uni028D" d="M1218 0h-148l-184 874l-183 -874h-173l-184 874l-184 -874h-147l235 1120h173l193 -918l194 918h173z" unicode="ʍ"/>
<glyph glyph-name="uni028E" d="M564 1224q78 200 152 261t198 61h146v-154h-108q-76 0 -118 -36t-92 -170l-34 -84l454 -1102h-196l-350 876l-350 -876h-194z" unicode="ʎ"/>
<glyph glyph-name="uni028F" d="M102 1149h217l293 -456l302 456h217l-419 -624v-525h-203v525z" unicode="ʏ"/>
<glyph glyph-name="uni0290" d="M213 1120h679v-168l-519 -805h537l1 -167q0 -153 21 -202q21 -48 80 -48h27v-156h-52q-136 0 -197 96t-61 310v20h-535v168l519 805h-500v147z" unicode="ʐ"/>
<glyph glyph-name="uni0291" d="M703 147h20q174 0 174 54q0 91 -70 91q-88 -2 -124 -145zM682 0q-3 -51 -3 -111h-153q0 59 3 111h-362v168l692 805h-667v147h874v-168l-692 -805h175q60 288 279 288q227 0 228 -247q0 -188 -333 -188h-41z" unicode="ʑ"/>
<glyph glyph-name="uni0292" d="M609 476q106 0 234 -56q98 -42 184 -151q81 -104 81 -242q0 -221 -152 -342t-432 -121q-94 0 -193 18q-100 19 -206 56v195q84 -49 184 -74t209 -25q190 0 289 75q100 75 100 218q0 132 -92 207q-93 74 -258 74h-174v166l430 499h-667v147h874v-168z" unicode="ʒ"/>
<glyph glyph-name="uni0293" d="M773 -186q-125 42 -322 42q-131 0 -132 -75q0 -47 158 -47q190 0 289 75zM483 -436q-333 0 -333 187q0 248 288 248h12q246 -4 404 -63q12 42 12 91q0 133 -92 207q-94 74 -258 74h-174v166l430 499h-667v147h874v-168l-411 -476q105 0 234 -56q100 -43 184 -151 q81 -103 81 -242q0 -113 -39 -198q100 -101 100 -265h-153q0 82 -40 138l-20 -17q-151 -121 -432 -121z" unicode="ʓ"/>
<glyph glyph-name="uni0294" d="M446 798h63q191 0 278 114q58 76 58 174q0 133 -58 198q-102 114 -278 114q-80 0 -159 -22q-78 -21 -156 -64v172q76 35 157 52q81 18 166 18q275 0 413 -157q109 -125 109 -311q0 -170 -108 -285q-112 -119 -282 -149v-652h-203v798z" unicode="ʔ"/>
<glyph glyph-name="uni0295" d="M786 798v-798h-202v652q-170 30 -282 149q-108 115 -108 285q0 186 110 311q137 157 412 157q85 0 166 -18q81 -17 157 -52v-172q-78 43 -157 64q-78 22 -158 22q-179 0 -278 -114q-57 -65 -58 -198q0 -98 58 -174q86 -114 278 -114h62z" unicode="ʕ"/>
<glyph glyph-name="uni0296" d="M446 756v798h203v-652q170 -30 282 -149q108 -115 108 -285q0 -186 -109 -311q-138 -157 -413 -157q-85 0 -166 18q-81 17 -157 52v172q78 -43 156 -64q79 -22 159 -22q179 0 278 114q57 65 58 198q0 98 -58 174q-86 114 -278 114h-63z" unicode="ʖ"/>
<glyph glyph-name="uni0297" d="M194 1086q0 186 110 311q137 157 412 157q85 0 166 -18q81 -17 157 -52v-172q-78 43 -157 64q-78 22 -158 22q-179 0 -278 -114q-57 -65 -58 -198v-1056q1 -133 58 -198q99 -114 278 -114q80 0 158 22q79 21 157 64v-172q-76 -35 -157 -52q-81 -18 -166 -18 q-275 0 -412 157q-110 125 -110 311v1056z" unicode="ʗ"/>
<glyph glyph-name="uni0298" d="M503 567q0 46 34 80q33 34 80 34q46 0 80 -34q33 -34 33 -80q0 -47 -33 -80t-80 -33t-80 33q-34 33 -34 80zM276 566q0 -141 101 -240q100 -99 241 -99t240 99t99 240q0 138 -100 240q-101 102 -239 102q-141 0 -241 -102q-101 -102 -101 -240zM95 565q0 212 154 368 q154 157 370 157q212 0 366 -157q154 -156 154 -368q0 -216 -151.5 -368t-368 -152t-370.5 152t-154 368z" unicode="ʘ"/>
<glyph glyph-name="uni0299" d="M209 1149h397q178 0 274 -74t96 -210q0 -105 -49 -167.5t-145 -77.5q115 -25 178.5 -103t63.5 -195q0 -154 -104.5 -238t-297.5 -84h-413v1149zM411 980v-280h210q85 0 127 42.5t42 105.5q0 46 -42 89t-128 43h-209zM411 530v-360h221q93 0 140.5 52.5t47.5 115.5 q0 92 -45 142t-139 50h-225z" unicode="ʙ"/>
<glyph glyph-name="uni029A" d="M782 1099q276 -151 276 -543q0 -344 -276 -538q-83 -60 -224 -60h-9q-173 0 -273 87q-100 86 -100 234q0 103 53 174t151 99q-98 27 -151 98t-53 174q0 148 100 235q100 86 273 86q150 0 233 -46zM562 984q-115 0 -172 -54q-64 -61 -64 -138t60 -132q32 -30 170 -30h137 v-157h-137q-138 0 -170 -30q-60 -54 -60 -132q0 -74 64 -138q55 -54 172 -54q340 1 340 447q0 418 -340 418z" unicode="ʚ"/>
<glyph glyph-name="uni029B" d="M718 178v282h-116v140h286v-528q-1 -4 -164 -54q-58 -18 -210 -18q-212 0 -335 159q-125 160 -125 429q0 271 127 431q124 157 343 157q51 0 123 -18q24 -6 37 -11v1q0 216 62 310q60 96 196 96h190v-156h-129q-78 0 -108 -48q-28 -51 -28 -202v-148h-2v-106 q-29 38 -218 104q-63 22 -118 22q-134 0 -209 -114q-74 -113 -74 -318t74 -318q75 -114 209 -114q130 0 189 22z" unicode="ʛ"/>
<glyph glyph-name="uni029C" d="M144 1147h202v-447h541v447h202v-1147h-202v530h-541v-530h-202v1147z" unicode="ʜ"/>
<glyph glyph-name="uni029D" d="M655 -154h-181q-116 0 -116 -49q0 -67 126 -67q106 0 144 48q17 23 27 68zM850 1120v-1120h180v-155h-190q-19 -112 -72 -175q-81 -96 -262 -96q-304 0 -304 221q0 205 270 205h194v977h-318v143h502zM666 1556h184v-233h-184v233z" unicode="ʝ"/>
<glyph glyph-name="uni029E" d="M1114 -436h-186v919l-548 -483h-236l594 524l-618 596h240l568 -547v547h186v-1556z" unicode="ʞ"/>
<glyph glyph-name="uni029F" d="M245 1147h202v-977h541v-170h-743v1147z" unicode="ʟ"/>
<glyph glyph-name="uni02A0" d="M228 559q0 -203 63 -319q63 -115 172.5 -115t172.5 115q63 116 63 319t-63 319q-63 115 -172.5 115t-172.5 -115q-63 -116 -63 -319zM699 168q-44 -100 -110 -148q-67 -49 -160 -49q-174 0 -284 162q-109 162 -109 426t109 426q110 162 284 162q93 0 160 -49 q66 -48 110 -148v198q0 214 61 310t197 96h190v-156h-127q-79 0 -108 -48q-28 -49 -28 -202v-1574h-185v594z" unicode="ʠ"/>
<glyph glyph-name="uni02A1" d="M446 798h63q191 0 278 114q58 76 58 174q0 133 -58 198q-102 114 -278 114q-80 0 -159 -22q-78 -21 -156 -64v172q76 35 157 52q81 18 166 18q275 0 413 -157q109 -125 109 -311q0 -170 -108 -285q-112 -119 -282 -149v-212h231v-164h-231v-276h-202v276h-229v164h228 v358z" unicode="ʡ"/>
<glyph glyph-name="uni02A2" d="M584 440v212q-170 30 -282 149q-108 115 -108 285q0 186 110 311q137 157 412 157q85 0 166 -18q81 -17 157 -52v-172q-78 43 -157 64q-78 22 -158 22q-176 0 -278 -114q-58 -65 -58 -198q0 -98 58 -174q87 -114 278 -114h62v-358h229v-164h-229v-276h-202v276h-231v164 h231z" unicode="ʢ"/>
<glyph glyph-name="uni02A3" d="M654 973v-773l399 773h-399zM544 950v606h110v-436h523v-168l-415 -805h415v-147h-523h-16h-94v168q-33 -97 -92 -148q-56 -49 -134 -49q-128 0 -208.5 162t-80.5 426t80.5 426t208.5 162q78 0 134 -49q58 -48 92 -148zM168 559q0 -203 50 -318.5t137.5 -115.5t138 115.5 t50.5 318.5t-50.5 318.5t-138 115.5t-137.5 -115.5t-50 -318.5z" unicode="ʣ"/>
<glyph glyph-name="uni02A4" d="M627 973l1 -973h-111v168q-35 -100 -88 -148q-53 -49 -127 -49q-122 0 -198 162q-77 162 -77 426t77 426q76 162 198 162q74 0 127 -49q53 -48 88 -148v606h111l-1 -436h524v-168l-246 -476q63 0 140 -56q59 -42 110 -151q49 -104 49 -242q0 -221 -91 -342t-259 -121 q-57 0 -116 18q-60 19 -124 56v195q51 -49 111 -74t125 -25q114 0 173 75q60 75 60 218q0 132 -55 207q-56 74 -155 74h-104v166l258 499h-399h-1zM141 559q0 -203 50 -319q50 -115 138 -115q87 0 138 115q50 116 50 319t-50 319q-51 115 -138 115q-88 0 -138 -115 q-50 -116 -50 -319z" unicode="ʤ"/>
<glyph glyph-name="uni02A5" d="M959 147h12q104 0 104 54q0 91 -42 91q-53 -2 -74 -145zM655 1120h521v-168l-415 -805h105q36 288 168 288q136 0 136 -246q1 -189 -199 -189h-25q-2 -51 -2 -111h-92q0 83 1 110l-216 1h-92v168q-35 -100 -88 -148.5t-128 -48.5q-121 0 -197.5 162t-76.5 426t76.5 426 t197.5 162q75 0 128 -48.5t88 -148.5v606h110v-436zM652 973l3 -770l397 770h-397h-3zM169 559q0 -203 50 -318.5t137.5 -115.5t138 115.5t50.5 318.5t-50.5 318.5t-138 115.5t-137.5 -115.5t-50 -318.5z" unicode="ʥ"/>
<glyph glyph-name="uni02A6" d="M1044 1087v-174q-47 40 -97.5 60t-104.5 20q-82 0 -123 -42t-41 -126q0 -64 29.5 -100.5t118.5 -69.5l37 -14q119 -44 167 -119q50 -76 50 -213q0 -156 -74 -247t-204 -91q-54 0 -112 17q-56 17 -118 50v-38h-113q-128 0 -176.5 79.5t-48.5 289.5v608h-81v143h81v318h111 v-318h227v-143h-227v-608q0 -137 22.5 -176t91.5 -39h107v77q62 -53 121 -79.5t118 -26.5q78 0 120 44.5t42 125.5q0 75 -31 115q-27 36 -133 77l-38 15q-103 36 -148.5 110.5t-45.5 204.5q0 158 67.5 244t190.5 86q61 0 115 -15t100 -45z" unicode="ʦ"/>
<glyph glyph-name="uni02A7" d="M675 154q-1 279 -1 823h-281v-608q0 -138 28 -176q29 -39 114 -39h140zM393 1438v-318h281v78q0 182 65 272q60 86 207 86h130v-153h-132q-74 0 -102 -40q-30 -41 -30 -144l2 -1239q0 -215 -61 -310q-61 -96 -197 -96h-53v156h37q78 0 107 48q29 50 29 202v20h-141 q-161 0 -220 80q-61 77 -61 289v608h-101v143h101v318h139z" unicode="ʧ"/>
<glyph glyph-name="uni02A8" d="M587 154q-77 157 -77 405q0 263 84 418h-221v-608q0 -137 22.5 -176t91.5 -39h100zM772 146q36 -19 81 -19q87 0 87 57q0 75 -79 75q-61 0 -89 -113zM373 1438v-318h228v-130q90 157 247 157q51 0 100 -17q48 -18 94 -53v-172q-47 43 -94 65q-47 21 -95 21 q-108 0 -167 -113q-59 -114 -59 -319t59 -319l8 -14q50 176 168 176q179 0 180 -246q0 -189 -200 -189q-49 0 -92 17q-3 -57 -3 -125l-92 -3q0 104 7 188q-33 34 -61 84v-128h-114q-128 0 -176.5 79.5t-48.5 289.5v608h-81v143h81v318h111z" unicode="ʨ"/>
<glyph glyph-name="uni02A9" d="M1095 676v-696q0 -214 -49 -310t-157 -96h-153v156h140q63 0 86 48q23 49 23 202v690q0 159 -37.5 238t-111.5 79q-89 0 -141 -95t-52 -259v-633h-111v977h-180v-977h-110v977h-106v143h106v78q0 187 52 272.5t165 85.5h105v-153h-106q-59 0 -82.5 -40t-23.5 -144v-99 h180h2h109v-174q40 101 93 151q54 50 124 50q116 0 176 -119q59 -120 59 -352z" unicode="ʩ"/>
<glyph glyph-name="uni02AA" d="M368 788v-562q75 -51 144 -74q74 -27 147 -27q97 0 150 45q52 43 52 125q0 75 -37 115q-34 35 -167 77l-48 15q-128 36 -185 110q-50 65 -56 176zM958 1087v-174q-59 41 -121 60q-65 20 -131 20q-103 0 -154 -42t-51 -126q0 -63 36 -101q38 -36 148 -69l47 -14 q149 -44 209 -119q62 -76 62 -213q0 -155 -93 -247q-91 -91 -254 -91q-65 0 -141 17q-79 21 -147 50v-38h-138v1556h138v-710q8 138 83 215q84 86 239 86q76 0 144 -15q67 -15 124 -45z" unicode="ʪ"/>
<glyph glyph-name="uni02AB" d="M357 973v-774l499 774h-499zM219 1556h138v-436h655v-168l-519 -805h519v-147h-655h-20h-118v1556z" unicode="ʫ"/>
<glyph glyph-name="uni02AC" d="M143 1311h116l145 -489l144 489h137l145 -489l144 489h116l-185 -627h-136l-152 514l-153 -514h-136zM143 597h116l145 -489l144 489h137l145 -489l144 489h116l-185 -627h-136l-152 514l-153 -514h-136z" unicode="ʬ"/>
<glyph glyph-name="uni02AD" d="M143 1311h947v-424h-143v261h-661v-261h-143v424zM143 597h947v-424h-143v261h-661v-261h-143v424z" unicode="ʭ"/>
<glyph glyph-name="uni02AE" d="M644 -29q-293 0 -293 471v708q0 153 -28.5 201.5t-107.5 48.5h-37v156h53q136 0 197 -96t61 -310v-702q0 -317 186 -317q112 0 176.5 95t64.5 259v633h138v-1556h-138v610q-99 -201 -272 -201z" unicode="ʮ"/>
<glyph glyph-name="uni02AF" d="M446 448q0 -317 148 -317q90 0 141.5 95t51.5 259v633h111v-1138v-22q0 -130 23 -179t85 -49h30v-156h-42q-109 0 -156 92q-50 103 -51 334v172q-79 -201 -217 -201q-235 0 -235 471v708q0 153 -23 202q-23 48 -86 48h-29v156h42q109 0 158 -96t49 -310v-702z" unicode="ʯ"/>
<glyph glyph-name="uni02B0" d="M912 1047v-379h-116v375q0 89 -39 133.5t-117 44.5q-94 0 -148 -53.5t-54 -145.5v-354h-117v871h117v-341q41 56 97.5 84t130.5 28q121 0 183.5 -67t62.5 -196z" unicode="ʰ"/>
<glyph glyph-name="uni02B1" d="M437 1196h1q41 57 97.5 85t130.5 28q121 0 183.5 -67t62.5 -197v-378h-116v375q0 89 -39 133t-117 44q-94 0 -148 -53t-54 -145v-354h-117v561v83q0 119 52 173q51 54 165 54h160v-87h-147q-66 0 -90 -27q-24 -28 -24 -113v-115z" unicode="ʱ"/>
<glyph glyph-name="uni02B2" d="M631 1539h116v-130h-116v130zM631 1295h116v-638q0 -120 -51.5 -174t-165.5 -54h-44v88h31q66 0 90 27t24 113v638z" unicode="ʲ"/>
<glyph glyph-name="uni02B3" d="M823 1199q-19 10 -42 14.5t-51 4.5q-98 0 -151 -56.5t-53 -163.5v-330h-116v627h116v-97q37 57 95.5 84.5t142.5 27.5q12 0 26.5 -1t32.5 -4v-106z" unicode="ʳ"/>
<glyph glyph-name="uni02B4" d="M410 764q19 -10 42 -14.5t51 -4.5q98 0 151 56.5t53 163.5v330h116v-627h-116v97q-37 -57 -95.5 -84.5t-142.5 -27.5q-12 0 -26.5 1.5t-32.5 3.5v106z" unicode="ʴ"/>
<glyph glyph-name="uni02B5" d="M337 764q20 -10 43 -14.5t51 -4.5q98 0 150.5 56.5t52.5 163.5v330h117v-555v-72v-11q0 -86 24 -113t90 -27h31v-88h-45q-114 0 -165 54t-51 174v11h-1v97q-36 -57 -95 -84.5t-142 -27.5q-12 0 -26.5 1.5t-32.5 3.5z" unicode="ʵ"/>
<glyph glyph-name="uni02B6" d="M422 755h124q75 0 115 23q40 24 40 71q0 46 -40 70q-40 25 -115 25h-124v-189zM684 1001q67 -15 102.5 -54t35.5 -98q0 -91 -68 -136t-205 -45h-244v627h117v-265h106q61 0 98 21q37 20 77 83l102 161h123l-110 -171q-33 -53 -66 -83t-68 -40z" unicode="ʶ"/>
<glyph glyph-name="uni02B7" d="M143 1295h116l145 -489l144 489h137l145 -489l144 489h116l-185 -627h-136l-152 514l-153 -514h-136z" unicode="ʷ"/>
<glyph glyph-name="uni02B8" d="M650 610q-49 -112 -95.5 -146.5t-125.5 -34.5h-92v87h68q48 0 74.5 20t58.5 95l21 47l-286 617h123l220 -490l221 490h123z" unicode="ʸ"/>
<glyph glyph-name="uni02B9" d="M492 1140l65 498h190l-110 -498h-145z" unicode="ʹ"/>
<glyph glyph-name="uni02BB" d="M715 967h-252v207l196 382h154l-98 -382v-207z" unicode="ʻ"/>
<glyph glyph-name="uni02BC" d="M561 1556h252v-206l-197 -383h-153l98 383v206z" unicode="ʼ"/>
<glyph glyph-name="uni02BD" d="M496 1475v254h241v-254h-112q0 -134 112 -134v-123q-241 0 -241 257z" unicode="ʽ"/>
<glyph glyph-name="uni02BE" d="M480 1007v123q64 0 108 44t44 108q0 63 -44 107t-108 44v123q114 0 194 -80q80 -79 80 -194t-80 -195t-194 -80z" unicode="ʾ"/>
<glyph glyph-name="uni02BF" d="M754 1007q-116 0 -196 80q-78 80 -78 195t78 194q80 80 196 80v-123q-64 0 -108 -44t-44 -107q0 -64 44 -108t108 -44v-123z" unicode="ʿ"/>
<glyph glyph-name="uni02C0" d="M509 1357h40q121 0 175 64q36 42 36 97q0 75 -36 111q-62 64 -175 64q-51 0 -100 -12q-50 -12 -99 -36v96q48 20 99 29q51 10 105 10q173 0 260 -88q69 -70 69 -174q0 -95 -68 -159q-71 -67 -178 -84v-365h-127z" unicode="ˀ"/>
<glyph glyph-name="uni02C1" d="M723 1357v-447h-127v365q-107 17 -178 84q-68 64 -68 159q0 104 70 174q86 88 259 88q54 0 105 -10q51 -9 99 -29v-96q-49 24 -99 36q-49 12 -100 12q-113 0 -175 -64q-36 -36 -36 -111q0 -55 36 -97q54 -64 175 -64h39z" unicode="ˁ"/>
<glyph glyph-name="circumflex" d="M543 1638h147l246 -376h-139l-181 245l-180 -245h-139z" unicode="ˆ"/>
<glyph glyph-name="caron" d="M543 1262l-246 376h139l180 -245l181 245h139l-246 -376h-147z" unicode="ˇ"/>
<glyph glyph-name="uni02C8" d="M684 1554v-555h-136v555h136z" unicode="ˈ"/>
<glyph glyph-name="uni02C9" d="M317 1526h598v-148h-598v148z" unicode="ˉ"/>
<glyph glyph-name="uni02CC" d="M684 252v-555h-136v555h136z" unicode="ˌ"/>
<glyph glyph-name="uni02CD" d="M318 -209h598v-148h-598v148z" unicode="ˍ"/>
<glyph glyph-name="uni02D0" d="M616 330l179 -330h-357zM616 729l-178 330h357z" unicode="ː"/>
<glyph glyph-name="uni02D1" d="M616 729l-178 330h357z" unicode="ˑ"/>
<glyph glyph-name="uni02D2" d="M480 510v123q64 0 108 44t44 108q0 63 -44 107t-108 44v123q114 0 194 -80q80 -79 80 -194t-80 -195t-194 -80z" unicode="˒"/>
<glyph glyph-name="uni02D3" d="M754 510q-116 0 -196 80q-78 80 -78 195t78 194q80 80 196 80v-123q-64 0 -108 -44t-44 -107q0 -64 44 -108t108 -44v-123z" unicode="˓"/>
<glyph glyph-name="uni02D6" d="M542 629v224h150v-224h224v-150h-224v-224h-150v224h-224v150h224z" unicode="˖"/>
<glyph glyph-name="uni02D7" d="M842 479h-450v150h450v-150z" unicode="˗"/>
<glyph glyph-name="breve" d="M303 1608h119q11 -76 59 -113t135 -37q85 0 133 37t62 113h119q-11 -143 -90 -215t-224 -72q-144 0 -223 72t-90 215z" unicode="˘"/>
<glyph glyph-name="dotaccent" d="M513 1552h205v-204h-205v204z" unicode="˙"/>
<glyph glyph-name="ring" d="M768 1524q0 63 -44 107t-108 44t-107.5 -43.5t-43.5 -107.5q0 -65 43.5 -108.5t107.5 -43.5t108 44t44 108zM891 1524q0 -115 -79.5 -195t-195.5 -80q-115 0 -194.5 80t-79.5 195t79.5 194.5t194.5 79.5q116 0 195.5 -79.5t79.5 -194.5z" unicode="˚"/>
<glyph glyph-name="ogonek" d="M528 0h119q-45 -61 -66.5 -105t-21.5 -75q0 -46 27.5 -69t81.5 -23q32 0 63 7.5t62 22.5v-133q-38 -10 -72 -15t-64 -5q-122 0 -179.5 43.5t-57.5 136.5q0 48 26.5 100.5t81.5 114.5z" unicode="˛"/>
<glyph glyph-name="tilde" d="M612 1370l-57 55q-21 20 -37.5 29.5t-30.5 9.5q-38 0 -56 -37t-20 -118h-124q1 134 52 208t142 74q39 0 71 -14t69 -47l57 -55q21 -20 37.5 -29.5t29.5 -9.5q39 0 57 37t19 118h125q-1 -134 -52 -208t-142 -74q-39 0 -71 14t-69 47z" unicode="˜"/>
<glyph glyph-name="hungarumlaut" d="M868 1638h179l-248 -376h-135zM535 1638h170l-224 -376h-137z" unicode="˝"/>
<glyph glyph-name="uni02DE" d="M-351 868l619 164h184v-148q0 -153 38 -202q38 -48 143 -48h250v-156h-271q-175 0 -262 96q-82 90 -82 290l-618 -162z" unicode="˞"/>
<glyph glyph-name="uni02E0" d="M616 921q-136 -170 -136 -320v-6q1 -77 136 -77q128 0 128 79q0 139 -128 324zM693 988q178 -249 178 -429q0 -129 -242 -132h-11q-255 0 -256 134q0 191 181 431l-250 303h136l191 -224l184 224h136z" unicode="ˠ"/>
<glyph glyph-name="uni02E1" d="M644 895q0 -69 28 -104.5t84 -35.5h136v-87h-146q-104 0 -161 59.5t-57 167.5v570h-186v81h302v-651z" unicode="ˡ"/>
<glyph glyph-name="uni02E2" d="M848 1293v-97q-49 22 -102 33t-109 11q-87 0 -130 -23.5t-43 -70.5q0 -36 31 -56.5t124 -38.5l40 -8q125 -24 175 -66q52 -43 52 -120q0 -87 -77.5 -138t-214.5 -51q-56 0 -117.5 10t-129.5 29v107q64 -30 126.5 -45t123.5 -15q82 0 126 25t44 70q0 42 -32 65 q-28 20 -139 43l-41 8q-107 21 -155 62.5t-48 114.5q0 88 70.5 136.5t200.5 48.5q64 0 120.5 -8.5t104.5 -25.5z" unicode="ˢ"/>
<glyph glyph-name="uni02E3" d="M945 1295l-255 -305l269 -322h-137l-206 246l-205 -246h-137l274 328l-250 299h136l188 -223l187 223h136z" unicode="ˣ"/>
<glyph glyph-name="uni02E4" d="M723 1115v-447h-127v365q-107 17 -178 84q-68 64 -68 159q0 104 70 174q86 88 259 88q54 0 105 -10q51 -9 99 -29v-96q-49 24 -99 36q-49 12 -100 12q-113 0 -175 -64q-36 -36 -36 -111q0 -55 36 -97q54 -64 175 -64h39z" unicode="ˤ"/>
<glyph glyph-name="uni02E5" d="M797 0v1232h-497v136h633v-1368h-136z" unicode="˥"/>
<glyph glyph-name="uni02E6" d="M797 0v924h-497v136h497v308h136v-1368h-136z" unicode="˦"/>
<glyph glyph-name="uni02E7" d="M797 752v616h136v-1368h-136v616h-497v136h497z" unicode="˧"/>
<glyph glyph-name="uni02E8" d="M797 444v924h136v-1368h-136v308h-497v136h497z" unicode="˨"/>
<glyph glyph-name="uni02E9" d="M797 136v1232h136v-1368h-633v136h497z" unicode="˩"/>
<glyph glyph-name="uni02EE" d="M309 1556h252v-206l-196 -383h-154l98 383v206zM768 1556h252v-206l-197 -383h-153l98 383v206z" unicode="ˮ"/>
<glyph glyph-name="uni02F3" d="M738 -282q0 50 -35.5 85.5t-86.5 35.5t-86 -35t-35 -86q0 -52 35 -87t86 -35t86.5 35.5t35.5 86.5zM836 -282q0 -92 -63.5 -156t-156.5 -64q-92 0 -155.5 64t-63.5 156t63.5 155.5t155.5 63.5q93 0 156.5 -63.5t63.5 -155.5z" unicode="˳"/>
<glyph glyph-name="gravecomb" d="M477 1638l281 -376h-154l-325 376h198z" unicode="̀"/>
<glyph glyph-name="acutecomb" d="M756 1638h198l-325 -376h-154z" unicode="́"/>
<glyph glyph-name="uni0302" d="M543 1638h147l246 -376h-139l-181 245l-180 -245h-139z" unicode="̂"/>
<glyph glyph-name="tildecomb" d="M612 1370l-57 55q-21 20 -37.5 29.5t-30.5 9.5q-38 0 -56 -37t-20 -118h-124q1 134 52 208t142 74q39 0 71 -14t69 -47l57 -55q21 -20 37.5 -29.5t29.5 -9.5q39 0 57 37t19 118h125q-1 -134 -52 -208t-142 -74q-39 0 -71 14t-69 47z" unicode="̃"/>
<glyph glyph-name="uni0304" d="M317 1526h598v-148h-598v148z" unicode="̄"/>
<glyph glyph-name="uni0305" d="M1233 1547v-80h-1233v80h1233z" unicode="̅"/>
<glyph glyph-name="uni0306" d="M303 1608h119q11 -76 59 -113t135 -37q85 0 133 37t62 113h119q-11 -143 -90 -215t-224 -72q-144 0 -223 72t-90 215z" unicode="̆"/>
<glyph glyph-name="uni0307" d="M513 1552h205v-204h-205v204z" unicode="̇"/>
<glyph glyph-name="uni0308" d="M711 1552h202v-202h-202v202zM319 1552h203v-202h-203v202z" unicode="̈"/>
<glyph glyph-name="hookabovecomb" d="M586 1734q230 0 237 -170q1 -5 1 -10q0 -64 -28 -100q-50 -67 -102 -100v-88h-148v108q67 22 116 70q22 20 22 73q0 94 -120 94q-90 0 -154 -32v131q86 24 176 24z" unicode="̉"/>
<glyph glyph-name="uni030A" d="M768 1524q0 63 -44 107t-108 44t-107.5 -43.5t-43.5 -107.5q0 -65 43.5 -108.5t107.5 -43.5t108 44t44 108zM891 1524q0 -115 -79.5 -195t-195.5 -80q-115 0 -194.5 80t-79.5 195t79.5 194.5t194.5 79.5q116 0 195.5 -79.5t79.5 -194.5z" unicode="̊"/>
<glyph glyph-name="uni030B" d="M868 1638h179l-248 -376h-135zM535 1638h170l-224 -376h-137z" unicode="̋"/>
<glyph glyph-name="uni030C" d="M543 1262l-246 376h139l180 -245l181 245h139l-246 -376h-147z" unicode="̌"/>
<glyph glyph-name="uni030D" d="M682 1706v-444h-136v444h136z" unicode="̍"/>
<glyph glyph-name="uni030E" d="M886 1706v-444h-136v444h136zM478 1706v-444h-136v444h136z" unicode="̎"/>
<glyph glyph-name="uni030F" d="M722 1638l190 -376h-137l-223 376h170zM388 1638l205 -376h-135l-248 376h178z" unicode="̏"/>
<glyph glyph-name="uni0310" d="M513 1756h205v-204h-205v204zM303 1608h119q11 -76 59 -113t135 -37q85 0 133 37t62 113h119q-11 -143 -90 -215t-224 -72q-144 0 -223 72t-90 215z" unicode="̐"/>
<glyph glyph-name="uni0311" d="M303 1321q11 143 90 215t223 72q145 0 224 -72t90 -215h-119q-14 76 -62 113t-133 37q-87 0 -135 -37t-59 -113h-119z" unicode="̑"/>
<glyph glyph-name="uni0312" d="M708 967h-239l187 345h146z" unicode="̒"/>
<glyph glyph-name="uni0313" d="M737 1475q0 -257 -241 -257v123h5q107 0 107 134h-112v254h241v-254z" unicode="̓"/>
<glyph glyph-name="uni0314" d="M496 1475v254h241v-254h-112q0 -134 112 -134v-123q-241 0 -241 257z" unicode="̔"/>
<glyph glyph-name="uni0315" d="M544 1638h198l-113 -376h-154z" unicode="̕"/>
<glyph glyph-name="uni0316" d="M575 -208l281 -376h-154l-325 376h198z" unicode="̖"/>
<glyph glyph-name="uni0317" d="M658 -208h198l-325 -376h-154z" unicode="̗"/>
<glyph glyph-name="uni0318" d="M588 -454v177h136v-490h-136v177h-176v136h176z" unicode="̘"/>
<glyph glyph-name="uni0319" d="M596 -590v-177h-136v490h136v-177h176v-136h-176z" unicode="̙"/>
<glyph glyph-name="uni031A" d="M726 1768h-354v136h490v-490h-136v354z" unicode="̚"/>
<glyph glyph-name="uni031B" d="M419 872v119q61 -45 105 -66.5t75 -21.5q46 0 69 27.5t23 81.5q0 32 -7.5 63t-22.5 62h133q10 -38 15 -72t5 -64q0 -122 -43.5 -179.5t-136.5 -57.5q-48 0 -100.5 26.5t-114.5 81.5z" unicode="̛"/>
<glyph glyph-name="uni031C" d="M726 -404v-98q-93 0 -156.5 64t-63.5 156t63.5 155.5t156.5 63.5v-98q-51 0 -86.5 -35.5t-35.5 -85.5q0 -51 35.5 -86.5t86.5 -35.5z" unicode="̜"/>
<glyph glyph-name="uni031D" d="M667 -454h177v-136h-490v136h177v177h136v-177z" unicode="̝"/>
<glyph glyph-name="uni031E" d="M527 -413h-177v136h490v-136h-177v-177h-136v177z" unicode="̞"/>
<glyph glyph-name="uni031F" d="M528 -590h-177v136h177v177h136v-177h177v-136h-177v-177h-136v177z" unicode="̟"/>
<glyph glyph-name="uni0320" d="M372 -413v136h490v-136h-490z" unicode="̠"/>
<glyph glyph-name="uni0321" d="M1051 128v-148q0 -195 -89 -300q-90 -106 -255 -106h-205v156h185q90 0 135 62q44 62 44 188v148h185z" unicode="̡"/>
<glyph glyph-name="uni0322" d="M182 128h185v-148q0 -126 44 -188q45 -62 135 -62h185v-156h-205q-165 0 -255 106q-89 105 -89 300v148z" unicode="̢"/>
<glyph glyph-name="dotbelowcomb" d="M513 -209h205v-204h-205v204z" unicode="̣"/>
<glyph glyph-name="uni0324" d="M712 -210h202v-202h-202v202zM320 -210h202v-202h-202v202z" unicode="̤"/>
<glyph glyph-name="uni0325" d="M738 -282q0 50 -35.5 85.5t-86.5 35.5t-86 -35t-35 -86q0 -52 35 -87t86 -35t86.5 35.5t35.5 86.5zM836 -282q0 -92 -63.5 -156t-156.5 -64q-92 0 -155.5 64t-63.5 156t63.5 155.5t155.5 63.5q93 0 156.5 -63.5t63.5 -155.5z" unicode="̥"/>
<glyph glyph-name="uni0326" d="M502 -197h239l-187 -345h-146z" unicode="̦"/>
<glyph glyph-name="uni0327" d="M700 0q56 -62 82.5 -114.5t26.5 -100.5q0 -89 -60 -134.5t-178 -45.5q-45 0 -88.5 6t-87.5 18v131q34 -17 71.5 -24.5t84.5 -7.5q58 0 88.5 24t30.5 70q0 30 -22 73.5t-66 104.5h118z" unicode="̧"/>
<glyph glyph-name="uni0328" d="M538 0h119q-45 -61 -66.5 -105t-21.5 -75q0 -46 27.5 -69t81.5 -23q32 0 63 7.5t62 22.5v-133q-38 -10 -72 -15t-64 -5q-122 0 -179.5 43.5t-57.5 136.5q0 48 26.5 100.5t81.5 114.5z" unicode="̨"/>
<glyph glyph-name="uni0329" d="M684 -209v-444h-136v444h136z" unicode="̩"/>
<glyph glyph-name="uni032A" d="M892 -209v-330h-137v194h-277v-194h-137v330h551z" unicode="̪"/>
<glyph glyph-name="uni032B" d="M616 -373q-59 -82 -175 -82q-218 0 -235 282v5h118q13 -150 116 -150q102 0 118 150h118q11 -149 116 -150q102 0 117 150h118q-15 -286 -235 -287q-116 0 -176 82z" unicode="̫"/>
<glyph glyph-name="uni032C" d="M543 -485l-246 376h139l180 -245l181 245h139l-246 -376h-147z" unicode="̬"/>
<glyph glyph-name="uni032D" d="M543 -109h147l246 -376h-139l-181 245l-180 -245h-139z" unicode="̭"/>
<glyph glyph-name="uni032E" d="M303 -200h119q11 -76 59 -113t135 -37q85 0 133 37t62 113h119q-11 -143 -90 -215t-224 -72q-144 0 -223 72t-90 215z" unicode="̮"/>
<glyph glyph-name="uni032F" d="M930 -485h-119q-11 76 -59 113t-135 37q-85 0 -133 -37t-62 -113h-119q11 143 90 215t224 72q144 0 223 -72t90 -215z" unicode="̯"/>
<glyph glyph-name="uni0330" d="M612 -424l-57 55q-21 20 -37.5 29.5t-30.5 9.5q-38 0 -56 -37t-20 -118h-124q1 134 52 208t142 74q39 0 71 -14t69 -47l57 -55q21 -20 37.5 -29.5t29.5 -9.5q39 0 57 37t19 118h125q-1 -134 -52 -208t-142 -74q-39 0 -71 14t-69 47z" unicode="̰"/>
<glyph glyph-name="uni0331" d="M318 -209h598v-148h-598v148z" unicode="̱"/>
<glyph glyph-name="uni0332" d="M1233 -403v-80h-1233v80h1233z" unicode="̲"/>
<glyph glyph-name="uni0333" d="M1233 -403v-80h-1233v80h1233zM1233 -163v-80h-1233v80h1233z" unicode="̳"/>
<glyph glyph-name="uni0334" d="M1145 780v-174q-75 -59 -146.5 -86.5t-150.5 -27.5q-90 0 -203 51q-22 10 -33 14q-77 33 -128.5 45t-102.5 12q-79 0 -149.5 -29.5t-143.5 -92.5v174q78 60 151 87t156 27q53 0 103 -11t124 -42q12 -5 33 -15q116 -55 209 -55q70 0 138.5 30.5t142.5 92.5z" unicode="̴"/>
<glyph glyph-name="uni0335" d="M1062 616v-164h-920v164h920z" unicode="̵"/>
<glyph glyph-name="uni0336" d="M0 452v164h1233v-164h-1233z" unicode="̶"/>
<glyph glyph-name="uni0337" d="M139 -96l-92 76l1034 1232l93 -77z" unicode="̷"/>
<glyph glyph-name="uni0338" d="M111 -70l-103 70l1092 1559l100 -74z" unicode="̸"/>
<glyph glyph-name="uni0339" d="M506 -404q51 0 86.5 35.5t35.5 86.5q0 50 -35.5 85.5t-86.5 35.5v98q93 0 156.5 -63.5t63.5 -155.5t-63.5 -156t-156.5 -64v98z" unicode="̹"/>
<glyph glyph-name="uni033A" d="M341 -384v330h137v-194h277v194h137v-330h-551z" unicode="̺"/>
<glyph glyph-name="uni033B" d="M755 -623v278h-277v-278h277zM892 -209v-550h-551v550h551z" unicode="̻"/>
<glyph glyph-name="uni033C" d="M616 -250q60 82 176 82q218 0 235 -282v-5h-117q-14 150 -118 150q-101 0 -116 -150h-118q-12 149 -117 150q-102 0 -117 -150h-118q15 286 235 287q116 0 175 -82z" unicode="̼"/>
<glyph glyph-name="uni033D" d="M616 1353l-125 -125l-96 96l125 125l-125 125l96 97l125 -126l126 126l96 -97l-125 -125l125 -125l-96 -96z" unicode="̽"/>
<glyph glyph-name="uni033E" d="M536 1479q-32 28 -46 52t-14 52q0 80 73 120.5t209 42.5v-110q-82 -2 -119 -15.5t-37 -41.5q0 -10 10 -22q11 -15 30 -29l54 -43q34 -28 48 -52t14 -52q0 -80 -74 -120.5t-208 -42.5v110q82 2 118 15.5t36 41.5q0 10 -9 22q-11 15 -29 29z" unicode="̾"/>
<glyph glyph-name="uni033F" d="M1233 1547v-80h-1233v80h1233zM1233 1307v-80h-1233v80h1233z" unicode="̿"/>
<glyph glyph-name="uni0343" d="M737 1475q0 -257 -241 -257v123h5q107 0 107 134h-112v254h241v-254z" unicode="̓"/>
<glyph glyph-name="uni0358" d="M1026 1552h205v-204h-205v204z" unicode="͘"/>
<glyph glyph-name="uni0361" d="M617 1710q-55 0 -341 -25q-268 -23 -394 -165h-118q0 240 508 300q228 27 344.5 27t345.5 -27q508 -60 508 -300h-118q-127 142 -396 165q-284 25 -339 25z" unicode="͡"/>
<glyph glyph-name="uni0374" d="M492 1140l65 498h190l-110 -498h-145z" unicode="ʹ"/>
<glyph glyph-name="Sigma" d="M786 747l-455 -577h802v-170h-1013v170l454 577l-454 576v170h1013v-170h-802z" unicode="Σ"/>
<glyph glyph-name="delta" d="M334 1067q-19 9 -59 49q-62 61 -62 153q0 136 118.5 218t315.5 82q102 0 152 -12l151 -36v-173q-66 24 -136 39q-76 15 -150 15h-17l-32 -1q-73 -2 -133 -45l-39 -28q-27 -24 -27 -70q0 -33 13 -52q17 -24 58 -45q24 -13 129 -14q235 -3 356 -151q124 -151 124 -437 q0 -287 -123 -437.5t-357 -150.5q-233 0 -356 150.5t-123 437.5q0 286 123 437q31 38 74 71zM616 991q-140 0 -212 -109t-72 -323q0 -213 72 -322.5t212 -109.5q141 0 213 109.5t72 322.5q0 214 -72 323t-213 109z" unicode="δ"/>
<glyph glyph-name="uni0400" d="M561 1899l197 -264h-154l-227 264h184zM197 1493h886v-170h-684v-442h654v-170h-654v-541h703v-170h-905v1493z" unicode="Ѐ"/>
<glyph glyph-name="uni0401" d="M767 1870h202v-203h-202v203zM375 1870h203v-203h-203v203zM197 1493h886v-170h-684v-442h654v-170h-654v-541h703v-170h-905v1493z" unicode="Ё"/>
<glyph glyph-name="uni0402" d="M573 -287l78 -17q13 -2 25 -2q143 0 199.5 74.5t56.5 277.5v416q0 151 -53 222t-166 71q-106 0 -193 -42q-46 -21 -68 -49q-69 -92 -69 -263v-401h-203v1325h-246v170h894v-170h-445v-525q37 42 85 66q34 17 48 26q64 37 213 47q26 2 48 2q160 0 248 -84q14 -13 25 -29 q85 -112 85 -340v-442q0 -280 -107 -399q-105 -117 -352 -117q-83 0 -100 2q0 2 -3 181z" unicode="Ђ"/>
<glyph glyph-name="uni0403" d="M744 1899h186l-229 -264h-154zM215 0v1493h924v-170h-721v-1323h-203z" unicode="Ѓ"/>
<glyph glyph-name="uni0404" d="M350 661q4 -228 100 -377t285 -149q188 0 338 125v-207q-154 -82 -330 -82q-287 0 -445.5 203t-158.5 570t159.5 571.5t444.5 204.5q176 0 330 -82v-207q-152 125 -342 125t-271.5 -134t-104.5 -391h627v-170h-632z" unicode="Є"/>
<glyph glyph-name="uni0405" d="M1012 1442v-205q-92 59 -184.5 89t-186.5 30q-143 0 -226 -66.5t-83 -179.5q0 -99 54.5 -151t203.5 -87l106 -24q210 -49 306 -154t96 -286q0 -213 -132 -325t-384 -112q-105 0 -211 22.5t-213 67.5v215q115 -73 217.5 -107t206.5 -34q153 0 238 68.5t85 191.5 q0 112 -58.5 171t-203.5 91l-108 25q-208 47 -302 142t-94 255q0 200 134.5 320.5t357.5 120.5q86 0 181 -19.5t200 -58.5z" unicode="Ѕ"/>
<glyph glyph-name="uni0406" d="M201 1493h829v-170h-313v-1153h313v-170h-829v170h313v1153h-313v170z" unicode="І"/>
<glyph glyph-name="uni0407" d="M201 1493h829v-170h-313v-1153h313v-170h-829v170h313v1153h-313v170zM711 1870h202v-203h-202v203zM319 1870h203v-203h-203v203z" unicode="Ї"/>
<glyph glyph-name="uni0408" d="M109 61v236q91 -81 188 -121.5t201 -40.5q143 0 199.5 74.5t56.5 277.5v836h-381v170h583v-1006q0 -282 -105.5 -399t-352.5 -117q-96 0 -191 22t-198 68z" unicode="Ј"/>
<glyph glyph-name="uni0409" d="M801 1493v-600h21q144 0 272.5 -113t128.5 -333t-129 -333.5t-272 -113.5h-207v1323h-172v-250q0 -314 -12 -574.5t-113 -379.5t-337 -119v164q138 0 197 71.5t69 280t10 551.5v426h544zM801 166h21q90 0 152.5 71t62.5 206t-60.5 209.5t-154.5 74.5h-21v-561z" unicode="Љ"/>
<glyph glyph-name="uni040A" d="M615 0v711h-395v-711h-186v1493h186v-612h395v612h186v-600h21q179 0 298 -113q103 -99 103 -333q0 -220 -129 -333.5t-272 -113.5h-207zM801 166h21q90 0 152.5 71t62.5 201q0 140 -60 214.5t-155 74.5h-21v-561z" unicode="Њ"/>
<glyph glyph-name="uni040B" d="M383 1325v-525q37 42 85 66q34 17 48 26q64 37 213 47q26 2 48 2q160 0 248 -84q14 -13 25 -29q85 -112 85 -340v-488h-203v462q0 151 -53 222t-166 71q-106 0 -193 -42q-46 -21 -68 -49q-69 -92 -69 -263v-401h-203v1325h-246v170h894v-170h-445z" unicode="Ћ"/>
<glyph glyph-name="uni040C" d="M699 1899h186l-229 -264h-154zM137 1493h203v-664l631 664h237l-581 -610l598 -883h-244l-487 748l-154 -164v-584h-203v1493z" unicode="Ќ"/>
<glyph glyph-name="uni040D" d="M561 1899l197 -264h-154l-227 264h184zM139 0v1493h195v-1229l504 1229h256v-1493h-195v1229l-504 -1229h-256z" unicode="Ѝ"/>
<glyph glyph-name="uni040E" d="M303 1901h119q12 -54 62 -82.5t132 -28.5q83 0 131.5 27.5t63.5 83.5h119q-11 -119 -90.5 -180.5t-223.5 -61.5t-223 61t-90 181zM741 425q-59 -158 -128 -269q-44 -74 -120 -117q-69 -39 -161 -39h-148v172h109q81 0 127 47q45 46 79 123q14 32 29 74l-424 1077h217 l311 -830l308 830h213z" unicode="Ў"/>
<glyph glyph-name="uni040F" d="M137 0v1493h203v-1323h553v1323h203v-1493h-394v-322h-171v322h-394z" unicode="Џ"/>
<glyph glyph-name="uni0410" d="M494 1493h245l457 -1493h-209l-110 389h-523l-108 -389h-209zM616 1315l-213 -764h426z" unicode="А"/>
<glyph glyph-name="uni0411" d="M1068 1327h-699v-450h235q379 -15 480 -206q53 -100 53 -261q0 -203 -133 -306q-133 -104 -396 -104h-442v1493h902v-166zM369 713v-547h239q176 0 251 61.5t75 202.5q0 146 -79 214.5t-247 68.5h-239z" unicode="Б"/>
<glyph glyph-name="uni0412" d="M166 1493h442q229 0 353 -99t124 -280q0 -137 -65.5 -216t-196.5 -99q147 -22 230.5 -125.5t83.5 -263.5q0 -203 -133 -306.5t-396 -103.5h-442v1493zM369 1327v-450h235q146 0 211.5 56t65.5 181q0 113 -64.5 163t-212.5 50h-235zM369 713v-547h239q176 0 251 61.5 t75 202.5q0 146 -79 214.5t-247 68.5h-239z" unicode="В"/>
<glyph glyph-name="uni0413" d="M215 0v1493h924v-170h-721v-1323h-203z" unicode="Г"/>
<glyph glyph-name="uni0414" d="M876 1323h-446v-297q0 -224 -28 -511q-27 -287 -32.5 -301t-5.5 -22q0 -22 47 -22h465v1153zM1079 170h121v-492h-170v322h-827v-322h-170v492h77q48 0 87 332q30 256 30 525v466h852v-1323z" unicode="Д"/>
<glyph glyph-name="uni0415" d="M197 1493h886v-170h-684v-442h654v-170h-654v-541h703v-170h-905v1493z" unicode="Е"/>
<glyph glyph-name="uni0416" d="M523 1493h187v-595l284 595h207l-287 -602l304 -891h-197l-222 650l-89 -186v-464h-187v464l-89 186l-222 -650h-197l304 891l-287 602h207l284 -595v595z" unicode="Ж"/>
<glyph glyph-name="uni0417" d="M776 799q147 -39 225 -138.5t78 -248.5q0 -206 -138.5 -323.5t-383.5 -117.5q-103 0 -210 19t-210 55v201q102 -53 201 -79t197 -26q166 0 255 75t89 216q0 130 -89 206.5t-241 76.5h-154v166h154q139 0 217 61t78 170q0 115 -72.5 176.5t-206.5 61.5q-89 0 -184 -20 t-199 -60v186q121 32 215.5 48t167.5 16q218 0 348.5 -109.5t130.5 -290.5q0 -123 -68.5 -205t-199.5 -116z" unicode="З"/>
<glyph glyph-name="uni0418" d="M139 0v1493h195v-1229l504 1229h256v-1493h-195v1229l-504 -1229h-256z" unicode="И"/>
<glyph glyph-name="uni0419" d="M303 1901h119q12 -54 62 -82.5t132 -28.5q83 0 131.5 27.5t63.5 83.5h119q-11 -119 -90.5 -180.5t-223.5 -61.5t-223 61t-90 181zM139 0v1493h195v-1229l504 1229h256v-1493h-195v1229l-504 -1229h-256z" unicode="Й"/>
<glyph glyph-name="uni041A" d="M137 1493h203v-664l631 664h237l-581 -610l598 -883h-244l-487 748l-154 -164v-584h-203v1493z" unicode="К"/>
<glyph glyph-name="uni041B" d="M483 1323v-250q0 -325 -11.5 -580t-113 -374t-354.5 -119v164q138 0 197 71.5t69 280t10 551.5v426h814v-1493h-203v1323h-408z" unicode="Л"/>
<glyph glyph-name="uni041C" d="M86 1493h270l258 -760l260 760h271v-1493h-187v1319l-266 -787h-153l-267 787v-1319h-186v1493z" unicode="М"/>
<glyph glyph-name="uni041D" d="M137 1493h203v-612h553v612h203v-1493h-203v711h-553v-711h-203v1493z" unicode="Н"/>
<glyph glyph-name="uni041E" d="M1116 745q0 -390 -123.5 -582t-376.5 -192t-376 191t-123 583q0 391 123.5 583t375.5 192q253 0 376.5 -192t123.5 -583zM905 745q0 329 -67.5 470t-221.5 141q-153 0 -220.5 -141t-67.5 -470q0 -328 67.5 -469t220.5 -141q154 0 221.5 140.5t67.5 469.5z" unicode="О"/>
<glyph glyph-name="uni041F" d="M137 1493h959v-1493h-203v1323h-553v-1323h-203v1493z" unicode="П"/>
<glyph glyph-name="uni0420" d="M197 1493h436q250 0 379 -113.5t129 -332.5q0 -221 -128.5 -334t-379.5 -113h-234v-600h-202v1493zM399 1327v-561h234q140 0 218.5 74t78.5 207t-78 206.5t-219 73.5h-234z" unicode="Р"/>
<glyph glyph-name="uni0421" d="M1073 53q-77 -41 -158 -61.5t-172 -20.5q-287 0 -445.5 203t-158.5 571q0 366 159.5 570.5t444.5 204.5q91 0 172 -20.5t158 -61.5v-207q-74 61 -159 93t-171 32q-197 0 -295 -152t-98 -459q0 -306 98 -458t295 -152q88 0 172.5 32t157.5 93v-207z" unicode="С"/>
<glyph glyph-name="uni0422" d="M47 1493h1139v-170h-467v-1323h-203v1323h-469v170z" unicode="Т"/>
<glyph glyph-name="uni0423" d="M741 425q-59 -158 -128 -269q-44 -74 -120 -117q-69 -39 -161 -39h-148v172h109q81 0 127 47q45 46 79 123q14 32 29 74l-424 1077h217l311 -830l308 830h213z" unicode="У"/>
<glyph glyph-name="uni0424" d="M718 316q165 26 201.5 136t36.5 310q0 199 -36.5 309t-201.5 136v-891zM515 1493h203v-122q267 -10 358 -181t91 -428q0 -260 -91 -430t-358 -180v-152h-203v152q-250 10 -349.5 181.5t-99.5 428.5q0 260 92 429.5t357 179.5v122zM515 316v891q-165 -26 -201.5 -136 t-36.5 -309q0 -200 36.5 -310t201.5 -136z" unicode="Ф"/>
<glyph glyph-name="uni0425" d="M86 1493h217l328 -563l334 563h217l-447 -702l479 -791h-217l-366 643l-395 -643h-218l500 791z" unicode="Х"/>
<glyph glyph-name="uni0426" d="M80 0v1493h203v-1323h553v1323h203v-1323h134v-492h-170v322h-923z" unicode="Ц"/>
<glyph glyph-name="uni0427" d="M137 980v513h203v-487q0 -163 55 -203t164 -40q117 0 178 14.5t152 83.5v632h203v-1493h-203v658q-118 -58 -193 -69.5t-201 -11.5q-183 0 -270.5 98t-87.5 305z" unicode="Ч"/>
<glyph glyph-name="uni0428" d="M1120 0h-1006v1493h186v-1323h224v1323h186v-1323h224v1323h186v-1493z" unicode="Ш"/>
<glyph glyph-name="uni0429" d="M60 0v1493h186v-1323h224v1323h186v-1323h224v1323h186v-1323h134v-492h-170v322h-970z" unicode="Щ"/>
<glyph glyph-name="uni042A" d="M293 0v1323h-261v170h463v-600h138q251 0 379.5 -113t128.5 -334q0 -219 -129 -332.5t-379 -113.5h-340zM495 166h138q141 0 219 73.5t78 206.5t-78.5 207t-218.5 74h-138v-561z" unicode="Ъ"/>
<glyph glyph-name="uni042B" d="M65 0v1493h202v-600h91q194 0 322.5 -113t128.5 -334q0 -219 -129 -332.5t-322 -113.5h-293zM267 166h91q102 0 180 74q60 56 60 206q0 133 -60.5 207t-179.5 74h-91v-561zM931 0v1493h203v-1493h-203z" unicode="Ы"/>
<glyph glyph-name="uni042C" d="M197 0v1493h202v-600h234q251 0 379 -113q129 -113 129 -334q0 -219 -129 -332q-129 -114 -379 -114h-436zM399 166h234q141 0 219 73.5t78 206.5t-78.5 207t-218.5 74h-234v-561z" unicode="Ь"/>
<glyph glyph-name="uni042D" d="M469 -29q-176 0 -330 82v207q150 -125 338 -125q189 0 285 147q95 148 100 379h-632v170h627q-30 276 -93 373q-98 152 -286 152q-187 0 -339 -125v207q154 82 330 82q285 0 445 -204q159 -205 159 -572t-159 -570q-158 -203 -445 -203z" unicode="Э"/>
<glyph glyph-name="uni042E" d="M263 836h111q10 323 103.5 503.5t295.5 180.5t301 -192t99 -583q0 -390 -99 -582t-301 -192q-203 0 -296 181t-103 514h-111v-666h-203v1493h203v-657zM975 745q0 329 -47.5 470t-154.5 141t-154.5 -141t-47.5 -470q0 -328 47.5 -469t154.5 -141t154.5 140.5t47.5 469.5z " unicode="Ю"/>
<glyph glyph-name="uni042F" d="M76 0l369 666q-108 39 -197 128t-89 267q0 210 131 321t377 111h466v-1493h-203v631h-290l-350 -631h-214zM372 1061q0 -134 71 -199t216 -65h271v530h-263q-144 0 -219.5 -68.5t-75.5 -197.5z" unicode="Я"/>
<glyph glyph-name="uni0430" d="M1059 639v-639h-185v166q-59 -100 -148.5 -147.5t-217.5 -47.5q-171 0 -273 96.5t-102 258.5q0 187 125.5 284t368.5 97h247v29q-1 134 -68 194.5t-214 60.5q-94 0 -190 -27t-187 -79v184q102 39 195.5 58.5t181.5 19.5q139 0 237.5 -41t159.5 -123q38 -50 54 -123.5 t16 -220.5zM702 563h-61q-161 0 -242.5 -56.5t-81.5 -168.5q0 -101 61 -157t169 -56q152 0 239 105.5t88 291.5v41h-172z" unicode="а"/>
<glyph glyph-name="uni0431" d="M285 1024q120 123 342 123t345.5 -151t123.5 -438q0 -286 -123 -436.5t-357 -150.5q-232 -1 -358 153q-121 148 -121 414v21q1 45 0 62l-7 167q-5 119 -5 160t2 56q20 149 56 222q91 185 258 270q128 65 412 77q51 2 86 18l70 -142q-35 -13 -86 -18l-240 -24 q-98 -10 -172 -53q-197 -116 -218 -270zM901 559q0 432 -285 432q-284 0 -284 -432q0 -213 72 -322.5t212 -109.5q285 0 285 432z" unicode="б"/>
<glyph glyph-name="uni0432" d="M209 1120h397q170 0 270 -77t100 -189q0 -111 -47.5 -175.5t-146.5 -78.5q133 -25 187.5 -93t54.5 -185q0 -154 -104.5 -238t-297.5 -84h-413v1120zM393 970v-305h228q85 0 127 42.5t42 109.5t-42 110t-128 43h-227zM393 515v-365h239q95 0 145.5 56t50.5 136 q0 79 -42.5 126t-149.5 47h-243z" unicode="в"/>
<glyph glyph-name="uni0433" d="M441 970v-970h-184v1120h752v-150h-568z" unicode="г"/>
<glyph glyph-name="uni0434" d="M822 150v820h-380v-270q0 -100 -20 -347q-8 -144 -15 -160.5t-7 -29.5t34 -13h388zM1007 150h121v-436h-150v286h-723v-286h-150v436h67q55 0 71 227t16 327v416h748v-970z" unicode="д"/>
<glyph glyph-name="uni0435" d="M928 660q-4 162 -76.5 246.5t-208.5 84.5q-133 0 -219 -88t-102 -244zM1112 606v-90h-797v-6q0 -183 95.5 -283t269.5 -100q88 0 184 28t205 85v-183q-105 -43 -202.5 -64.5t-188.5 -21.5q-261 0 -408 156.5t-147 431.5q0 268 144 428t384 160q214 0 337.5 -145 t123.5 -396z" unicode="е"/>
<glyph glyph-name="uni0436" d="M533 1120h168v-432l255 432h199l-239 -404l259 -716h-179l-191 528l-104 -177v-351h-168v351l-104 177l-191 -528h-179l259 716l-239 404h199l255 -432v432z" unicode="ж"/>
<glyph glyph-name="uni0437" d="M783 607q132 -23 206.5 -97t74.5 -183q0 -166 -138.5 -257.5t-393.5 -91.5q-85 0 -176 14t-187 42v173q76 -34 167 -51.5t191 -17.5q173 0 263.5 52.5t90.5 150.5q0 81 -84.5 136t-234.5 55h-158v144h165q136 0 208 43.5t72 104.5q0 74 -74.5 117t-212.5 43 q-75 0 -161.5 -12.5t-190.5 -39.5v167q105 24 196.5 36t171.5 12q210 0 332 -79t122 -213q0 -94 -65 -158.5t-184 -89.5z" unicode="з"/>
<glyph glyph-name="uni0438" d="M866 809l-487 -809h-184v1120h184v-809l487 809h184v-1120h-184v809z" unicode="и"/>
<glyph glyph-name="uni0439" d="M303 1608h119q11 -76 59 -113t135 -37q85 0 133 37t62 113h119q-11 -143 -90 -215t-224 -72q-144 0 -223 72t-90 215zM866 809l-487 -809h-184v1120h184v-809l487 809h184v-1120h-184v809z" unicode="й"/>
<glyph glyph-name="uni043A" d="M236 1120h190v-465l483 465h224l-441 -422l510 -698h-225l-414 578l-137 -129v-449h-190v1120z" unicode="к"/>
<glyph glyph-name="uni043B" d="M265 1120h785v-1120h-184v970h-417v-245q0 -189 -13.5 -340.5t-89 -268t-261.5 -116.5h-55v150h35q85 0 132 59t57.5 199t10.5 314v398z" unicode="л"/>
<glyph glyph-name="uni043C" d="M61 1120h184l375 -691l375 691h184v-1120h-184v741l-283 -481h-184l-283 481v-741h-184v1120z" unicode="м"/>
<glyph glyph-name="uni043D" d="M866 515h-487v-515h-184v1120h184v-455h487v455h184v-1120h-184v515z" unicode="н"/>
<glyph glyph-name="uni043E" d="M616 1147q233 0 356.5 -151t123.5 -437q0 -287 -123 -437.5t-357 -150.5q-233 0 -356 150.5t-123 437.5q0 286 123 437t356 151zM616 991q-140 0 -212 -109t-72 -323q0 -213 72 -322.5t212 -109.5q141 0 213 109.5t72 322.5q0 214 -72 323t-213 109z" unicode="о"/>
<glyph glyph-name="uni043F" d="M866 970h-487v-970h-184v1120h855v-1120h-184v970z" unicode="п"/>
<glyph glyph-name="uni0440" d="M915 559q0 214 -67.5 323t-200.5 109q-134 0 -203 -109.5t-69 -322.5q0 -212 69 -322t203 -110q133 0 200.5 109t67.5 323zM375 141v-567h-185v1546h185v-143q46 83 122.5 126.5t176.5 43.5q203 0 318.5 -157t115.5 -435q0 -273 -116 -428.5t-318 -155.5 q-102 0 -178.5 43.5t-120.5 126.5z" unicode="р"/>
<glyph glyph-name="uni0441" d="M1061 57q-74 -43 -152.5 -64.5t-160.5 -21.5q-260 0 -406.5 156t-146.5 432t146.5 432t406.5 156q81 0 158 -21t155 -65v-193q-73 65 -146.5 94t-166.5 29q-173 0 -266 -112t-93 -320q0 -207 93.5 -319.5t265.5 -112.5q96 0 172 29.5t141 91.5v-191z" unicode="с"/>
<glyph glyph-name="uni0442" d="M720 970v-970h-184v970h-311v150h806v-150h-311z" unicode="т"/>
<glyph glyph-name="uni0443" d="M858 360q-46 -117 -117 -308q-99 -264 -133 -322q-46 -78 -115 -117t-161 -39h-148v154h109q81 0 127 47t117 243l-433 1102h195l332 -876l327 876h195z" unicode="у"/>
<glyph glyph-name="uni0444" d="M704 982v-855q120 25 173 106t53 326t-53 321.5t-173 101.5zM520 -29q-220 22 -320.5 155.5t-100.5 432.5t99.5 432.5t321.5 155.5v409h184v-409q222 -22 321.5 -155.5t99.5 -432.5t-100.5 -432.5t-320.5 -155.5v-397h-184v397zM520 982q-120 -25 -173 -101.5t-53 -321.5 t53 -326t173 -106v855z" unicode="ф"/>
<glyph glyph-name="uni0445" d="M1118 1120l-401 -536l440 -584h-213l-328 449l-327 -449h-213l440 584l-401 536h204l297 -405l295 405h207z" unicode="х"/>
<glyph glyph-name="uni0446" d="M1118 150v-436h-150v286h-844v1120h184v-970h486v970h184v-970h140z" unicode="ц"/>
<glyph glyph-name="uni0447" d="M195 755v367h184v-367q0 -100 53.5 -146.5t163.5 -46.5q88 0 145 10t126 49v501h184v-1122h-184v466q-53 -21 -123 -42.5t-209 -21.5q-140 0 -240 81.5t-100 271.5z" unicode="ч"/>
<glyph glyph-name="uni0448" d="M1109 0h-984v1120h168v-970h240v970h168v-970h240v970h168v-1120z" unicode="ш"/>
<glyph glyph-name="uni0449" d="M1058 0h-978v1120h168v-970h240v970h168v-970h240v970h168v-970h144v-436h-150v286z" unicode="щ"/>
<glyph glyph-name="uni044A" d="M278 0v970h-248v150h432v-453h256q209 0 327.5 -83.5t118.5 -251.5t-116 -250t-330 -82h-440zM462 156h248q124 0 191 44t67 134t-68.5 135t-189.5 45h-248v-358z" unicode="ъ"/>
<glyph glyph-name="uni044B" d="M104 0v1120h182v-453h91q209 0 327.5 -83.5t118.5 -251.5t-116 -250t-330 -82h-273zM286 154h83q124 0 191 44.5t67 135.5t-68.5 136.5t-189.5 45.5h-83v-362zM945 0v1120h184v-1120h-184z" unicode="ы"/>
<glyph glyph-name="uni044C" d="M195 0v1120h184v-453h256q208 0 326.5 -83.5t118.5 -251.5t-115.5 -250t-329.5 -82h-440zM379 153h248q129 0 193 44.5t64 134.5q0 94 -64.5 138t-192.5 44h-248v-361z" unicode="ь"/>
<glyph glyph-name="uni044D" d="M195 57v191q65 -62 141 -91.5t172 -29.5q172 0 266 113q83 100 92 276h-542v144h537q-18 137 -87 219q-94 112 -266 112q-93 0 -166.5 -29t-146.5 -94v193q78 44 155 65t158 21q260 0 406.5 -156t146.5 -432t-147 -432q-146 -156 -406 -156q-82 0 -160.5 21.5 t-152.5 64.5z" unicode="э"/>
<glyph glyph-name="uni044E" d="M262 634h142q17 256 122 384.5t262 128.5t268.5 -146t111.5 -447q0 -302 -115 -442.5t-269 -140.5q-153 0 -258.5 138t-121.5 375h-142v-484h-184v1120h184v-486zM973 575q0 198 -56 306.5t-132 108.5t-132.5 -122t-56.5 -315t53 -310q53 -116 137 -116h1q85 0 135.5 125 t50.5 323z" unicode="ю"/>
</font>
</defs>
</svg>
